<svg width="22" height="22" viewBox="0 0 22 22" fill="none" xmlns="http://www.w3.org/2000/svg">
<path d="M19.3148 1.19756L10.9997 9.51272L2.68453 1.19756C2.48454 1.01455 2.22165 0.915757 1.95062 0.921762C1.6796 0.927768 1.42135 1.03811 1.22966 1.2298C1.03797 1.42149 0.927626 1.67974 0.921621 1.95077C0.915616 2.22179 1.01441 2.48468 1.19742 2.68467L9.50836 10.9998L1.19531 19.3129C1.09375 19.4097 1.01256 19.5258 0.95652 19.6544C0.900479 19.783 0.870715 19.9215 0.868977 20.0618C0.86724 20.2021 0.893564 20.3413 0.946403 20.4713C0.999242 20.6012 1.07753 20.7193 1.17666 20.8186C1.2758 20.9179 1.39377 20.9963 1.52366 21.0494C1.65355 21.1024 1.79273 21.1289 1.93302 21.1274C2.0733 21.1258 2.21187 21.0963 2.34056 21.0404C2.46926 20.9845 2.58549 20.9035 2.68242 20.8021L10.9997 12.489L19.3148 20.8042C19.5148 20.9872 19.7777 21.086 20.0487 21.08C20.3198 21.074 20.578 20.9637 20.7697 20.772C20.9614 20.5803 21.0717 20.322 21.0777 20.051C21.0838 19.78 20.985 19.5171 20.802 19.3171L12.4868 11.0019L20.802 2.68467C20.9035 2.58788 20.9847 2.47177 21.0407 2.34315C21.0968 2.21454 21.1265 2.07601 21.1283 1.93573C21.13 1.79545 21.1037 1.65623 21.0509 1.52627C20.998 1.3963 20.9197 1.27821 20.8206 1.17894C20.7215 1.07966 20.6035 1.00121 20.4736 0.948187C20.3437 0.895163 20.2045 0.868642 20.0642 0.87018C19.924 0.871719 19.7854 0.901287 19.6567 0.957146C19.528 1.013 19.4118 1.09403 19.3148 1.19545V1.19756Z" fill="#051326"/>
</svg>
