<svg width="22" height="22" viewBox="0 0 22 22" fill="none" xmlns="http://www.w3.org/2000/svg">
<path d="M9.5127 1.62609C9.5127 0.997696 10.0221 0.488281 10.6505 0.488281H10.7082C11.3366 0.488281 11.846 0.997696 11.846 1.62609V20.3505C11.846 20.9789 11.3366 21.4883 10.7082 21.4883H10.6505C10.0221 21.4883 9.5127 20.9789 9.5127 20.3505V1.62609Z" fill="#051326"/>
<path d="M0.180664 10.9581C0.180664 10.3297 0.690079 9.82031 1.31847 9.82031H20.0429C20.6712 9.82031 21.1807 10.3297 21.1807 10.9581V11.0158C21.1807 11.6442 20.6712 12.1536 20.0429 12.1536H1.31847C0.690079 12.1536 0.180664 11.6442 0.180664 11.0158V10.9581Z" fill="#051326"/>
</svg>
