<svg width="118" height="108" viewBox="0 0 118 108" fill="none" xmlns="http://www.w3.org/2000/svg">
<path d="M41.6072 15.0901C42.8006 19.2452 41.3105 22.1645 40.1056 25.104C39.5141 26.5554 38.7608 27.8623 39.4139 29.5539C39.7475 30.3669 39.5554 31.3139 38.482 31.6185C37.3577 31.9671 36.7544 31.3158 36.3759 30.3284C35.7595 28.6585 35.6996 27.0944 36.4942 25.3434C37.8743 22.3593 39.8401 19.4736 38.4225 15.7783C37.2571 12.6999 33.2813 10.5549 30.2012 11.6499C28.7488 12.175 27.7381 13.2069 27.5793 14.8887C27.3784 16.8909 26.8338 18.8878 27.3938 20.9437C27.5358 21.4959 27.5685 22.1069 26.9483 22.3579C26.3573 22.6015 25.9089 22.1894 25.5264 21.7915C25.2689 21.5165 24.9088 21.2057 24.819 20.857C23.784 17.5596 23.7728 14.2489 25.6509 11.3855C27.4638 8.63171 30.1648 7.75724 33.548 8.56689C38.8206 9.82387 40.5395 11.1817 41.578 15.0976L41.6072 15.0901Z" fill="#FF1616"/>
<path d="M38.5611 33.9828C39.8899 33.582 41.1359 34.0695 41.3113 35.3564C41.539 36.8467 40.8531 38.4152 39.2614 38.8829C37.4727 39.4319 36.9949 37.6956 36.6157 36.5846C36.1468 35.1248 37.144 34.2821 38.5611 33.9828Z" fill="#FF1616"/>
<path d="M113.703 64.5723C114.836 67.7719 112.665 76.2339 110.048 78.5187C108.836 79.577 107.315 79.9811 105.671 80.1425C100.39 80.7244 95.8994 78.8663 91.8025 75.9973C88.8399 73.9248 85.8625 72.2423 82.0123 73.3825C80.823 73.7276 79.9136 73.3602 79.6336 72.1826C79.3081 70.7976 80.6309 70.7233 81.4426 70.4863C85.9562 69.2281 89.7381 70.7403 93.2923 73.3622C96.7689 75.9487 100.67 77.6087 105.281 77.2116C107.183 77.0507 108.376 76.2875 109.138 74.6275C109.988 72.7744 110.51 70.8187 110.926 68.8381C111.83 64.4662 108.251 61.9496 105.17 60.8501C104.137 60.4964 103.051 60.2586 101.976 60.0489C101.419 59.9352 100.473 60.4144 100.478 59.4834C100.472 58.5243 101.478 58.119 102.304 58.0049C104.675 57.6379 106.878 58.1979 108.883 59.3442C111.015 60.5717 112.687 62.2899 113.72 64.5337L113.703 64.5723Z" fill="#FF1616"/>
<path d="M70.638 76.6736C70.7457 75.6726 69.7679 74.1772 71.6205 73.7141C72.9155 73.3938 74.5672 72.9092 75.1564 74.7409C75.6475 76.2246 75.0455 77.5372 73.4819 78.0853C72.2113 78.5567 71.2105 78.031 70.5993 76.6559L70.638 76.6736Z" fill="#FF1616"/>
<path d="M98.2285 38.0803C96.3733 41.7249 93.0499 42.6191 89.5802 43.195C88.0464 43.4566 86.4735 43.5096 84.9178 43.5379C82.0826 43.565 79.77 44.5315 78.2057 47.0649C77.8987 47.51 77.483 47.9537 77.0034 48.1717C76.3221 48.4702 75.5164 48.6837 74.9598 47.7937C74.4854 46.9964 74.4274 46.3381 75.0911 45.4818C78.3729 41.4659 82.6711 40.2191 87.5436 40.4201C89.1398 40.4922 90.658 40.1472 92.1372 39.5935C95.2803 38.4304 98.0556 34.1412 97.7902 30.8666C97.3881 25.9338 93.2743 23.413 88.1519 25.0062C87.4969 25.2135 86.8482 25.5707 86.1683 25.7609C85.5474 25.9188 84.7715 26.4073 84.3654 25.5111C83.992 24.6736 84.6499 24.25 85.1914 23.7831C87.9327 21.3994 93.2316 20.9821 96.1323 22.9284C100.02 25.5127 101.713 30.1638 100.253 34.2966C99.7572 35.7046 99.2446 37.1373 98.1695 38.1128L98.2285 38.0803Z" fill="#FF1616"/>
<path d="M66.9839 57.6615C65.1975 56.8043 66.1825 55.6944 66.7283 54.9031C67.3252 54.0375 68.2341 52.9848 69.4167 53.975C70.4671 54.8386 71.2631 55.9649 70.2738 57.3994C69.2504 58.8832 68.0343 58.525 66.9839 57.6615Z" fill="#FF1616"/>
<path d="M57.6198 63.2629C56.3793 58.8079 53.1972 56.0169 50.015 53.3868C47.8037 51.5082 44.9991 50.5958 42.1945 50.2737C37.61 49.737 33.0795 49.2539 28.495 49.0392C22.7779 48.8245 17.0608 49.5223 11.3976 50.3811C8.10762 50.8641 5.41087 52.6354 3.36134 55.4801C2.71412 56.3926 2.44446 57.6271 2.06692 58.7543C1.5815 60.2571 0.934275 61.76 0.772471 63.3166C0.394927 66.9128 0.341006 70.5626 0.0713321 74.1588C-0.144407 77.4329 0.125266 80.5997 0.934289 83.7128C1.47364 85.9135 2.33659 88.0605 3.03775 90.2074C3.03775 90.2074 3.03775 90.2611 3.03775 90.3148C4.17038 92.5691 6.05809 93.9646 7.83795 95.4675C8.7009 96.219 9.88746 96.4873 11.074 96.219C12.6381 95.8432 14.2023 95.5749 16.036 95.1991C14.6877 97.7218 13.3932 100.084 12.0988 102.445C11.937 102.767 11.6673 103.089 11.7213 103.411C11.7752 104.485 11.937 105.558 12.0988 106.578C12.2067 107.544 12.6921 108.135 13.609 107.974C14.5798 107.813 15.5506 107.491 16.4675 107.276C19.5957 106.632 22.2385 104.861 24.5577 102.66C26.2297 101.05 27.5781 99.0637 28.2253 96.541C30.4906 96.702 32.594 97.0241 34.7514 97.0241C38.2572 97.0241 41.763 96.8094 45.2148 95.8969C47.1565 95.3602 49.2599 95.4675 51.2555 94.9844C52.3342 94.7161 53.4669 94.072 54.2759 93.2669C55.7321 91.764 56.9187 89.9927 57.5659 87.8458C58.1592 86.0208 58.8603 84.1959 59.0761 82.2636C59.6694 77.2182 58.6985 72.1729 58.3749 67.1275C58.267 65.7856 57.9974 64.4437 57.6198 63.2092V63.2629ZM8.21549 93.8036C7.67614 92.8912 6.59744 92.7838 6.75924 91.4956C7.35253 91.764 7.89189 92.0324 8.5391 92.3007C8.48517 92.6764 8.37729 93.0522 8.21549 93.7499V93.8036ZM10.1032 94.6624C9.34811 94.6087 9.24026 94.233 9.50993 92.2471C10.1572 92.1397 10.7504 92.086 11.2898 91.9787C11.2898 93.8573 10.9122 94.7161 10.1032 94.6624ZM12.0988 94.4477C12.2067 93.5889 12.2606 92.7301 12.3685 91.8177C13.0157 91.7103 13.555 91.603 14.1483 91.4956C14.2562 93.6426 13.9865 94.1257 12.1527 94.4477H12.0988ZM15.3349 93.6963C15.3349 92.1576 15.7664 91.4598 16.6293 91.603C16.6293 91.603 16.7911 91.8177 16.8451 91.925C16.3057 92.5154 15.8203 93.1058 15.281 93.6963H15.3349ZM15.1731 105.666C15.0113 106.578 14.3101 106.417 13.6629 106.417C13.4472 105.666 13.2854 104.914 13.0696 104.109C13.8247 103.68 14.5259 103.25 15.4428 102.66C15.3349 103.841 15.3349 104.753 15.1731 105.666ZM17.6002 105.183C17.4923 105.505 16.8451 105.666 16.2518 105.988C16.2518 105.075 16.2518 104.592 16.2518 104.163C16.2518 102.767 16.917 101.891 18.2474 101.533C18.0316 102.767 17.9238 104.002 17.6002 105.183ZM20.8362 102.016C20.8362 103.572 20.189 104.431 18.7328 104.753C19.0025 103.411 19.1103 102.069 19.4879 100.889C19.7036 100.298 20.5126 100.03 21.1599 99.4394C20.9981 100.459 20.7823 101.264 20.7823 102.016H20.8362ZM23.2094 101.64C23.1015 102.123 22.5622 102.499 22.0228 103.143C22.0228 100.459 21.7531 98.0439 23.9105 96.8631C23.6948 98.3123 23.533 100.03 23.2094 101.694V101.64ZM24.8274 100.084C24.9353 98.2586 24.9892 96.6484 25.205 95.0381C25.3129 94.3404 25.5286 93.4279 26.6612 93.2669C25.7443 95.5212 26.6073 98.0976 24.8274 100.084ZM29.7894 94.9308C29.358 94.9308 29.0344 94.9308 28.6568 94.8771C28.2793 94.8771 27.9017 94.8234 27.4702 94.7697V93.3742C28.2793 93.2669 29.1422 93.1595 30.1131 93.0522C30.0052 93.8036 29.8973 94.3404 29.7894 94.9844V94.9308ZM31.1378 94.9844V93.1595H32.7558C32.594 95.1455 32.5401 95.1991 31.1378 94.9844ZM34.9672 94.3404C34.9132 94.6087 34.8593 94.9308 34.7514 95.2528H33.5649C33.5649 94.6087 33.6188 94.0183 33.6728 93.3205H35.129C35.0751 93.6963 35.0211 94.0183 34.9133 94.3404H34.9672ZM36.6392 95.4138C36.6392 95.4138 36.3695 95.3065 36.2616 95.2528C36.3695 94.6624 36.4234 94.072 36.5313 93.4279C36.801 93.4279 37.0167 93.4816 37.3943 93.5352C37.0706 94.2867 36.8549 94.8234 36.5852 95.4138H36.6392ZM38.3651 95.2528V93.5352H39.7674C39.3898 94.233 39.6595 95.4138 38.3651 95.2528ZM41.2236 95.1991C41.2236 95.1991 41.0079 95.0381 40.8461 94.9844C40.9539 94.394 40.8461 93.6426 41.6012 93.5352C41.709 93.5889 41.8169 93.6963 41.8709 93.7499C41.6551 94.233 41.3854 94.7161 41.1697 95.1991H41.2236ZM43.1653 94.6087V93.3742C43.6507 93.2669 44.1361 93.1595 44.7294 93.0522C44.7294 94.2867 44.4058 94.9308 43.1653 94.6087ZM45.862 94.394V92.8912C46.5632 92.7838 47.2643 92.6228 47.9655 92.5154C47.9655 93.5889 47.2643 94.2151 45.862 94.394ZM50.5004 93.6963C50.2308 93.7499 49.9071 93.8573 49.5835 93.911C49.152 92.4081 49.3678 91.8713 50.7701 91.0125C50.6622 91.925 50.6083 92.7838 50.5004 93.6963ZM52.0645 92.7838C52.3882 91.2809 51.4713 89.6707 53.5747 88.8656C52.6578 90.1001 54.0062 91.8713 52.0645 92.7838ZM54.5455 90.2611C54.9231 88.9193 54.0062 87.6847 55.3546 86.6649C55.3006 87.9531 55.7321 89.1339 54.5455 90.2611ZM56.2175 79.1505C55.6782 80.7607 55.3006 82.4247 54.8152 84.0349C54.6534 84.6253 54.3298 85.2157 53.9523 85.6451C52.0645 87.8994 50.069 90.1001 47.2643 90.8515C43.5968 91.764 39.8753 91.925 36.1538 91.603C33.3491 91.3883 30.4366 91.603 27.632 91.4419C25.5825 91.2809 24.5038 92.1934 23.6409 94.1257C23.0476 95.4138 22.0768 96.5947 21.052 97.3998C19.2721 98.7953 17.3305 99.8151 15.4428 100.996C15.3349 100.889 15.281 100.781 15.1731 100.674C15.8742 99.1174 16.6293 97.5608 17.3305 96.0043C18.0316 94.5014 18.6788 92.9985 19.2721 91.4419C19.6497 90.4221 19.2721 89.6707 18.1934 89.7244C15.7124 89.8317 13.2854 89.9391 10.8583 90.2611C8.48517 90.6368 5.73449 89.3486 4.27825 87.309C2.28266 84.4643 2.01299 81.1901 1.79725 77.8623C1.63544 75.2323 1.63544 72.5486 1.79725 69.8649C1.95905 67.0201 2.33659 64.2291 2.822 61.438C3.09168 59.9351 3.63102 58.5396 4.2243 57.144C4.70971 55.9632 5.62661 55.1581 6.65137 54.353C9.72566 51.7766 13.3932 51.7229 16.899 51.4009C21.4835 50.9178 26.1219 50.7031 30.7603 50.7031C33.7806 50.7031 36.747 51.2399 39.7674 51.5082C43.0574 51.8303 46.3474 52.528 49.0442 54.6213C52.8736 57.6271 56.3254 61.1159 56.7569 66.7517C57.0265 70.8847 57.5659 75.0713 56.1636 79.0968L56.2175 79.1505Z" fill="#FF1616"/>
<path d="M67.6441 19.8666C66.8094 22.0068 64.9736 23.7196 63.1378 25.4324C61.9642 26.5441 60.6199 27.4637 60.4657 29.3524C60.4052 30.1697 59.7116 30.9578 58.6132 30.6487C57.4474 30.3379 57.185 29.4858 57.4667 28.4459C58.0128 26.5266 59.1572 24.9578 60.6602 23.6126C63.1282 21.4189 65.3848 19.0455 66.2632 15.6715C66.8865 13.3515 65.2472 7.59296 63.3505 6.28423C61.2158 4.78168 57.9387 5.8681 56.5784 8.54563C56.0977 9.44641 55.697 10.3894 55.3761 11.3747C55.2016 11.8939 55.0037 12.2648 54.4645 12.2514C53.9253 12.238 53.6938 11.7759 53.5972 11.3172C53.4989 10.9255 53.4272 10.5479 53.4229 10.172C53.362 7.15047 55.4496 4.51783 59.2117 2.90654C61.1609 2.06904 64.5784 2.95915 66.2081 4.7042C69.5333 8.26303 70.2593 14.9653 67.63 19.8931L67.6441 19.8666Z" fill="#FF1616"/>
<path d="M57.7284 42.5455C56.4044 42.0831 56.1546 41.2716 56.9304 39.8815C57.579 38.7299 58.3776 38.0652 59.5053 38.8314C60.5139 39.5006 61.4736 40.5177 60.7369 41.9624C60.0426 43.3277 58.9642 43.3009 57.7284 42.5455Z" fill="#FF1616"/>
</svg>
