<svg width="54" height="52" viewBox="0 0 54 52" fill="none" xmlns="http://www.w3.org/2000/svg">
<path fill-rule="evenodd" clip-rule="evenodd" d="M21.56 19.2894C21.6555 19.5133 21.7526 19.7407 21.8409 19.9768C21.9727 19.9328 22.0852 19.9081 22.1869 19.8858C22.3172 19.8571 22.4297 19.8324 22.5422 19.7761C22.5648 19.697 22.5873 19.6192 22.6096 19.5424C22.7851 18.9365 22.943 18.392 22.943 17.7683C22.943 12.6486 22.943 7.52896 22.8428 2.40927C22.8428 1.90734 22.8428 1.30502 22.5422 1.00386C22.0413 0.50193 21.4402 0 20.8391 0C20.4383 0 19.737 0.602317 19.5367 1.20463C19.2361 1.80695 19.2361 2.61004 19.3363 3.31274C19.787 7.64855 20.3189 11.9031 20.8589 16.2226C20.919 16.7035 20.9792 17.1852 21.0394 17.668C21.1102 18.2349 21.3307 18.7518 21.56 19.2894ZM52.0707 22.8359L52.0707 22.8359C52.7065 22.6384 53.3457 22.4398 53.9997 22.2856C53.9997 22.1852 53.8995 21.9845 53.7993 21.7837L53.7993 21.7837H31.5581C31.1574 21.7837 30.6565 21.7837 30.3559 21.9845C30.31 22.0213 30.2624 22.0589 30.2137 22.0974C29.7315 22.4789 29.1445 22.9431 29.0535 23.4903C28.9533 24.3937 29.6546 24.8957 30.5563 25.0964C31.1574 25.1968 31.6583 25.1968 32.2594 25.1968L32.2597 25.1968L32.26 25.1968C37.8702 24.6949 43.4804 24.1929 48.9904 23.5906C50.0396 23.467 51.0507 23.1528 52.0707 22.8359ZM25.2017 51.0965C25.3575 51.3977 25.5134 51.6989 25.6469 52C25.8473 52 26.0477 51.8996 26.2481 51.7992C26.2481 51.6989 26.2982 51.5985 26.3482 51.4981C26.3983 51.3977 26.4484 51.2973 26.4484 51.1969V35.0348C26.4484 34.3321 26.3482 33.6294 26.2481 32.9267C26.0477 31.9228 25.3464 31.2201 24.2444 31.2201C23.0421 31.2201 22.5412 32.1236 22.441 33.1274C22.3749 33.5251 22.3961 33.879 22.4181 34.247V34.247C22.4294 34.4363 22.441 34.6294 22.441 34.834C22.5412 36.3398 22.6414 37.8456 22.8418 39.3514C23.3427 42.6641 23.8436 45.9768 24.4447 49.2896C24.5783 49.8919 24.89 50.4942 25.2017 51.0965ZM20.7763 25.3541L20.7762 25.3541C20.2356 25.5654 19.7055 25.7726 19.1354 25.8996C14.5753 26.6163 9.93546 27.2531 5.35822 27.8813L5.35813 27.8813C4.80671 27.957 4.25621 28.0325 3.70686 28.1081C2.90538 28.2085 2.00371 28.3089 1.30241 28.0077C0.801484 27.7065 0 27.1042 0 26.6023C0 26.1004 0.601113 25.498 1.10204 24.9961C1.30241 24.7953 1.80334 24.695 2.20408 24.695L2.20439 24.6949C7.71449 24.4942 13.2246 24.2934 18.7347 24.193C19.6364 24.193 20.6382 24.2934 21.5399 24.3938C21.59 24.4942 21.615 24.5946 21.6401 24.695C21.6651 24.7953 21.6902 24.8957 21.7403 24.9961C21.4087 25.1069 21.0907 25.2312 20.7763 25.3541Z" fill="#FF1616"/>
</svg>
