<svg width="497" height="507" viewBox="0 0 497 507" fill="none" xmlns="http://www.w3.org/2000/svg">
<path d="M48.2959 489.88C48.2959 487.828 47.4859 483.364 42.6439 483.364C39.0439 483.364 37.0459 486.298 37.0459 489.736C37.0459 492.67 38.4139 496.288 42.6439 496.288C45.5419 496.288 48.2959 494.326 48.2959 489.88ZM38.8639 489.952C38.8639 486.73 40.4659 484.822 42.7339 484.822C44.7139 484.822 46.4959 486.46 46.4959 489.862C46.4959 492.85 45.0019 494.83 42.6799 494.83C39.8719 494.83 38.8639 492.13 38.8639 489.952Z" fill="#051326"/>
<path d="M15.7759 127V125.524H8.07186C9.67386 124.876 13.0399 123.256 14.4619 121.582C15.3799 120.502 15.4699 119.368 15.4699 118.81C15.4699 117.442 14.7499 116.11 13.6339 115.336C12.3919 114.472 11.0239 114.436 10.5019 114.436C8.77386 114.436 7.69386 115.102 7.13586 115.534C6.01986 116.416 5.67786 117.478 5.56986 118.018C5.47986 118.414 5.46186 118.81 5.42586 119.206L7.17186 119.476C7.20786 118.612 7.24386 117.802 7.80186 117.064C8.61186 115.984 10.0519 115.93 10.4299 115.93C12.1939 115.93 13.6699 116.974 13.6699 118.846C13.6699 120.754 11.8339 121.852 10.4119 122.734C8.86386 123.688 7.24386 124.498 5.62386 125.308V127H15.7759ZM18.728 114.616L18.368 121.366L19.754 121.636C20.42 120.286 21.986 119.584 23.516 119.584C24.848 119.584 27.026 120.214 27.026 122.608C27.026 124.102 25.982 125.812 23.39 125.812C21.338 125.812 20.168 124.84 19.538 123.418L17.846 123.778C18.368 125.506 20.06 127.252 23.264 127.252C26.756 127.252 28.826 124.966 28.826 122.482C28.826 120.16 26.954 118.144 23.732 118.144C22.022 118.144 20.78 118.666 19.88 119.44L20.078 116.146H28.142L28.232 114.616H18.728Z" fill="#051326"/>
<path d="M235.791 6.616L235.431 13.366L236.817 13.636C237.483 12.286 239.049 11.584 240.579 11.584C241.911 11.584 244.089 12.214 244.089 14.608C244.089 16.102 243.045 17.812 240.453 17.812C238.401 17.812 237.231 16.84 236.601 15.418L234.909 15.778C235.431 17.506 237.123 19.252 240.327 19.252C243.819 19.252 245.889 16.966 245.889 14.482C245.889 12.16 244.017 10.144 240.795 10.144C239.085 10.144 237.843 10.666 236.943 11.44L237.141 8.146H245.205L245.295 6.616H235.791ZM259.361 12.88C259.361 10.828 258.551 6.364 253.709 6.364C250.109 6.364 248.111 9.298 248.111 12.736C248.111 15.67 249.479 19.288 253.709 19.288C256.607 19.288 259.361 17.326 259.361 12.88ZM249.929 12.952C249.929 9.73 251.531 7.822 253.799 7.822C255.779 7.822 257.561 9.46 257.561 12.862C257.561 15.85 256.067 17.83 253.745 17.83C250.937 17.83 249.929 15.13 249.929 12.952Z" fill="#051326"/>
<path d="M468.565 114.616V116.146H476.305C476.017 116.47 475.261 117.262 474.559 118.27C473.749 119.422 473.119 120.736 473.029 120.934C471.751 123.724 471.499 125.794 471.337 127H473.299C473.407 126.046 473.533 125.092 473.749 124.138C473.947 123.256 474.937 118.972 478.429 115.786V114.616H468.565ZM480.859 114.616L480.499 121.366L481.885 121.636C482.551 120.286 484.117 119.584 485.647 119.584C486.979 119.584 489.157 120.214 489.157 122.608C489.157 124.102 488.113 125.812 485.521 125.812C483.469 125.812 482.299 124.84 481.669 123.418L479.977 123.778C480.499 125.506 482.191 127.252 485.395 127.252C488.887 127.252 490.957 124.966 490.957 122.482C490.957 120.16 489.085 118.144 485.863 118.144C484.153 118.144 482.911 118.666 482.011 119.44L482.209 116.146H490.273L490.363 114.616H480.859Z" fill="#051326"/>
<path d="M446.09 496V483.634H444.74C444.056 485.056 442.616 485.704 441.05 485.704H440.87V486.928C442.814 486.856 443.354 486.766 444.308 486.334V496H446.09ZM461.312 489.88C461.312 487.828 460.502 483.364 455.66 483.364C452.06 483.364 450.062 486.298 450.062 489.736C450.062 492.67 451.43 496.288 455.66 496.288C458.558 496.288 461.312 494.326 461.312 489.88ZM451.88 489.952C451.88 486.73 453.482 484.822 455.75 484.822C457.73 484.822 459.512 486.46 459.512 489.862C459.512 492.85 458.018 494.83 455.696 494.83C452.888 494.83 451.88 492.13 451.88 489.952ZM474.056 489.88C474.056 487.828 473.246 483.364 468.404 483.364C464.804 483.364 462.806 486.298 462.806 489.736C462.806 492.67 464.174 496.288 468.404 496.288C471.302 496.288 474.056 494.326 474.056 489.88ZM464.624 489.952C464.624 486.73 466.226 484.822 468.494 484.822C470.474 484.822 472.256 486.46 472.256 489.862C472.256 492.85 470.762 494.83 468.44 494.83C465.632 494.83 464.624 492.13 464.624 489.952Z" fill="#051326"/>
<path fill-rule="evenodd" clip-rule="evenodd" d="M431.317 440.677C424.192 449.825 411.014 451.441 401.884 444.286C392.754 437.13 391.129 423.914 398.254 414.766C428.786 375.567 442.28 326.933 437.149 278.428C431.784 227.697 406.486 181.145 365.584 149.09C283.414 84.6936 164.817 99.2332 100.69 181.565C45.9309 251.87 47.9017 350.575 103.883 418.508C111.264 427.465 110.013 440.72 101.089 448.112C92.165 455.505 78.9467 454.236 71.5653 445.279C3.10406 362.201 2.56893 241.932 69.5 156C147.877 55.3718 290.956 37.2554 391.387 115.962C441.346 155.115 472.302 212.079 478.855 274.037C485.121 333.282 468.607 392.801 431.317 440.677Z" fill="#EEEFF0"/>
<path fill-rule="evenodd" clip-rule="evenodd" d="M72.4327 447.585C79.8532 456.456 93.074 457.583 101.962 450.102C110.85 442.621 112.04 429.365 104.619 420.494C72.8221 382.483 57.7396 334.423 61.2715 285.804C64.9655 234.954 88.7142 187.542 128.532 154.027C173.806 115.92 233.039 101.592 289.6 113.608C300.915 116.012 312.078 108.758 314.532 97.4054C316.987 86.053 309.804 74.9014 298.488 72.4976C229.421 57.8249 156.968 75.3508 101.66 121.903C53.0247 162.839 23.9644 220.856 19.4529 282.959C15.1389 342.343 33.5967 401.159 72.4327 447.585Z" fill="#FF1616"/>
<path fill-rule="evenodd" clip-rule="evenodd" d="M435.711 463.267L430.368 458.608C430.583 458.36 430.797 458.111 431.01 457.861L436.372 462.499C436.153 462.756 435.932 463.012 435.711 463.267ZM468.189 416.449L462.017 413.219C462.24 412.804 462.462 412.388 462.683 411.972L468.874 415.165C468.647 415.594 468.418 416.022 468.189 416.449ZM488.261 363.833L481.512 361.757C481.605 361.329 481.696 360.901 481.787 360.473L488.545 362.512C488.452 362.953 488.357 363.393 488.261 363.833ZM496.385 307.555L489.781 307.187C489.782 306.756 489.782 306.324 489.781 305.893L496.385 306.223C496.386 306.667 496.386 307.111 496.385 307.555ZM491.338 250.261L484.855 251.585C484.77 251.157 484.684 250.73 484.597 250.303L491.073 248.941C491.163 249.381 491.251 249.821 491.338 250.261ZM474.156 196.989L467.769 200.037C467.59 199.623 467.409 199.208 467.227 198.795L473.599 195.71C473.786 196.136 473.971 196.562 474.156 196.989ZM445.229 148.459L439.608 152.605C439.289 152.207 438.968 151.81 438.646 151.413L444.239 147.233C444.57 147.641 444.9 148.049 445.229 148.459ZM405.943 107.904L401.519 113.399C401.078 113.032 400.635 112.666 400.193 112.301L404.578 106.774C405.034 107.15 405.489 107.526 405.943 107.904ZM357.975 76.2003L354.857 82.4218C354.458 82.2284 354.057 82.0362 353.657 81.8452L356.74 75.6069C357.153 75.8035 357.564 76.0013 357.975 76.2003ZM305.129 56.8193L303.136 63.5931C302.714 63.5234 302.292 63.4549 301.869 63.3878L303.826 56.608C304.26 56.6771 304.695 56.7476 305.129 56.8193ZM248.745 51.5208L249.066 58.6847C248.592 58.6638 248.117 58.6443 247.643 58.6261L247.281 51.4606C247.769 51.4793 248.257 51.4994 248.745 51.5208ZM192.067 57.1104L193.457 63.6034C193.03 63.7102 192.603 63.8181 192.176 63.9273L190.75 57.4437C191.189 57.3313 191.628 57.2202 192.067 57.1104ZM138.539 75.9666L141.661 82.3483C141.243 82.5553 140.825 82.7635 140.407 82.9729L137.249 76.6094C137.678 76.3939 138.108 76.1796 138.539 75.9666ZM91.3662 107.682L95.9229 112.9C95.6278 113.123 95.3334 113.348 95.0399 113.574L90.4575 108.375C90.7596 108.143 91.0625 107.912 91.3662 107.682ZM52.3858 147.385L57.9644 151.649C57.6505 152.052 57.3377 152.456 57.0261 152.861L51.4206 148.631C51.7412 148.215 52.0629 147.8 52.3858 147.385ZM22.777 196.271L29.0054 199.311C28.841 199.7 28.6778 200.09 28.5158 200.48L22.2731 197.474C22.4398 197.072 22.6078 196.671 22.777 196.271ZM5.60756 250.915L12.8624 252.279C12.7598 252.761 12.6585 253.243 12.5586 253.725L5.29495 252.403C5.39776 251.907 5.50196 251.411 5.60756 250.915ZM0.385742 306.818L7.53016 306.428C7.53268 306.9 7.53652 307.372 7.54168 307.844L0.397591 308.275C0.392278 307.79 0.388328 307.304 0.385742 306.818ZM8.26137 363.823L14.7184 362.365C14.8478 362.795 14.9784 363.226 15.1102 363.656L8.66452 365.152C8.52889 364.709 8.3945 364.266 8.26137 363.823ZM29.3953 416.678L35.7271 413.468C35.9618 413.894 36.1977 414.319 36.4348 414.744L30.1236 417.992C29.8796 417.555 29.6368 417.117 29.3953 416.678ZM61.6141 462.513L66.7665 457.849C67.0232 458.157 67.2809 458.464 67.5396 458.77L62.4097 463.461C62.1434 463.146 61.8783 462.83 61.6141 462.513Z" fill="#8A8A99"/>
</svg>
