<svg width="70" height="96" viewBox="0 0 70 96" fill="none" xmlns="http://www.w3.org/2000/svg">
<path d="M69.3576 90.3507C63.5386 79.8768 59.0814 73.1599 49.9195 62.6861C49.1767 61.7753 48.0624 60.6368 46.7005 58.9292C45.2148 57.2215 43.3576 54.9445 40.8814 51.8707C39.7671 50.2769 38.4052 48.683 37.1671 46.8615C36.5481 45.9507 35.8052 45.0399 35.1862 44.0153C34.5671 42.9907 33.9481 42.0799 33.2052 41.0553C30.7291 36.9569 28.1291 32.2892 27.0148 27.7353C26.891 27.1661 26.6433 26.5968 26.6433 26.0276C26.6433 25.4584 26.5195 25.003 26.5195 24.4338C26.5195 23.4092 26.6433 22.3845 27.0148 21.3599C27.6338 19.4245 28.8719 17.4892 30.6052 15.8953C34.0719 12.5938 39.3957 10.4307 44.4719 9.63377C47.0719 9.17839 49.5481 9.17839 51.7767 9.40608C52.3957 9.40608 52.891 9.63377 53.3862 9.63377C53.8814 9.74762 54.3767 9.86147 54.8719 9.97531C55.7386 10.3169 56.6052 10.6584 57.1005 11.1138C58.3386 11.9107 58.8338 12.8215 59.0814 13.9599C59.0814 14.3015 59.0814 14.5292 59.2052 14.8707C59.2052 15.2122 59.2052 15.5538 59.0814 15.8953V16.123L58.9576 16.4645C58.9576 16.6922 58.8338 16.9199 58.8338 17.0338C58.71 17.4892 58.71 17.8307 58.5862 18.2861C57.8433 21.3599 56.6052 23.6369 55.7386 25.2307C54.7481 26.8245 54.1291 27.6215 54.1291 27.6215C54.1291 27.6215 54.0052 27.8492 53.7576 28.0768C53.51 28.4184 53.1386 28.8738 52.6433 29.443C51.6529 30.6953 49.9195 32.2892 47.5672 34.2245C45.2148 36.1599 42.1195 38.323 38.4052 40.4861C34.691 42.763 30.4814 45.0399 25.7767 47.5445C21.1957 50.163 16.1195 52.8953 11.4148 56.6522C9.06238 58.5876 6.71 60.7507 4.72905 63.3692C3.73858 64.7353 2.87191 66.1015 2.25286 67.6953C1.88143 68.3784 1.63381 69.2892 1.38619 69.9722C1.13858 70.7691 0.890956 71.5661 0.767147 72.2492C0.0242897 75.4368 -0.223329 78.7384 0.643337 82.0399C1.38619 85.3415 3.49096 88.643 6.33858 90.8061C9.18619 93.083 12.4052 94.2215 15.3767 94.9045C18.4719 95.5876 21.3195 95.7015 23.9195 95.5876C30.4814 95.2461 35.31 93.7661 39.0243 92.3999C39.891 92.0584 40.7576 91.7168 41.6243 91.3753C42.3671 91.0338 43.11 90.6922 43.7291 90.3507C45.091 89.7815 46.0814 89.2122 46.9481 88.7569C50.4148 86.8215 53.2624 84.8861 55.6148 82.8368C58.091 80.7876 59.9481 78.6245 61.6814 76.4615C65.0243 72.1353 67.5005 67.4676 69.3576 61.8892C64.7767 65.9876 60.691 68.9476 56.4814 71.9076C54.3767 73.3876 52.2719 74.8676 49.7957 76.3476C47.4433 77.9415 44.8433 79.4215 41.8719 81.0153C41.1291 81.3568 40.2624 81.9261 39.1481 82.3815C38.6529 82.6092 38.0338 82.9507 37.291 83.1784C36.6719 83.4061 35.9291 83.7476 35.1862 83.9753C32.091 85.1138 28.1291 86.2522 23.3005 86.4799C21.3195 86.4799 19.3386 86.4799 17.4814 86.0245C15.6243 85.5692 13.891 84.8861 12.6529 83.8615C11.4148 82.8368 10.5481 81.5845 10.0529 79.763C9.68143 78.0553 9.68143 76.0061 10.1767 73.843C10.3005 73.2738 10.4243 72.7045 10.5481 72.2492C10.6719 71.7938 10.7957 71.3384 11.0433 70.883C11.4148 69.9722 12.0338 69.0615 12.6529 68.1507C13.891 66.3292 15.6243 64.7353 17.6052 63.1415C21.4433 60.0676 26.1481 57.4492 30.6052 54.9445C35.1862 52.4399 39.5195 50.0492 43.4814 47.6584C47.4433 45.2676 50.91 42.8769 53.6338 40.5999C56.3576 38.323 58.4624 36.2738 59.8243 34.6799C60.4433 33.883 61.0624 33.3138 61.31 32.8584C61.6814 32.403 61.8052 32.1753 61.8052 32.1753C61.8052 32.1753 62.6719 31.1507 63.91 29.1015C65.1481 27.0522 66.7576 23.8645 67.7481 19.7661C67.8719 19.1968 67.9957 18.7415 68.1195 18.1722C68.1195 17.9445 68.2433 17.603 68.2433 17.3753L68.3671 16.9199V16.4645C68.3671 15.7815 68.491 15.0984 68.491 14.4153C68.491 13.7322 68.3671 12.9353 68.2433 12.1384C68.1195 11.3415 67.8719 10.5445 67.6243 9.74762C67.2529 8.9507 66.8814 8.15377 66.3862 7.35685C65.891 6.67377 65.3957 5.87685 64.6529 5.19377C64.2814 4.85224 64.0338 4.5107 63.6624 4.28301C63.291 4.05531 62.9195 3.71377 62.5481 3.48608C59.4529 1.32301 55.9862 0.412236 52.6433 -0.0431483C49.1767 -0.498533 45.8338 -0.27084 42.3671 0.29839C39.0243 0.867621 35.5576 1.77839 32.3386 3.25839C29.3671 5.19377 26.2719 7.01531 23.5481 9.63377C20.8243 12.1384 18.5957 15.3261 17.6052 18.9692C17.2338 19.8799 17.2338 20.7907 16.9862 21.7015C16.8624 22.6122 16.8624 23.523 16.7386 24.4338C16.7386 25.3445 16.8624 26.2553 16.9862 27.1661C17.11 28.0769 17.3576 28.7599 17.4814 29.5568C17.7291 30.3538 17.8529 31.1507 18.1005 31.9476C18.3481 32.6307 18.5957 33.4276 18.8433 34.1107C19.091 34.7938 19.3386 35.5907 19.71 36.2738C20.0814 36.9568 20.3291 37.6399 20.7005 38.323C21.0719 39.0061 21.3195 39.6892 21.691 40.2584C22.0624 40.8276 22.4338 41.5107 22.6814 42.0799C23.4243 43.3322 24.0433 44.4707 24.7862 45.6092C25.5291 46.7476 26.2719 47.7722 26.891 48.9107C27.6338 49.9353 28.3767 50.9599 28.9957 51.8707C30.3576 53.8061 31.7195 55.5138 32.9576 57.2215C35.5576 60.4092 37.4148 62.7999 39.0243 64.5076C40.51 66.3292 41.6243 67.4676 42.3671 68.3784C51.9005 78.9661 58.9576 83.6338 69.3576 90.3507Z" fill="#FF1616"/>
</svg>
