<svg width="121" height="120" viewBox="0 0 121 120" fill="none" xmlns="http://www.w3.org/2000/svg">
<path d="M7.0625 85.0781H1.4375C0.92 85.0781 0.5 84.6581 0.5 84.1406C0.5 83.6231 0.92 83.2031 1.4375 83.2031H7.0625C7.58 83.2031 8 83.6231 8 84.1406C8 84.6581 7.58 85.0781 7.0625 85.0781Z" fill="#051326"/>
<path d="M119.562 85.0781H10.8125C10.295 85.0781 9.875 84.6581 9.875 84.1406C9.875 83.6231 10.295 83.2031 10.8125 83.2031H119.562C120.08 83.2031 120.5 83.6231 120.5 84.1406C120.5 84.6581 120.08 85.0781 119.562 85.0781Z" fill="#051326"/>
<path d="M110.188 76.6406H115.813L118.532 68.4825C119.122 66.7087 118.318 64.7719 116.644 63.9394L115.792 63.5156L114.542 57.5494C113.754 53.7919 110.754 50.895 106.972 50.2387L91.6742 47.5781L69.8754 29.9719C68.2085 28.6256 66.1292 27.8906 63.9842 27.8906H26.1598C23.1467 27.8906 20.3154 29.34 18.5529 31.785L9.87542 43.8281H3.81167C2.3548 43.8281 1.4548 45.4181 2.2048 46.6669L6.12542 53.2031V63.5156C3.7123 63.5156 1.91417 65.7394 2.42042 68.1L4.25042 76.6406H9.87542" fill="#CACAD0"/>
<path d="M115.813 77.5782H110.188C109.67 77.5782 109.25 77.1582 109.25 76.6407C109.25 76.1232 109.67 75.7032 110.188 75.7032H115.138L117.643 68.1863C118.081 66.8644 117.474 65.3982 116.227 64.7794L115.374 64.3557C115.117 64.2282 114.933 63.99 114.873 63.7088L113.623 57.7425C112.908 54.3413 110.235 51.7594 106.811 51.1632L91.5127 48.5025C91.3552 48.4744 91.2071 48.4088 91.0833 48.3075L69.2865 30.7013C67.7902 29.4919 65.9058 28.8263 63.984 28.8263H26.1596C23.4558 28.8263 20.8965 30.1369 19.314 32.3307L10.6365 44.3738C10.4602 44.6213 10.1771 44.7657 9.87521 44.7657H3.81334C3.32021 44.7657 3.07834 45.0994 2.99584 45.2419C2.91522 45.3844 2.75397 45.7632 3.00709 46.185L6.92772 52.7194C7.01772 52.8657 7.06272 53.0325 7.06272 53.2032V63.5157C7.06272 64.0332 6.64272 64.4532 6.12522 64.4532C5.26084 64.4532 4.45084 64.8394 3.90709 65.5125C3.36334 66.1857 3.15522 67.0557 3.33522 67.9013L5.00772 75.7032H9.87521C10.3927 75.7032 10.8127 76.1232 10.8127 76.6407C10.8127 77.1582 10.3927 77.5782 9.87521 77.5782H4.25022C3.80772 77.5782 3.42709 77.2688 3.33334 76.8375L1.50334 68.295C1.20334 66.8925 1.54647 65.4488 2.44834 64.3332C3.14959 63.465 4.11709 62.8857 5.18584 62.67V53.4619L1.39834 47.1488C0.86959 46.2675 0.856465 45.21 1.36272 44.3157C1.86897 43.4213 2.78397 42.8888 3.81147 42.8888H9.39522L17.7933 31.2338C19.7265 28.5525 22.8558 26.9513 26.1596 26.9513H63.984C66.3333 26.9513 68.634 27.765 70.464 29.2407L92.0715 46.695L107.131 49.3125C111.316 50.0419 114.585 53.1975 115.456 57.3563L116.615 62.8763L117.061 63.0975C119.141 64.1307 120.155 66.5738 119.422 68.7769L116.701 76.935C116.574 77.3194 116.216 77.5782 115.813 77.5782Z" fill="#051326"/>
<path d="M78.3125 77.5781H41.75C41.2325 77.5781 40.8125 77.1581 40.8125 76.6406C40.8125 76.1231 41.2325 75.7031 41.75 75.7031H78.3125C78.83 75.7031 79.25 76.1231 79.25 76.6406C79.25 77.1581 78.83 77.5781 78.3125 77.5781Z" fill="#051326"/>
<path d="M94.25 84.1406C100.981 84.1406 106.438 78.6841 106.438 71.9531C106.438 65.2222 100.981 59.7656 94.25 59.7656C87.519 59.7656 82.0625 65.2222 82.0625 71.9531C82.0625 78.6841 87.519 84.1406 94.25 84.1406Z" fill="#F7F7F8"/>
<path d="M94.25 85.0781C87.0125 85.0781 81.125 79.1906 81.125 71.9531C81.125 64.7156 87.0125 58.8281 94.25 58.8281C101.487 58.8281 107.375 64.7156 107.375 71.9531C107.375 79.1906 101.487 85.0781 94.25 85.0781ZM94.25 60.7031C88.0456 60.7031 83 65.7487 83 71.9531C83 78.1575 88.0456 83.2031 94.25 83.2031C100.454 83.2031 105.5 78.1575 105.5 71.9531C105.5 65.7487 100.454 60.7031 94.25 60.7031Z" fill="#051326"/>
<path d="M94.25 79.4531C90.1137 79.4531 86.75 76.0894 86.75 71.9531C86.75 67.8169 90.1137 64.4531 94.25 64.4531C98.3863 64.4531 101.75 67.8169 101.75 71.9531C101.75 76.0894 98.3863 79.4531 94.25 79.4531ZM94.25 66.3281C91.1487 66.3281 88.625 68.8519 88.625 71.9531C88.625 75.0544 91.1487 77.5781 94.25 77.5781C97.3512 77.5781 99.875 75.0544 99.875 71.9531C99.875 68.8519 97.3512 66.3281 94.25 66.3281Z" fill="#051326"/>
<path d="M25.8125 84.1406C32.5435 84.1406 38 78.6841 38 71.9531C38 65.2222 32.5435 59.7656 25.8125 59.7656C19.0815 59.7656 13.625 65.2222 13.625 71.9531C13.625 78.6841 19.0815 84.1406 25.8125 84.1406Z" fill="#F7F7F8"/>
<path d="M25.8125 85.0781C18.575 85.0781 12.6875 79.1906 12.6875 71.9531C12.6875 64.7156 18.575 58.8281 25.8125 58.8281C33.05 58.8281 38.9375 64.7156 38.9375 71.9531C38.9375 79.1906 33.05 85.0781 25.8125 85.0781ZM25.8125 60.7031C19.6081 60.7031 14.5625 65.7487 14.5625 71.9531C14.5625 78.1575 19.6081 83.2031 25.8125 83.2031C32.0169 83.2031 37.0625 78.1575 37.0625 71.9531C37.0625 65.7487 32.0169 60.7031 25.8125 60.7031Z" fill="#051326"/>
<path d="M25.8125 79.4531C21.6762 79.4531 18.3125 76.0894 18.3125 71.9531C18.3125 67.8169 21.6762 64.4531 25.8125 64.4531C29.9488 64.4531 33.3125 67.8169 33.3125 71.9531C33.3125 76.0894 29.9488 79.4531 25.8125 79.4531ZM25.8125 66.3281C22.7112 66.3281 20.1875 68.8519 20.1875 71.9531C20.1875 75.0544 22.7112 77.5781 25.8125 77.5781C28.9137 77.5781 31.4375 75.0544 31.4375 71.9531C31.4375 68.8519 28.9137 66.3281 25.8125 66.3281Z" fill="#051326"/>
<path d="M29.3585 35.6194L27.2491 41.2444C26.0997 44.3081 28.3647 47.5781 31.6385 47.5781H91.6722L73.1004 32.5781H33.7479C31.7941 32.5781 30.0447 33.7894 29.3585 35.6194Z" fill="#F7F7F8"/>
<path d="M91.672 48.5157H31.6382C29.7951 48.5157 28.0664 47.61 27.0145 46.095C25.9645 44.5782 25.7245 42.6432 26.3714 40.9144L28.4807 35.2894C29.3001 33.105 31.4151 31.6388 33.7476 31.6388H73.1001C73.3139 31.6388 73.522 31.7119 73.6889 31.8469L92.2607 46.8469C92.5701 47.0963 92.6882 47.5144 92.5551 47.8894C92.4239 48.2644 92.0695 48.5157 91.672 48.5157ZM33.7476 33.5157C32.1932 33.5157 30.7814 34.4925 30.2357 35.9475L28.1264 41.5725C27.6876 42.7407 27.8451 43.9988 28.5557 45.0244C29.2664 46.05 30.3895 46.6388 31.6382 46.6388H89.0189L72.7682 33.5138H33.7476V33.5157ZM29.3601 35.6194H29.3789H29.3601Z" fill="#051326"/>
<path d="M89.7969 57.7969C89.2794 57.7969 88.8594 57.3769 88.8594 56.8594V51.3281C88.8594 50.8106 89.2794 50.3906 89.7969 50.3906C90.3144 50.3906 90.7344 50.8106 90.7344 51.3281V56.8594C90.7344 57.3769 90.3144 57.7969 89.7969 57.7969Z" fill="#051326"/>
<path d="M52.0625 73.8281C51.545 73.8281 51.125 73.4081 51.125 72.8906V51.3281C51.125 50.8106 51.545 50.3906 52.0625 50.3906C52.58 50.3906 53 50.8106 53 51.3281V72.8906C53 73.4081 52.58 73.8281 52.0625 73.8281Z" fill="#051326"/>
<path d="M52.0625 48.5156C51.545 48.5156 51.125 48.0956 51.125 47.5781V32.5781C51.125 32.0606 51.545 31.6406 52.0625 31.6406C52.58 31.6406 53 32.0606 53 32.5781V47.5781C53 48.0956 52.58 48.5156 52.0625 48.5156Z" fill="#051326"/>
<path d="M17.6094 56.9531H13.8594C12.3087 56.9531 11.0469 55.6912 11.0469 54.1406V50.3906C11.0469 48.84 12.3087 47.5781 13.8594 47.5781H17.6094C19.16 47.5781 20.4219 48.84 20.4219 50.3906V54.1406C20.4219 55.6912 19.16 56.9531 17.6094 56.9531ZM13.8594 49.4531C13.3419 49.4531 12.9219 49.8731 12.9219 50.3906V54.1406C12.9219 54.6581 13.3419 55.0781 13.8594 55.0781H17.6094C18.1269 55.0781 18.5469 54.6581 18.5469 54.1406V50.3906C18.5469 49.8731 18.1269 49.4531 17.6094 49.4531H13.8594Z" fill="#051326"/>
<path d="M115.792 63.5157L114.541 57.5495C114.429 57.017 114.264 56.5089 114.067 56.0157H109.878C108.485 56.0157 107.577 57.482 108.202 58.7289L110.594 63.5157H115.792Z" fill="#F7F7F8"/>
<path d="M115.792 64.4532H110.594C110.24 64.4532 109.915 64.2526 109.756 63.9357L107.364 59.1488C106.925 58.2713 106.972 57.2476 107.485 56.4132C108.001 55.5788 108.895 55.0801 109.878 55.0801H114.067C114.451 55.0801 114.796 55.3145 114.939 55.6707C115.175 56.267 115.345 56.8201 115.458 57.3582L116.709 63.3245C116.767 63.6001 116.697 63.8888 116.519 64.1063C116.341 64.3257 116.073 64.4532 115.792 64.4532ZM111.172 62.5782H114.637L113.622 57.7426C113.568 57.4876 113.499 57.227 113.409 56.9532H109.876C109.404 56.9532 109.162 57.2645 109.079 57.3976C108.997 57.5307 108.826 57.887 109.038 58.3088L111.172 62.5782Z" fill="#051326"/>
<path d="M68.2254 21.1745H62.3425C61.8798 21.1745 61.4437 20.9941 61.1152 20.6667L60.058 19.6095C59.9504 19.5008 59.8012 19.4395 59.6497 19.4395H37.6135C37.0329 19.4395 36.4927 19.1503 36.17 18.6668L33.0435 13.9764C32.9139 13.7821 32.9139 13.5288 33.0435 13.3345L36.17 8.64407C36.4927 8.16173 37.0329 7.87255 37.6135 7.87255H59.6497C59.8012 7.87255 59.9504 7.81125 60.0591 7.70368L61.1164 6.64646C61.4437 6.31911 61.8798 6.13867 62.3436 6.13867H68.2254C68.5446 6.13867 68.8037 6.39777 68.8037 6.71702C68.8037 7.03626 68.5446 7.29536 68.2254 7.29536H62.3425C62.1909 7.29536 62.0417 7.35667 61.933 7.46424L60.8758 8.52146C60.5484 8.8488 60.1124 9.02924 59.6497 9.02924H37.6135C37.4204 9.02924 37.2399 9.12525 37.1324 9.28719L34.2198 13.656L37.1324 18.0248C37.2399 18.1868 37.4204 18.2828 37.6135 18.2828H59.6497C60.1124 18.2828 60.5484 18.4632 60.8769 18.7906L61.9341 19.8478C62.0417 19.9554 62.1909 20.0167 62.3436 20.0167H68.2254C68.5446 20.0167 68.8037 20.2758 68.8037 20.595C68.8037 20.9143 68.5446 21.1745 68.2254 21.1745Z" fill="#051326"/>
<path d="M53.188 14.2338H36.9944C36.6751 14.2338 36.416 13.9747 36.416 13.6555C36.416 13.3362 36.6751 13.0771 36.9944 13.0771H53.188C53.5073 13.0771 53.7664 13.3362 53.7664 13.6555C53.7664 13.9747 53.5073 14.2338 53.188 14.2338Z" fill="#051326"/>
<path d="M87.8885 2.08838H73.4298C71.8324 2.08838 70.5381 3.38272 70.5381 4.98011V22.3305C70.5381 23.9279 71.8324 25.2222 73.4298 25.2222H87.8885C91.0821 25.2222 93.6719 22.6324 93.6719 19.4388V7.87184C93.6719 4.67821 91.0821 2.08838 87.8885 2.08838ZM87.8885 19.4388C87.8885 20.0772 87.3703 20.5954 86.7318 20.5954H84.4184C83.7799 20.5954 83.2617 20.0772 83.2617 19.4388V7.87184C83.2617 7.23334 83.7799 6.71515 84.4184 6.71515H86.7318C87.3703 6.71515 87.8885 7.23334 87.8885 7.87184V19.4388Z" fill="#FF1616"/>
<path d="M87.8887 25.8011H73.43C71.5169 25.8011 69.96 24.2442 69.96 22.3311V4.9807C69.96 3.06753 71.5169 1.51062 73.43 1.51062H87.8887C91.3969 1.51062 94.2505 4.36418 94.2505 7.87243V19.4393C94.2505 22.9476 91.3969 25.8011 87.8887 25.8011ZM73.43 2.66731C72.1542 2.66731 71.1167 3.70486 71.1167 4.9807V22.3311C71.1167 23.6069 72.1542 24.6445 73.43 24.6445H87.8887C90.7584 24.6445 93.0938 22.3091 93.0938 19.4393V7.87243C93.0938 5.00267 90.7584 2.66731 87.8887 2.66731H73.43ZM86.732 21.1744H84.4186C83.462 21.1744 82.6836 20.3959 82.6836 19.4393V7.87243C82.6836 6.91584 83.462 6.13739 84.4186 6.13739H86.732C87.6886 6.13739 88.467 6.91584 88.467 7.87243V19.4393C88.467 20.3959 87.6886 21.1744 86.732 21.1744ZM84.4186 7.29408C84.0994 7.29408 83.8403 7.55318 83.8403 7.87243V19.4393C83.8403 19.7586 84.0994 20.0177 84.4186 20.0177H86.732C87.0512 20.0177 87.3103 19.7586 87.3103 19.4393V7.87243C87.3103 7.55318 87.0512 7.29408 86.732 7.29408H84.4186Z" fill="#051326"/>
<path d="M49.0505 3.24593H47.8938C47.5745 3.24593 47.3154 2.98683 47.3154 2.66758C47.3154 2.34833 47.5745 2.08923 47.8938 2.08923H49.0505C49.3697 2.08923 49.6288 2.34833 49.6288 2.66758C49.6288 2.98683 49.3697 3.24593 49.0505 3.24593Z" fill="#051326"/>
<path d="M45.5801 3.24593H28.2297C27.9105 3.24593 27.6514 2.98683 27.6514 2.66758C27.6514 2.34833 27.9105 2.08923 28.2297 2.08923H45.5801C45.8993 2.08923 46.1584 2.34833 46.1584 2.66758C46.1584 2.98683 45.8993 3.24593 45.5801 3.24593Z" fill="#051326"/>
<path d="M65.9114 18.8605C65.5921 18.8605 65.333 18.6014 65.333 18.2822V9.02866C65.333 8.70942 65.5921 8.45032 65.9114 8.45032C66.2306 8.45032 66.4897 8.70942 66.4897 9.02866V18.2822C66.4897 18.6014 66.2306 18.8605 65.9114 18.8605Z" fill="#051326"/>
</svg>
