<svg width="121" height="120" viewBox="0 0 121 120" fill="none" xmlns="http://www.w3.org/2000/svg">
<path d="M86.356 75.4512C92.8197 69.0884 96.7458 60.762 96.7458 51.6398C96.7458 31.6649 77.9618 15.4724 54.7909 15.4724C31.6199 15.4724 12.8359 31.6649 12.8359 51.6398C12.8359 57.0776 14.2374 62.2319 16.7309 66.8583L23.3888 75.6132C31.075 83.0892 42.2909 87.8073 54.7901 87.8073C58.6293 87.8073 62.3437 87.354 65.877 86.5214L90.4603 94.4549C92.0972 94.9835 93.619 93.3992 92.9835 91.8284L86.356 75.4512Z" fill="#F7F7F8"/>
<path d="M87.6265 75.702C94.2142 68.9811 97.8323 60.4629 97.8323 51.6398C97.8323 31.1093 78.5244 14.4067 54.7911 14.4067C31.0579 14.4067 11.75 31.1093 11.75 51.6398C11.75 57.1188 13.1029 62.4067 15.771 67.3563C16.0514 67.8771 16.7094 68.076 17.2398 67.8011C17.7703 67.5261 17.9739 66.8818 17.6927 66.361C15.1913 61.7211 13.9232 56.7678 13.9232 51.6398C13.9232 32.2844 32.2564 16.5381 54.7904 16.5381C77.3244 16.5381 95.6577 32.2844 95.6577 51.6398C95.6577 60.1162 92.0809 68.3055 85.5852 74.6995C85.2802 75 85.1852 75.4505 85.3454 75.8448L91.9743 92.222C92.1801 92.7307 91.8809 93.098 91.7838 93.1989C91.6867 93.2997 91.3294 93.6152 90.8012 93.4433L66.2172 85.5097C66.0252 85.4486 65.8194 85.4394 65.623 85.4855C62.0853 86.3189 58.4404 86.7423 54.7904 86.7423C43.0861 86.7423 31.9195 82.4107 24.1543 74.8572C23.7275 74.4431 23.0398 74.4452 22.6166 74.8629C22.1942 75.2807 22.1963 75.9556 22.6224 76.3705C30.792 84.3161 42.5166 88.8736 54.7897 88.8736C58.5071 88.8736 62.2187 88.4552 65.8281 87.6282L90.12 95.468C90.4468 95.5732 90.7794 95.625 91.1084 95.625C91.9497 95.625 92.762 95.2883 93.3649 94.6609C94.204 93.7878 94.4446 92.5516 93.9932 91.4362L87.6265 75.702Z" fill="#051326"/>
<path d="M78.7526 34.9258H30.418C29.8173 34.9258 29.3311 35.4025 29.3311 35.9915C29.3311 36.5804 29.8173 37.0571 30.418 37.0571H78.7526C79.3533 37.0571 79.8396 36.5804 79.8396 35.9915C79.8396 35.4025 79.3526 34.9258 78.7526 34.9258Z" fill="#051326"/>
<path d="M85.5857 50.1785H25.3975C24.7968 50.1785 24.3105 50.6552 24.3105 51.2441C24.3105 51.8331 24.7968 52.3098 25.3975 52.3098H85.5857C86.1864 52.3098 86.6726 51.8331 86.6726 51.2441C86.6726 50.6552 86.1864 50.1785 85.5857 50.1785Z" fill="#051326"/>
<path d="M78.7526 65.4309H30.418C29.8173 65.4309 29.3311 65.9076 29.3311 66.4966C29.3311 67.0855 29.8173 67.5622 30.418 67.5622H78.7526C79.3533 67.5622 79.8396 67.0855 79.8396 66.4966C79.8396 65.9076 79.3526 65.4309 78.7526 65.4309Z" fill="#051326"/>
<path d="M91.1472 42.2302C101.79 42.2302 110.418 33.7711 110.418 23.3363C110.418 12.9015 101.79 4.44238 91.1472 4.44238C80.504 4.44238 71.876 12.9015 71.876 23.3363C71.876 33.7711 80.504 42.2302 91.1472 42.2302Z" fill="#FF1616"/>
<path d="M103.57 15.065C102.699 14.1187 101.21 14.043 100.245 14.8974L87.0034 26.6088L82.3926 20.2257C81.6407 19.1853 80.1713 18.9397 79.111 19.6759C78.0498 20.4127 77.7988 21.8533 78.5507 22.8933L84.6926 31.3956C85.081 31.9338 85.686 32.2833 86.3541 32.3557C86.4412 32.365 86.5274 32.3696 86.6136 32.3696C87.1927 32.3696 87.7558 32.1596 88.1908 31.775L103.399 18.3239C104.365 17.4709 104.441 16.0113 103.57 15.065Z" fill="#CACAD0"/>
<path d="M104.095 14.601C103.548 14.006 102.797 13.6556 101.98 13.6145C101.165 13.572 100.38 13.8467 99.7732 14.3831L87.1222 25.5724L82.9705 19.8254C82.4982 19.1713 81.7939 18.7369 80.9878 18.6021C80.1822 18.4669 79.371 18.6483 78.7043 19.1113C78.0372 19.5747 77.5941 20.2648 77.4567 21.0546C77.3187 21.8449 77.5037 22.6403 77.9764 23.2939L84.1178 31.7962C84.6226 32.4955 85.4098 32.9506 86.2799 33.0448C86.3924 33.0568 86.5044 33.0633 86.6156 33.0633C87.3736 33.0633 88.1015 32.7891 88.6655 32.2905L103.874 18.8389C105.126 17.7302 105.225 15.8288 104.095 14.601ZM102.927 17.8105L87.7192 31.2616C87.3698 31.57 86.8938 31.7168 86.4333 31.6678C85.9658 31.6171 85.5421 31.3724 85.2699 30.9957L79.1281 22.493C78.8738 22.1408 78.7745 21.7129 78.8484 21.2878C78.9223 20.8626 79.161 20.4906 79.5207 20.2413C79.8023 20.046 80.1314 19.9436 80.4694 19.9436C80.5627 19.9436 80.6564 19.9514 80.7505 19.9671C81.1846 20.0396 81.5636 20.2736 81.8183 20.6258L86.4291 27.0089C86.5454 27.1704 86.7271 27.2752 86.9277 27.2969C87.1273 27.3195 87.3289 27.2554 87.4786 27.1229L100.72 15.4115C101.046 15.1226 101.463 14.9772 101.908 14.9975C102.348 15.0196 102.753 15.2084 103.047 15.5288C103.655 16.1898 103.601 17.2136 102.927 17.8105Z" fill="#051326"/>
<path d="M91.1474 3.75C80.132 3.75 71.1699 12.5366 71.1699 23.3363C71.1699 34.136 80.1316 42.9226 91.1474 42.9226C102.163 42.9226 111.125 34.1365 111.125 23.3363C111.125 12.5366 102.163 3.75 91.1474 3.75ZM91.1474 41.5378C80.9108 41.5378 72.5824 33.3725 72.5824 23.3363C72.5824 13.3001 80.9103 5.13481 91.1474 5.13481C101.384 5.13481 109.712 13.3001 109.712 23.3363C109.712 33.3725 101.384 41.5378 91.1474 41.5378Z" fill="#051326"/>
</svg>
