<svg width="121" height="120" viewBox="0 0 121 120" fill="none" xmlns="http://www.w3.org/2000/svg">
<path d="M7.0625 85.0781H1.4375C0.92 85.0781 0.5 84.6539 0.5 84.1313C0.5 83.6086 0.92 83.1844 1.4375 83.1844H7.0625C7.58 83.1844 8 83.6086 8 84.1313C8 84.6539 7.58 85.0781 7.0625 85.0781Z" fill="#051326"/>
<path d="M119.562 85.0781H10.8125C10.295 85.0781 9.875 84.6539 9.875 84.1313C9.875 83.6086 10.295 83.1844 10.8125 83.1844H119.562C120.08 83.1844 120.5 83.6086 120.5 84.1313C120.5 84.6539 120.08 85.0781 119.562 85.0781Z" fill="#051326"/>
<path d="M110.188 76.5567H114.461C115.267 76.5567 115.985 76.0359 116.24 75.2614L118.532 68.3172C119.122 66.5258 118.318 64.5696 116.644 63.7288L115.792 63.3009L114.542 57.2752C113.754 53.4802 110.754 50.5545 106.972 49.8917L91.6723 47.2045L69.8754 29.4228C68.2067 28.0631 66.1273 27.3208 63.9842 27.3208H26.1598C23.1467 27.3208 20.3154 28.7846 18.5529 31.254L9.87542 43.4171H3.81167C2.3548 43.4171 1.4548 45.023 2.2048 46.2842L6.12542 52.8856V63.3009C3.7123 63.3009 1.91417 65.5468 2.42042 67.9309L3.93355 75.0607C4.11917 75.9337 4.8823 76.5567 5.7673 76.5567H9.87542" fill="#CACAD0"/>
<path d="M114.461 77.5033H110.188C109.67 77.5033 109.25 77.0792 109.25 76.5565C109.25 76.0338 109.67 75.6097 110.188 75.6097H114.461C114.864 75.6097 115.222 75.3483 115.351 74.962L117.643 68.0179C118.083 66.6828 117.474 65.2038 116.227 64.5751L115.376 64.1491C115.119 64.0203 114.935 63.7798 114.875 63.4938L113.625 57.4681C112.91 54.033 110.236 51.4235 106.813 50.8213L91.5127 48.1341C91.3552 48.1076 91.2071 48.0395 91.0833 47.9372L69.2865 30.1555C67.7921 28.934 65.9077 28.2637 63.984 28.2637H26.1596C23.454 28.2637 20.8946 29.5874 19.314 31.803L10.6365 43.9661C10.4602 44.218 10.1771 44.3638 9.87522 44.3638H3.81147C3.31834 44.3638 3.07647 44.699 2.99584 44.8448C2.91522 44.9887 2.75397 45.3694 3.00709 45.7992L6.92772 52.3987C7.01772 52.5445 7.06272 52.7131 7.06272 52.8854V63.3007C7.06272 63.8233 6.64272 64.2475 6.12522 64.2475C5.26084 64.2475 4.45084 64.6376 3.90709 65.3156C3.36334 65.9954 3.15522 66.876 3.33522 67.73L4.84834 74.8616C4.94209 75.2953 5.32647 75.6097 5.76709 75.6097H9.87522C10.3927 75.6097 10.8127 76.0338 10.8127 76.5565C10.8127 77.0792 10.3927 77.5033 9.87522 77.5033H5.76709C4.45084 77.5033 3.29397 76.5603 3.01647 75.2593L1.50334 68.1258C1.20334 66.7093 1.54647 65.2512 2.44834 64.1263C3.14959 63.2496 4.11709 62.6644 5.18584 62.4466V53.1467L1.39834 46.7707C0.86959 45.8807 0.856465 44.8126 1.36272 43.9093C1.86897 43.006 2.78584 42.4701 3.81147 42.4701H9.39522L17.7933 30.7009C19.7265 27.991 22.854 26.3738 26.1596 26.3738H63.984C66.3352 26.3738 68.6358 27.1956 70.464 28.6879L92.0715 46.3143L107.131 48.9598C111.316 49.6945 114.585 52.8816 115.456 57.0818L116.615 62.6568L117.06 62.8784C119.139 63.9256 120.153 66.3893 119.418 68.6163L117.127 75.5604C116.745 76.7231 115.672 77.5033 114.461 77.5033Z" fill="#051326"/>
<path d="M78.3125 77.5033H41.75C41.2325 77.5033 40.8125 77.0791 40.8125 76.5565C40.8125 76.0338 41.2325 75.6096 41.75 75.6096H78.3125C78.83 75.6096 79.25 76.0338 79.25 76.5565C79.25 77.0791 78.83 77.5033 78.3125 77.5033Z" fill="#051326"/>
<path d="M94.25 84.1315C100.981 84.1315 106.438 78.6206 106.438 71.8225C106.438 65.0245 100.981 59.5135 94.25 59.5135C87.519 59.5135 82.0625 65.0245 82.0625 71.8225C82.0625 78.6206 87.519 84.1315 94.25 84.1315Z" fill="#F7F7F8"/>
<path d="M94.25 85.0782C87.0125 85.0782 81.125 79.1301 81.125 71.8223C81.125 64.5146 87.0125 58.5665 94.25 58.5665C101.487 58.5665 107.375 64.5146 107.375 71.8223C107.375 79.1301 101.486 85.0782 94.25 85.0782ZM94.25 60.4602C88.0456 60.4602 83 65.5561 83 71.8223C83 78.0886 88.0456 83.1845 94.25 83.1845C100.454 83.1845 105.5 78.0886 105.5 71.8223C105.5 65.5561 100.452 60.4602 94.25 60.4602Z" fill="#051326"/>
<path d="M94.25 79.3971C90.1137 79.3971 86.75 75.9998 86.75 71.8223C86.75 67.6448 90.1137 64.2476 94.25 64.2476C98.3863 64.2476 101.75 67.6448 101.75 71.8223C101.75 75.9998 98.3844 79.3971 94.25 79.3971ZM94.25 66.1412C91.1487 66.1412 88.625 68.6901 88.625 71.8223C88.625 74.9545 91.1487 77.5034 94.25 77.5034C97.3512 77.5034 99.875 74.9545 99.875 71.8223C99.875 68.6901 97.3512 66.1412 94.25 66.1412Z" fill="#051326"/>
<path d="M25.8125 84.1315C32.5435 84.1315 38 78.6206 38 71.8225C38 65.0245 32.5435 59.5135 25.8125 59.5135C19.0815 59.5135 13.625 65.0245 13.625 71.8225C13.625 78.6206 19.0815 84.1315 25.8125 84.1315Z" fill="#F7F7F8"/>
<path d="M25.8125 85.0782C18.575 85.0782 12.6875 79.1301 12.6875 71.8223C12.6875 64.5146 18.575 58.5665 25.8125 58.5665C33.05 58.5665 38.9375 64.5146 38.9375 71.8223C38.9375 79.1301 33.05 85.0782 25.8125 85.0782ZM25.8125 60.4602C19.6081 60.4602 14.5625 65.5561 14.5625 71.8223C14.5625 78.0886 19.6081 83.1845 25.8125 83.1845C32.0169 83.1845 37.0625 78.0886 37.0625 71.8223C37.0625 65.5561 32.0169 60.4602 25.8125 60.4602Z" fill="#051326"/>
<path d="M25.8125 79.3971C21.6762 79.3971 18.3125 75.9998 18.3125 71.8223C18.3125 67.6448 21.6762 64.2476 25.8125 64.2476C29.9488 64.2476 33.3125 67.6448 33.3125 71.8223C33.3125 75.9998 29.9488 79.3971 25.8125 79.3971ZM25.8125 66.1412C22.7112 66.1412 20.1875 68.6901 20.1875 71.8223C20.1875 74.9545 22.7112 77.5034 25.8125 77.5034C28.9137 77.5034 31.4375 74.9545 31.4375 71.8223C31.4375 68.6901 28.9137 66.1412 25.8125 66.1412Z" fill="#051326"/>
<path d="M29.3585 35.1266L27.2491 40.8077C26.0997 43.902 28.3647 47.2046 31.6385 47.2046H91.6722L73.1004 32.0551H33.7479C31.7941 32.0551 30.0447 33.2784 29.3585 35.1266Z" fill="#F7F7F8"/>
<path d="M91.6719 48.1512H31.6381C29.795 48.1512 28.0663 47.2385 27.0163 45.7065C25.9644 44.1745 25.7244 42.2202 26.3713 40.4742L28.4806 34.7931C29.3 32.5889 31.4169 31.108 33.7475 31.108H73.1C73.3138 31.108 73.5219 31.1819 73.6888 31.3182L92.2606 46.4677C92.57 46.7196 92.6881 47.14 92.555 47.5206C92.4238 47.8975 92.0694 48.1512 91.6719 48.1512ZM30.2356 35.4597L28.1263 41.1408C27.6875 42.3206 27.845 43.5912 28.5556 44.629C29.2663 45.6648 30.3894 46.2575 31.6381 46.2575H89.0188L72.7681 33.0017H33.7475C32.1931 33.0017 30.7813 33.9883 30.2356 35.4597Z" fill="#051326"/>
<path d="M89.7969 57.5231C89.2794 57.5231 88.8594 57.0989 88.8594 56.5763V50.9918C88.8594 50.4691 89.2794 50.0449 89.7969 50.0449C90.3144 50.0449 90.7344 50.4691 90.7344 50.9918V56.5763C90.7344 57.1008 90.3144 57.5231 89.7969 57.5231Z" fill="#051326"/>
<path d="M52.0625 73.716C51.545 73.716 51.125 73.2918 51.125 72.7692V50.9918C51.125 50.4691 51.545 50.0449 52.0625 50.0449C52.58 50.0449 53 50.4691 53 50.9918V72.7692C53 73.2918 52.58 73.716 52.0625 73.716Z" fill="#CACAD0"/>
<path d="M52.0625 48.1512C51.545 48.1512 51.125 47.727 51.125 47.2044V32.0549C51.125 31.5322 51.545 31.108 52.0625 31.108C52.58 31.108 53 31.5322 53 32.0549V47.2044C53 47.727 52.58 48.1512 52.0625 48.1512Z" fill="#CACAD0"/>
<path d="M17.6094 56.6728H13.8594C12.3087 56.6728 11.0469 55.3983 11.0469 53.8323V50.0449C11.0469 48.4788 12.3087 47.2043 13.8594 47.2043H17.6094C19.16 47.2043 20.4219 48.4788 20.4219 50.0449V53.8323C20.4219 55.3983 19.16 56.6728 17.6094 56.6728ZM13.8594 49.098C13.3419 49.098 12.9219 49.5241 12.9219 50.0449V53.8323C12.9219 54.353 13.3419 54.7791 13.8594 54.7791H17.6094C18.1269 54.7791 18.5469 54.353 18.5469 53.8323V50.0449C18.5469 49.5241 18.1269 49.098 17.6094 49.098H13.8594Z" fill="#051326"/>
<path d="M115.792 63.3012L114.541 57.2755C114.429 56.7377 114.264 56.2245 114.067 55.7264H109.878C108.485 55.7264 107.577 57.2073 108.202 58.4666L110.592 63.3012H115.792Z" fill="#F7F7F8"/>
<path d="M115.792 64.2476H110.594C110.24 64.2476 109.915 64.045 109.756 63.725L107.364 58.8904C106.925 58.0022 106.972 56.9683 107.485 56.1256C108.001 55.2829 108.895 54.7792 109.878 54.7792H114.067C114.451 54.7792 114.796 55.0159 114.939 55.3757C115.175 55.9798 115.345 56.5365 115.458 57.08L116.709 63.1057C116.767 63.3841 116.697 63.6757 116.519 63.8973C116.341 64.1188 116.073 64.2476 115.792 64.2476ZM111.172 62.3539H114.637L113.622 57.4701C113.568 57.2126 113.499 56.9512 113.409 56.6729H109.876C109.405 56.6729 109.162 56.9872 109.079 57.1217C108.997 57.2561 108.826 57.6159 109.038 58.042L111.172 62.3539Z" fill="#051326"/>
<path d="M113.5 11C112.948 11 112.5 10.552 112.5 10V2C112.5 1.448 112.948 1 113.5 1C114.052 1 114.5 1.448 114.5 2V10C114.5 10.552 114.052 11 113.5 11Z" fill="#FF1616"/>
<path d="M117.5 7H109.5C108.948 7 108.5 6.552 108.5 6C108.5 5.448 108.948 5 109.5 5H117.5C118.052 5 118.5 5.448 118.5 6C118.5 6.552 118.052 7 117.5 7Z" fill="#FF1616"/>
<path d="M101.5 23C100.948 23 100.5 22.552 100.5 22V14C100.5 13.448 100.948 13 101.5 13C102.052 13 102.5 13.448 102.5 14V22C102.5 22.552 102.052 23 101.5 23Z" fill="#FF1616"/>
<path d="M105.5 19H97.5C96.948 19 96.5 18.552 96.5 18C96.5 17.448 96.948 17 97.5 17H105.5C106.052 17 106.5 17.448 106.5 18C106.5 18.552 106.052 19 105.5 19Z" fill="#FF1616"/>
<path d="M77.6176 74.145L73.5449 70.4792L78.8395 64.8594L82.7493 68.7691H84.7856L114.027 98.418L113.457 102.654L110.28 105.586L105.963 105.097L77.129 76.0999L77.6176 74.145Z" fill="#FF1616"/>
<circle cx="57.6938" cy="49.2471" r="25.9213" fill="#FF1616"/>
<circle cx="57.6936" cy="49.2466" r="18.5481" fill="#F7F7F8"/>
<path d="M45.0143 51.2596H38.959V47.2805H47.0904L50.2045 52.2977L55.3947 41.7441L57.2113 39.9277H58.5088L64.9101 52.2977L68.1107 47.2805H76.242V51.2596H70.2732L65.9481 58.5261H63.9585L57.7303 45.8102L51.0696 58.5261H49.253L45.0143 51.2596Z" fill="#FF1616"/>
<path d="M83.0734 67.9971L79.9177 64.8564C83.034 60.4333 84.8809 55.0558 84.8809 49.2471C84.8809 34.2564 72.684 22.0596 57.6934 22.0596C42.7027 22.0596 30.5059 34.2564 30.5059 49.2471C30.5059 64.2377 42.7027 76.4346 57.6934 76.4346C63.4984 76.4346 68.8721 74.5896 73.2934 71.4789L76.464 74.6496C76.1621 75.6264 76.3871 76.7158 77.1371 77.4677L104.216 104.621C106.655 107.036 110.611 107.042 113.036 104.621C115.567 102.115 115.406 98.1152 113.04 95.7939L85.9646 68.6439C85.194 67.8733 84.084 67.6614 83.0734 67.9971ZM32.3809 49.2471C32.3809 35.2896 43.7359 23.9346 57.6934 23.9346C71.6509 23.9346 83.0059 35.2896 83.0059 49.2471C83.0059 63.2046 71.6509 74.5596 57.6934 74.5596C43.7359 74.5596 32.3809 63.2046 32.3809 49.2471ZM78.7834 66.3714L81.5209 69.0958L77.5421 73.0746L74.8102 70.3427C76.2671 69.1596 77.5984 67.8283 78.7834 66.3714ZM111.716 103.29L111.714 103.292C110.019 104.987 107.248 104.983 105.541 103.292L78.4665 76.1421C78.144 75.8196 78.099 75.3283 78.2396 75.0864C78.2846 75.0414 78.3334 74.9796 78.3746 74.9177C78.414 74.8708 78.4534 74.8202 78.4646 74.8052L83.3715 69.9058L83.4409 69.8421C83.8309 69.6096 84.3334 69.6621 84.639 69.9677L111.721 97.1252C113.383 98.7564 113.471 101.548 111.716 103.29Z" fill="#051326"/>
<path d="M57.6934 29.5596C46.8371 29.5596 38.0059 38.3908 38.0059 49.2471C38.0059 60.1033 46.8371 68.9346 57.6934 68.9346C68.5496 68.9346 77.3809 60.1033 77.3809 49.2471C77.3809 38.3908 68.5496 29.5596 57.6934 29.5596ZM57.6934 31.4346C66.5565 31.4346 73.9065 37.9483 75.2621 46.4346H68.9434C67.8634 46.4346 66.8752 47.0514 66.4365 47.9814L65.1934 50.4564L60.2021 40.4889C59.7559 39.5852 58.7959 39.0246 57.6915 39.0246C56.5871 39.0246 55.6271 39.5852 55.1846 40.4833L50.1934 50.4564L48.9615 48.0039C48.5115 47.0514 47.5234 46.4346 46.4434 46.4346H40.1246C41.4802 37.9483 48.8302 31.4346 57.6934 31.4346ZM75.459 50.1846H70.1059C69.7515 50.1846 69.4271 50.3852 69.2677 50.7021L66.0146 57.1914C65.7334 57.7914 64.6627 57.8121 64.3627 57.1708L58.5315 45.5271C58.2127 44.8933 57.1721 44.8933 56.8534 45.5271L51.0127 57.1914C50.7315 57.7914 49.6627 57.8121 49.3609 57.1708L46.1171 50.7021C45.9596 50.3852 45.6334 50.1846 45.279 50.1846H39.9259C39.8602 48.9414 39.8602 49.5583 39.9259 48.3096H46.4434C46.8015 48.3096 47.124 48.5027 47.274 48.8233L49.3552 52.9671C49.7002 53.6533 50.6846 53.6571 51.0315 52.9671L56.8646 41.3177C57.1684 40.6989 58.2127 40.6933 58.5221 41.3233L64.3534 52.9671C64.7002 53.6571 65.6846 53.6552 66.0296 52.9671L68.1202 48.8027C68.2627 48.5027 68.5852 48.3096 68.9434 48.3096H75.459C75.5227 49.5527 75.5246 48.9358 75.459 50.1846ZM57.6934 67.0596C48.8302 67.0596 41.4802 60.5458 40.1246 52.0596H44.7015L47.6752 57.9921C48.6671 60.0958 51.7384 60.0527 52.7002 58.0127L57.6934 48.0414L62.6771 57.9921C63.669 60.0977 66.7421 60.0489 67.7002 58.0127L70.6852 52.0614H75.2621C73.9065 60.5458 66.5565 67.0596 57.6934 67.0596Z" fill="#051326"/>
</svg>
