<svg width="43" height="26" viewBox="0 0 43 26" fill="none" xmlns="http://www.w3.org/2000/svg">
<path d="M23.1388 24.6677L41.829 5.97712C42.2617 5.54483 42.5 4.96776 42.5 4.35245C42.5 3.73713 42.2617 3.16007 41.829 2.72778L40.4529 1.35135C39.5563 0.455698 38.0989 0.455698 37.2036 1.35135L21.5087 17.0462L5.79639 1.33393C5.36377 0.901645 4.78704 0.662964 4.17207 0.662964C3.55641 0.662964 2.97969 0.901645 2.54671 1.33393L1.17097 2.71036C0.738338 3.14299 0.5 3.71972 0.5 4.33503C0.5 4.95035 0.738338 5.52741 1.17097 5.9597L19.8782 24.6677C20.3122 25.101 20.8917 25.339 21.5077 25.3376C22.1261 25.339 22.7052 25.101 23.1388 24.6677Z" fill="#FF1616"/>
</svg>
