<svg width="333" height="21" viewBox="0 0 333 21" fill="none" xmlns="http://www.w3.org/2000/svg">
<path d="M276.969 2.46301C274.249 2.59442 271.695 2.67079 268.768 2.75829C268.269 2.77324 267.758 2.78851 267.233 2.80444C231.181 3.93387 195.231 5.07447 159.281 6.21507C123.33 7.35571 87.3784 8.49634 51.325 9.6258C49.4607 9.68243 47.5811 9.74414 45.6909 9.8062C40.2937 9.98339 34.81 10.1634 29.3529 10.2361C25.9871 10.2698 22.6213 10.3035 19.3029 10.1416C13.8927 9.95186 10.26 9.35399 9.67891 8.28647C9.27859 7.33912 11.7405 6.70462 16.6557 6.33827C19.4318 6.13972 22.2079 5.94115 25.1648 5.86276C27.9854 5.76946 30.7859 5.66281 33.5864 5.55617C39.1874 5.34287 44.7884 5.12958 50.5501 5.0231C60.2275 4.81816 69.8921 4.61182 79.5481 4.40565L79.5598 4.40541C124.411 3.44783 169.077 2.49419 213.988 1.70324C225.885 1.54875 237.853 1.56005 249.771 1.5713C254.301 1.57558 258.824 1.57985 263.334 1.575C267.746 1.55522 272.519 1.77575 277.292 1.99629C277.064 2.07175 277.017 2.26738 276.969 2.46301Z" fill="#FF1616"/>
<path d="M332.677 12.4678C331.836 12.4762 330.937 12.5035 330.039 12.5308C329.14 12.5581 328.242 12.5854 327.4 12.5938C241.563 14.1385 156.766 16.7252 72.129 19.3071L72.1036 19.3078C60.3204 19.6673 48.5402 20.0266 36.7607 20.3831C34.577 20.4456 32.368 20.5165 30.1591 20.5874C25.7414 20.7292 21.3233 20.871 17.1084 20.9458C16.5175 20.9517 15.9196 20.9599 15.3186 20.9682C12.4962 21.0071 9.60619 21.047 7.05839 20.8513C4.19617 20.5384 0.563533 19.9405 0.0685326 19.3844C-0.426455 18.8283 1.85464 18.0737 3.86031 17.5901C5.3332 17.2519 7.77241 17.0883 10.1446 16.9292C10.6351 16.8963 11.1233 16.8636 11.599 16.8296C17.3317 16.5526 23.0652 16.2756 28.9787 16.1189C106.951 13.8988 185.646 12.1594 264.875 11.6831C278.32 11.5977 291.826 11.6556 305.491 11.7141C312.118 11.7425 318.784 11.771 325.498 11.7835C327.317 11.7815 328.934 11.8466 330.55 11.9117C331.358 11.9443 332.166 11.9769 333 12.0011C332.666 12.1115 332.673 12.2055 332.683 12.3247C332.686 12.3684 332.69 12.4154 332.677 12.4678Z" fill="#FF1616"/>
</svg>
