<svg width="60" height="57" viewBox="0 0 60 57" fill="none" xmlns="http://www.w3.org/2000/svg">
<path fill-rule="evenodd" clip-rule="evenodd" d="M54.0962 35.7038C53.6657 35.7249 53.4617 35.735 53.1823 35.7484L52.9393 35.5268C52.3613 35.5275 51.8034 35.5347 51.246 35.5272C50.7757 35.521 50.3039 35.4708 49.8354 35.4898C49.3134 35.5112 48.7936 35.4718 48.266 35.5178C47.7899 35.5598 47.292 35.7419 46.8206 35.6077C46.2728 35.4505 45.7829 35.7563 45.2504 35.7024C44.7587 35.6526 44.258 35.6945 43.7624 35.6962C43.7629 35.7073 43.7666 35.782 43.7706 35.875C42.2952 36.0735 40.8078 36.2364 39.3518 36.8919C39.3134 36.8766 39.1838 36.8258 39.0244 36.7632C39.0175 36.8687 39.011 36.965 39.0046 37.0643C38.195 37.3555 37.3887 37.7027 36.5737 37.9684C35.5701 38.2952 34.6552 38.8524 33.5903 39.0295C33.0555 39.1185 32.5172 39.3886 32.0682 39.7019C31.7935 39.8942 31.6807 39.7037 31.4721 39.6782C31.4484 39.8033 31.4241 39.9283 31.3924 40.096C30.7505 40.3268 30.0899 40.5645 29.4093 40.8094C29.3929 40.6315 29.3833 40.5239 29.3676 40.3539C29.03 40.3114 28.7062 40.0028 28.1489 40.4414C28.2916 40.1074 28.3798 39.9007 28.4885 39.6464C28.0484 39.6835 27.8755 39.6978 27.6575 39.7159C27.6289 39.8624 27.6025 39.9996 27.5732 40.1504C27.3811 40.2129 27.1608 40.2852 26.9484 40.3545C26.8897 40.2814 26.7972 40.2122 26.8076 40.1712C26.8894 39.8681 26.9917 39.5703 27.0867 39.2731C26.7568 38.8393 26.4384 39.2598 26.1176 39.2747C26.1141 39.199 26.111 39.1237 26.1059 39.0191C25.962 38.9789 25.8088 38.9359 25.6477 38.8907C25.6914 38.5603 25.7325 38.2488 25.7911 37.8067C26.3712 37.0674 27.1086 36.2686 27.6642 35.3591C27.9516 34.8896 28.419 34.5055 28.5657 34.0268C28.7483 33.4325 29.316 33.1886 29.5029 32.6949C29.7095 32.1506 30.1957 31.8279 30.4123 31.3533C30.65 30.8323 31.1157 30.4921 31.3335 30.0186C31.8517 28.8914 32.7573 27.9813 33.1082 26.7701C33.5493 26.4906 33.5641 25.8232 34.1273 25.655C34.2358 25.0482 34.5767 24.5521 34.885 24.0376C35.3204 23.3113 35.5102 22.4561 36.0947 21.8006C36.2597 21.615 36.2819 21.3026 36.4242 20.889C35.4808 21.4657 34.671 21.9603 33.6807 22.5655C33.5801 22.5592 33.2458 22.5377 32.9086 22.5158C32.7565 22.8238 32.6496 23.0405 32.5352 23.2716C31.5562 23.7591 30.6971 24.6486 29.467 24.7381C29.5469 25.2773 28.9762 25.4234 28.8142 25.7736C27.5444 26.25 26.6247 27.1596 25.4427 27.9413C25.421 27.9412 25.233 27.9412 25.0542 27.9411C24.5866 28.1763 24.4236 28.7277 23.8536 28.8823C23.4398 28.994 23.0332 29.3656 22.7674 29.7272C22.4428 30.1685 21.9775 30.4597 21.5564 30.6146C21.0333 30.807 20.8562 31.2557 20.417 31.5386C20.2885 31.5388 20.1003 31.5392 19.8394 31.5396C19.1592 32.4383 18.231 33.1289 17.3711 33.9367C17.1894 33.9206 17.0081 33.9042 16.7739 33.8834L15.9906 34.7404C15.9632 34.5205 15.9509 34.4188 15.9251 34.207C15.5746 34.6736 15.1222 34.7107 14.5937 34.6475C14.5563 34.532 14.5132 34.3988 14.4763 34.2859C13.6595 34.3123 12.8207 34.3393 12.0553 34.3642C11.8911 34.0982 11.7669 33.8961 11.6061 33.6356C11.6322 33.5486 11.6812 33.3854 11.7299 33.2225L11.5338 33.0437C11.4245 33.1042 11.304 33.1708 11.1207 33.2723C10.5932 32.8583 10.533 32.2674 10.5354 31.6616C10.8243 31.2131 10.8243 31.2131 10.5812 30.5066C10.5177 30.7791 10.4936 30.8825 10.4559 31.0431C10.3628 30.9936 10.2567 30.9379 10.1099 30.8597C10.2528 30.6467 10.3704 30.4718 10.5158 30.2549C10.373 30.2449 10.2783 30.2378 10.2081 30.2328C10.0648 29.5425 9.92112 28.8509 9.76042 28.0756L10.1005 27.7035C9.92669 27.6974 9.82504 27.6935 9.68716 27.6886C9.7431 27.5609 9.79614 27.4407 9.86595 27.2818L9.51148 26.9587C9.502 26.7512 9.49543 26.6008 9.48852 26.4495C9.80626 26.406 10.1055 26.1383 10.45 26.3708C10.3211 25.7639 9.84562 25.9603 9.37675 25.9341C9.5136 25.7554 9.62018 25.6161 9.73234 25.4699C9.57823 24.9485 9.53503 24.4018 9.07469 23.9569C8.69038 23.5857 8.85325 23.0173 9.05104 22.4789C8.90653 22.4641 8.81906 22.4551 8.64473 22.4378C8.75198 22.2614 8.84749 22.1052 8.96929 21.906C8.92466 21.8755 8.85848 21.8303 8.6623 21.6953C8.58515 21.339 8.56907 20.8001 8.35023 20.3618C8.03848 19.7377 8.35782 19.0658 8.02798 18.4319C7.73877 17.8761 7.62405 17.2254 7.56197 16.5614C7.4774 15.6562 7.17728 14.7713 6.95439 13.8129L6.53531 14.2715C6.58093 14.3816 6.6464 14.5402 6.73541 14.7567C6.544 14.8098 6.37639 14.8559 6.17629 14.9117C6.10645 15.2374 5.99784 15.5772 5.97042 15.9236C5.94719 16.2137 5.68937 16.526 5.99988 16.8074C5.62702 17.0479 5.70635 17.4326 5.71859 17.7842C5.61144 17.7888 5.53629 17.7922 5.47759 17.7949C5.51846 19.0829 5.19016 20.2995 4.77061 21.5015C4.79946 21.9144 4.82801 22.327 4.85608 22.7358L4.60284 23.0128C4.5298 23.6228 4.46637 24.1532 4.39451 24.7569C4.13624 24.6984 3.95288 24.6572 3.71632 24.6039C3.6341 24.9678 3.55708 25.31 3.48566 25.6269C3.752 25.7719 3.98157 25.8975 4.20929 26.0214C4.08645 26.8224 3.97383 27.5575 3.82968 28.4976C3.5728 28.128 3.64069 27.882 3.60214 27.6305C3.09785 27.7754 3.38791 28.1758 3.32263 28.4466C3.1886 28.4745 3.0551 28.5011 2.7692 28.5591C2.88875 28.7422 3.0004 28.9137 3.11206 29.0851C3.03169 29.09 2.95132 29.0948 2.87125 29.0999C3.03579 29.1347 3.20033 29.1695 3.38152 29.2083C3.28919 29.5309 3.21282 29.7973 3.13715 30.0598C2.99347 30.076 2.88432 30.0884 2.76668 30.1014C2.76717 30.2024 2.76707 30.3096 2.76751 30.4482C3.03418 30.6132 3.31723 30.7892 3.57571 30.949C3.35758 31.9823 3.14951 32.9652 2.94174 33.9485C2.89799 33.9502 2.85427 33.9525 2.81111 33.9541C2.78894 33.8485 2.76648 33.7432 2.71133 33.4822C2.40322 33.975 2.14913 34.3817 1.85392 34.8543C1.44634 34.6563 1.06972 34.4732 0.523127 34.2069C0.502687 34.2102 0.281123 34.2471 0 34.2936C0.222459 32.9558 0.14293 31.6713 0.153621 30.4045C0.168566 28.6511 0.512598 26.9482 0.637911 25.2155C0.768203 23.4116 1.13837 21.6241 1.39818 19.8286C1.54651 18.8064 1.66314 17.7789 1.83131 16.7595C2.06777 15.3288 2.28302 13.8911 2.62025 12.4837C2.769 11.8636 2.68398 11.2254 2.95771 10.6046C3.1928 10.0716 3.15258 9.4163 3.22745 8.81425C3.41904 7.27688 3.65566 5.74687 3.67307 4.18894C3.68381 3.17445 3.82841 2.16062 3.92534 0.99827L4.83775 0C5.08721 0.213354 5.43439 0.357341 5.45671 0.865381C5.68212 0.668002 5.89252 0.483349 6.09133 0.308918C7.14226 0.534242 7.94371 1.1384 8.70709 2.02981C8.69154 2.15947 8.66044 2.41879 8.60419 2.89399C8.58216 2.95256 8.47309 3.24364 8.34168 3.59301C8.69037 3.73781 8.95211 3.84662 9.19886 3.94906C9.2965 4.44486 9.42831 4.93528 9.48078 5.43372C9.52576 5.85848 9.98123 6.2484 9.44503 6.71871C9.68105 6.70855 9.75647 6.70483 9.89708 6.69872C9.69215 7.2221 10.3926 7.68252 9.91534 8.21948C10.0461 8.37068 10.1635 8.50633 10.3026 8.66684C10.2555 8.75035 10.2038 8.842 10.1464 8.94361C10.7959 10.2285 10.9289 11.6589 11.1648 13.0898C11.2262 13.1458 11.3576 13.2082 11.3854 13.301C11.4969 13.6757 11.7425 14.1216 11.6297 14.4266C11.4458 14.922 12.0049 15.3962 11.5316 15.8414C11.7236 16.0376 11.9016 16.2196 12.0925 16.4145C12.0417 16.5384 11.9888 16.6671 11.9242 16.8246C12.0173 16.919 12.1197 17.0224 12.277 17.1827C12.2842 17.5528 12.2927 17.983 12.3027 18.4922C12.0339 18.4096 11.8755 18.3607 11.6559 18.2926C11.7378 18.6246 11.8118 18.9241 11.8861 19.2238C12.0169 19.2481 12.1471 19.2719 12.3553 19.3094C12.3132 19.5149 12.2331 19.7053 12.2499 19.887C12.2645 20.0458 12.3884 20.1947 12.4626 20.3455C12.5781 20.3614 12.7178 20.3803 12.9551 20.413C12.9102 20.6265 12.8712 20.8089 12.8064 21.1162C12.7443 21.1546 12.5404 21.2811 12.3084 21.4247L12.6475 21.7339C12.5395 22.1574 12.4606 22.4523 12.7571 22.8659C13.2613 23.5688 13.4528 24.4587 13.7538 25.2774C13.8001 25.4028 13.6766 25.5902 13.6317 25.7471C13.7519 25.7528 13.8516 25.7576 13.8415 25.7569C13.9016 26.2409 14.0216 26.6852 13.9929 27.1198C13.9642 27.5617 13.7887 27.9944 13.6489 28.5413C13.7638 28.7825 13.9725 28.6502 14.2941 28.113C14.2617 28.6194 14.2509 28.7894 14.2374 28.9956C14.0891 29.0526 13.9364 29.1113 13.6459 29.2229C13.96 29.344 14.1708 29.4255 14.4088 29.5171C14.4259 29.608 14.4466 29.7128 14.4794 29.8838C14.6239 29.8722 14.8767 29.9212 14.9384 29.8347C15.2396 29.4115 15.6847 29.2907 16.09 29.1483C16.4883 28.3899 17.3168 28.1619 17.8997 27.6521C18.5409 27.0904 19.2217 26.5524 19.957 26.1282C20.6608 25.7213 21.3919 25.3247 21.9759 24.7929C22.5957 24.228 23.3331 23.8669 23.979 23.3578C24.6374 22.8387 25.376 22.4091 26.1185 22.0122C26.8344 21.6304 27.4367 21.0889 28.1658 20.7135C28.9067 20.3319 29.6428 19.8798 30.3082 19.3778C30.9678 18.8801 31.7278 18.602 32.4015 18.153C33.0726 17.7056 33.7662 17.2895 34.47 16.895C35.2005 16.4855 35.9582 16.1243 36.6979 15.7305C37.4089 15.3521 38.1124 14.959 38.8789 14.5396C39.1613 14.5268 39.5343 14.5095 39.9024 14.4927C39.9124 14.5889 39.9244 14.6982 39.9345 14.7968C40.2691 15.149 40.5467 14.8385 40.793 14.7574C41.2133 15.019 41.6068 15.2637 42.0321 15.5284C42.0368 15.5849 42.0462 15.6958 42.0548 15.7985C42.8493 15.807 42.9508 16.4445 43.0522 16.9903C43.1541 17.5417 43.1204 18.1178 43.148 18.7223C42.525 19.6304 42.54 20.9251 41.4531 21.6182C41.5535 21.7564 41.6157 21.8417 41.7198 21.9844C41.3496 22.5526 40.9576 23.1533 40.5139 23.8332C40.5279 23.8567 40.597 23.9719 40.6482 24.0574C40.353 24.639 40.0803 25.2112 39.7729 25.7643C39.6519 25.9816 39.4872 26.2646 39.283 26.3279C38.7642 26.4893 38.5018 26.7794 38.3877 27.3075C38.3352 27.5502 38.0837 27.749 38.0429 28.0652L38.6421 27.4096C38.6993 27.5489 38.7531 27.6372 38.7381 27.6505C38.2981 28.0518 38.0958 28.6074 37.8681 29.1201C37.6763 29.5521 37.3948 29.9776 37.0396 30.0948C36.5788 30.2468 36.4652 30.6365 35.9511 30.9214C36.2364 30.9545 36.3192 30.9642 36.4032 30.9739C36.2691 31.7602 36.1687 32.0479 35.6205 32.2618C35.1818 32.4327 35.0648 32.8014 34.8695 33.1561C35.0975 32.9571 35.3255 32.7581 35.7175 32.416C35.3385 33.0616 35.0721 33.5149 34.6963 34.1544C36.5006 33.377 38.2383 33.1451 39.9293 32.7274C41.6517 32.3017 42.5767 32.2167 44.0438 32.3247C44.3103 32.344 44.5861 32.1937 44.8578 32.193C45.3284 32.1928 45.8013 32.2878 46.2702 32.2685C46.7006 32.2507 47.1281 32.0679 47.5555 32.0743C48.6864 32.0921 49.8093 32.2977 50.9477 32.2403C51.0592 32.2346 51.1803 32.408 51.3099 32.5087C51.4914 32.4573 51.6983 32.3318 51.8857 32.3565C52.8012 32.477 53.7264 32.577 54.618 32.8037C55.3265 32.9838 56.0489 33.1063 56.7558 33.3467C57.4543 33.584 58.0001 34.0185 58.6237 34.3297C59.2688 34.6519 59.6919 35.2945 60 36.031C58.9519 36.1565 59.0888 37.3 58.5091 37.8628C58.787 37.6025 59.0651 37.3419 59.3432 37.0813C59.3852 37.1247 59.4272 37.1686 59.4692 37.2119L58.9635 37.7651C58.8106 37.9325 58.6549 38.0973 58.5056 38.2674C58.3387 38.4586 58.0938 38.6146 58.1891 38.9313C57.8477 38.81 57.9533 39.2754 57.7482 39.2801C57.3804 39.2892 57.7141 39.7569 57.3667 39.8009C57.1749 39.8255 56.9839 39.979 56.8268 40.114C56.6327 40.2808 56.4742 40.4887 56.3165 40.6612C56.1326 40.583 56.0046 40.5286 55.8021 40.4423C55.9032 40.6278 55.9671 40.745 56.0566 40.9081C55.9833 41.0036 55.897 41.1166 55.7554 41.301C55.4481 41.3153 55.0838 41.3322 54.7566 41.3474C54.6293 41.5027 54.5373 41.615 54.4532 41.7175C54.5321 41.8687 54.5963 41.9918 54.6855 42.1619C54.4821 42.1007 54.3265 42.0537 54.1705 42.0071L54.003 42.1904C54.0642 42.3389 54.1294 42.4977 54.2018 42.6727C53.6057 43.011 52.9721 43.2548 52.5045 43.7917C52.2927 44.0345 51.8973 44.118 51.5511 44.2907C51.5519 44.2836 51.5465 44.3505 51.5379 44.4528C51.0406 44.771 50.5254 45.1008 49.8904 45.5069C49.9083 45.1912 49.9204 44.9803 49.9315 44.7842C49.6503 45.0167 49.5095 45.212 49.3641 45.5823C49.3288 45.5889 49.294 45.5993 49.2579 45.6024C49.1826 45.6079 49.1071 45.6098 49.0187 45.6136C49.0254 45.6882 49.0337 45.7621 49.038 45.8362C49.0399 45.8723 49.0346 45.9089 49.0319 45.9481C48.759 46.1027 48.484 46.2583 48.1227 46.4627L47.3868 45.7919C47.3339 45.8128 47.2813 45.834 47.2285 45.8555C47.271 46.0201 47.3141 46.1847 47.3745 46.419C47.4652 46.441 47.6258 46.4795 47.9313 46.5534C47.482 46.8529 47.1155 47.0976 46.7592 47.3347C46.6375 47.2647 46.5463 47.2119 46.4511 47.1572C46.352 47.8394 45.8373 47.9383 45.3054 48.031C45.1358 48.0607 44.9645 48.1287 44.8155 48.2154C44.4811 48.4095 44.1602 48.6265 43.7672 48.8774C43.7548 48.8712 43.6607 48.8252 43.4658 48.7307C43.3344 48.8953 43.177 49.0928 42.9269 49.4071C43.0102 49.3959 42.8993 49.3825 42.8195 49.4255C42.1727 49.7731 41.5682 50.1968 40.8916 50.4914C40.8279 50.5193 40.7882 50.5966 40.7279 50.6367C40.3351 50.8966 39.7624 50.6521 39.4348 51.0789C39.1455 51.4557 38.6692 51.4216 38.3038 51.6312C37.9108 51.8568 37.4968 52.0457 37.0888 52.2435C36.963 52.3047 36.8111 52.3202 36.6999 52.3981C36.579 52.4823 36.4918 52.6146 36.3437 52.7768C36.1694 52.7606 35.9458 52.7405 35.7804 52.7252L35.2621 53.2922C34.6039 53.3063 33.9379 53.3099 33.4707 53.901C33.4293 53.9537 33.3554 54.0161 33.2977 54.0153C32.3207 53.9989 31.6341 54.7502 30.7293 54.9682C29.8568 55.1786 29.0581 55.6776 28.1985 55.9644C27.0599 56.3446 25.8944 56.643 24.7384 56.9703C24.6324 57.0007 24.5061 57.0114 24.4008 56.9851C23.4157 56.74 22.4331 56.4843 21.5423 56.256C21.2036 55.8012 20.9254 55.4273 20.5675 54.9466C20.6077 54.7371 20.674 54.393 20.7382 54.0587C21.3203 53.769 21.8703 53.4602 22.4487 53.2183C23.03 52.975 23.6287 52.7533 24.2392 52.6019C25.5755 52.2693 26.803 51.6465 28.1016 51.221C28.8702 50.9692 29.5647 50.4876 30.4082 50.4671C31.5663 49.7214 32.8788 49.3244 34.127 48.7806C34.6666 48.5454 35.2477 48.3885 35.7563 48.0622C36.2246 47.7609 36.7402 47.5336 37.2338 47.2717C38.7778 46.4541 40.3247 45.6438 41.8622 44.8147C42.6628 44.3832 43.455 43.9332 44.2348 43.4647C45.02 42.9928 45.7691 42.4299 46.5584 42.0027C47.9417 41.2538 49.0597 40.1592 50.4021 39.3664C51.111 38.9478 51.6793 38.2792 52.2734 37.6859C52.8526 37.1081 53.3844 36.4826 54.0962 35.7038Z" fill="#FF1616"/>
</svg>
