<svg width="120" height="120" viewBox="0 0 120 120" fill="none" xmlns="http://www.w3.org/2000/svg">
<path d="M45.4425 61.4062C59.94 61.4062 71.6925 49.6537 71.6925 35.1562C71.6925 20.6588 59.94 8.90625 45.4425 8.90625C30.945 8.90625 19.1925 20.6588 19.1925 35.1562C19.1925 49.6537 30.945 61.4062 45.4425 61.4062Z" fill="#FF1616"/>
<path d="M89.505 36.0938C81.2344 36.0938 74.505 29.3644 74.505 21.0938C74.505 12.8231 81.2344 6.09375 89.505 6.09375C97.7756 6.09375 104.505 12.8231 104.505 21.0938C104.505 29.3644 97.7756 36.0938 89.505 36.0938ZM89.505 7.96875C82.2675 7.96875 76.38 13.8581 76.38 21.0938C76.38 28.3294 82.2675 34.2188 89.505 34.2188C96.7425 34.2188 102.63 28.3294 102.63 21.0938C102.63 13.8581 96.7425 7.96875 89.505 7.96875Z" fill="#051326"/>
<path d="M97.9425 22.0312C97.425 22.0312 97.005 21.6112 97.005 21.0938C97.005 16.9575 93.6413 13.5938 89.505 13.5938C88.9875 13.5938 88.5675 13.1738 88.5675 12.6562C88.5675 12.1388 88.9875 11.7188 89.505 11.7188C94.6744 11.7188 98.88 15.9244 98.88 21.0938C98.88 21.6112 98.46 22.0312 97.9425 22.0312Z" fill="#051326"/>
<path d="M92.5726 112.005C91.6557 112.005 90.7557 111.561 90.2176 110.738L62.7432 68.8725C62.3307 68.2444 62.1882 67.4925 62.3419 66.7575C62.4938 66.0207 62.9251 65.3907 63.5532 64.9782L68.2557 61.8919C69.5551 61.0407 71.3007 61.4025 72.1501 62.7L99.6226 104.565C100.035 105.193 100.178 105.943 100.026 106.68C99.8738 107.417 99.4426 108.047 98.8144 108.459L94.1119 111.546C93.6357 111.857 93.1013 112.005 92.5726 112.005ZM91.7851 109.71C92.0663 110.141 92.6494 110.269 93.0826 109.98L97.7869 106.894C97.9969 106.757 98.1394 106.545 98.1901 106.301C98.2407 106.056 98.1919 105.804 98.0551 105.596L70.5844 63.7275C70.3032 63.2963 69.7201 63.1763 69.2869 63.4575L64.5826 66.5438C64.3726 66.6807 64.2301 66.8925 64.1794 67.1363C64.1288 67.3819 64.1757 67.6332 64.3126 67.8413L91.7851 109.71Z" fill="#051326"/>
<path d="M88.9838 84.1612C88.8919 84.1612 88.7982 84.1481 88.7063 84.12C88.2113 83.9662 87.9357 83.4431 88.0875 82.9481L99.2063 47.0268C100.581 42.5812 98.085 37.8468 93.6413 36.4706C89.1938 35.0962 84.4613 37.5918 83.0869 42.0356L76.5432 63.1762C76.3894 63.6712 75.8682 63.9525 75.3713 63.795C74.8763 63.6412 74.6007 63.1181 74.7525 62.6231L81.2963 41.4825C82.9763 36.0525 88.7663 33.0018 94.1963 34.68C96.8288 35.4956 98.985 37.2862 100.269 39.72C101.554 42.1575 101.813 44.9475 100.999 47.5781L89.88 83.4993C89.7544 83.9025 89.3832 84.1612 88.9838 84.1612Z" fill="#051326"/>
<path d="M26.4488 113.906C24.4144 113.906 22.4382 113.308 20.7376 112.172C18.4463 110.646 16.8863 108.315 16.3463 105.615C15.8063 102.915 16.3501 100.164 17.8782 97.8713L36.6282 69.7463C39.0376 66.135 43.4907 64.4081 47.7094 65.4619L59.9794 68.5294C60.4819 68.655 60.7876 69.165 60.6619 69.6656C60.5363 70.1681 60.0263 70.4644 59.5257 70.3482L47.2557 67.2807C43.8019 66.42 40.1588 67.8319 38.1882 70.785L19.4382 98.91C18.1876 100.785 17.7432 103.035 18.1857 105.246C18.6282 107.456 19.9051 109.359 21.7801 110.61C23.1732 111.538 24.7876 112.029 26.4526 112.029C29.2838 112.029 31.9126 110.625 33.4819 108.27L48.5626 85.6444C48.7819 85.3144 49.1869 85.1607 49.5694 85.2544L75.1501 91.65C75.6526 91.7757 75.9582 92.2857 75.8326 92.7863C75.7069 93.2888 75.1913 93.585 74.6963 93.4688L49.7569 87.2325L35.0382 109.313C33.1219 112.189 29.9101 113.906 26.4488 113.906Z" fill="#051326"/>
<path d="M104.257 45.7481C103.954 45.7481 103.656 45.6 103.476 45.3263C103.191 44.8969 103.309 44.3138 103.74 44.0288L116.767 35.4112C117.199 35.1262 117.317 34.5431 117.032 34.1119L113.929 29.4225C113.79 29.2125 113.578 29.07 113.334 29.0194C113.092 28.9725 112.839 29.0194 112.631 29.1562L101.428 36.5663C100.995 36.8513 100.414 36.7331 100.129 36.3C99.8437 35.8706 99.9619 35.2875 100.393 35.0025L111.596 27.5925C112.222 27.1781 112.974 27.0337 113.709 27.1819C114.446 27.3319 115.08 27.7594 115.494 28.3875L118.597 33.0769C119.452 34.3706 119.096 36.12 117.804 36.975L104.777 45.5925C104.616 45.6994 104.436 45.7481 104.257 45.7481Z" fill="#051326"/>
<path d="M3.75 38.9062H1.875C1.3575 38.9062 0.9375 38.4863 0.9375 37.9688C0.9375 37.4513 1.3575 37.0312 1.875 37.0312H3.75C4.2675 37.0312 4.6875 37.4513 4.6875 37.9688C4.6875 38.4863 4.2675 38.9062 3.75 38.9062Z" fill="#051326"/>
<path d="M30 38.9062H7.5C6.9825 38.9062 6.5625 38.4863 6.5625 37.9688C6.5625 37.4513 6.9825 37.0312 7.5 37.0312H30C30.5175 37.0312 30.9375 37.4513 30.9375 37.9688C30.9375 38.4863 30.5175 38.9062 30 38.9062Z" fill="#051326"/>
<path d="M36.1088 33.2812H13.6088C13.0913 33.2812 12.6713 32.8613 12.6713 32.3438C12.6713 31.8263 13.0913 31.4062 13.6088 31.4062H36.1088C36.6263 31.4062 37.0463 31.8263 37.0463 32.3438C37.0463 32.8613 36.6263 33.2812 36.1088 33.2812Z" fill="#051326"/>
<path d="M45.4425 62.3438C33.0544 62.3438 22.2413 53.9587 19.1457 41.9531C19.0163 41.4506 19.3182 40.9406 19.8188 40.8113C20.3194 40.6838 20.8313 40.9837 20.9607 41.4844C23.8425 52.6631 33.9094 60.4688 45.4425 60.4688C59.4 60.4688 70.755 49.1138 70.755 35.1562C70.755 21.1988 59.4 9.84375 45.4425 9.84375C33.9113 9.84375 23.8425 17.6494 20.9607 28.8281C20.8313 29.3306 20.3175 29.6344 19.8188 29.5013C19.3182 29.3719 19.0163 28.86 19.1457 28.3594C22.2413 16.3538 33.0544 7.96875 45.4425 7.96875C60.4332 7.96875 72.63 20.1656 72.63 35.1562C72.63 50.1469 60.4332 62.3438 45.4425 62.3438Z" fill="#051326"/>
</svg>
