<svg width="120" height="120" viewBox="0 0 120 120" fill="none" xmlns="http://www.w3.org/2000/svg">
<g clip-path="url(#clip0_1974_2635)">
<path d="M106.875 41.25H43.125C40.5356 41.25 38.4375 43.3481 38.4375 45.9375V70.3125C38.4375 72.9019 40.5356 75 43.125 75H70.5919H74.5744L84.1987 101.891C84.8662 103.757 86.6325 105 88.6125 105H108.994C110.263 105 111.167 103.763 110.779 102.553L101.963 75H105.9H106.875C109.464 75 111.562 72.9019 111.562 70.3125V45.9375C111.562 43.3481 109.464 41.25 106.875 41.25Z" fill="#9A9CA5"/>
<path d="M106.875 75.9375H105.898C105.381 75.9375 104.961 75.5175 104.961 75C104.961 74.4825 105.381 74.0625 105.898 74.0625H106.875C108.943 74.0625 110.625 72.3806 110.625 70.3125V45.9375C110.625 43.8694 108.943 42.1875 106.875 42.1875H43.125C41.0569 42.1875 39.375 43.8694 39.375 45.9375V70.3125C39.375 72.3806 41.0569 74.0625 43.125 74.0625H70.5919C71.1094 74.0625 71.5294 74.4825 71.5294 75C71.5294 75.5175 71.1094 75.9375 70.5919 75.9375H43.125C40.0237 75.9375 37.5 73.4137 37.5 70.3125V45.9375C37.5 42.8362 40.0237 40.3125 43.125 40.3125H106.875C109.976 40.3125 112.5 42.8362 112.5 45.9375V70.3125C112.5 73.4137 109.976 75.9375 106.875 75.9375Z" fill="#051326"/>
<path d="M67.5 33.75H55.3125C49.6256 33.75 45 29.1225 45 23.4375V5.625C45 2.52375 47.5237 0 50.625 0H72.1875C75.2887 0 77.8125 2.52375 77.8125 5.625V23.4375C77.8125 29.1225 73.1869 33.75 67.5 33.75ZM50.625 1.875C48.5569 1.875 46.875 3.55687 46.875 5.625V23.4375C46.875 28.0894 50.6606 31.875 55.3125 31.875H67.5C72.1519 31.875 75.9375 28.0894 75.9375 23.4375V5.625C75.9375 3.55687 74.2556 1.875 72.1875 1.875H50.625Z" fill="#051326"/>
<path d="M34.6875 64.6875H26.25C24.6994 64.6875 23.4375 63.4256 23.4375 61.875V54.375C23.4375 52.8244 24.6994 51.5625 26.25 51.5625H34.6875C35.205 51.5625 35.625 51.9825 35.625 52.5C35.625 53.0175 35.205 53.4375 34.6875 53.4375H26.25C25.7325 53.4375 25.3125 53.8594 25.3125 54.375V61.875C25.3125 62.3906 25.7325 62.8125 26.25 62.8125H34.6875C35.205 62.8125 35.625 63.2325 35.625 63.75C35.625 64.2675 35.205 64.6875 34.6875 64.6875Z" fill="#051326"/>
<path d="M117.188 55.3125H115.312C114.795 55.3125 114.375 54.8925 114.375 54.375C114.375 53.8575 114.795 53.4375 115.312 53.4375H117.188C117.705 53.4375 118.125 53.0156 118.125 52.5V48.75C118.125 48.2344 117.705 47.8125 117.188 47.8125H115.312C114.795 47.8125 114.375 47.3925 114.375 46.875C114.375 46.3575 114.795 45.9375 115.312 45.9375H117.188C118.738 45.9375 120 47.1994 120 48.75V52.5C120 54.0506 118.738 55.3125 117.188 55.3125Z" fill="#051326"/>
<path d="M104.434 111.562H93.4462C91.5618 111.562 89.8125 110.627 88.7662 109.057L86.4075 105.519C86.2162 105.232 86.1975 104.861 86.3606 104.556C86.5237 104.252 86.8406 104.061 87.1875 104.061H109.687C109.989 104.061 110.272 104.205 110.449 104.451C110.625 104.694 110.674 105.009 110.576 105.294L109.77 107.715C109.003 110.017 106.858 111.562 104.434 111.562ZM88.9387 105.937L90.3262 108.017C91.0237 109.063 92.19 109.687 93.4462 109.687H104.434C106.05 109.687 107.481 108.656 107.992 107.124L108.386 105.937H88.9387Z" fill="#051326"/>
<path d="M108.994 105.938H88.6125C86.2425 105.938 84.1144 104.439 83.3175 102.208L72.7912 72.7988C72.2587 71.31 70.8412 70.3125 69.2606 70.3125H42.1875C41.67 70.3125 41.25 69.8925 41.25 69.375C41.25 68.8575 41.67 68.4375 42.1875 68.4375H69.2606C71.6306 68.4375 73.7587 69.9356 74.5556 72.1669L85.0819 101.576C85.6144 103.065 87.0319 104.063 88.6125 104.063H108.994C109.298 104.063 109.573 103.922 109.751 103.678C109.929 103.433 109.98 103.129 109.886 102.84L95.6681 58.4119C95.5106 57.9188 95.7825 57.3919 96.2756 57.2325C96.7687 57.0788 97.2956 57.3488 97.4531 57.84L111.671 102.268C111.949 103.133 111.801 104.049 111.264 104.784C110.73 105.516 109.901 105.938 108.994 105.938Z" fill="#051326"/>
<path d="M65.625 38.4375C65.1075 38.4375 64.6875 38.0175 64.6875 37.5V32.8125C64.6875 32.295 65.1075 31.875 65.625 31.875C66.1425 31.875 66.5625 32.295 66.5625 32.8125V37.5C66.5625 38.0175 66.1425 38.4375 65.625 38.4375Z" fill="#051326"/>
<path d="M57.1875 38.4375C56.67 38.4375 56.25 38.0175 56.25 37.5V32.8125C56.25 32.295 56.67 31.875 57.1875 31.875C57.705 31.875 58.125 32.295 58.125 32.8125V37.5C58.125 38.0175 57.705 38.4375 57.1875 38.4375Z" fill="#051326"/>
<path d="M2.8125 59.0625H0.9375C0.42 59.0625 0 58.6425 0 58.125C0 57.6075 0.42 57.1875 0.9375 57.1875H2.8125C3.33 57.1875 3.75 57.6075 3.75 58.125C3.75 58.6425 3.33 59.0625 2.8125 59.0625Z" fill="#051326"/>
<path d="M20.625 59.0625H6.5625C6.045 59.0625 5.625 58.6425 5.625 58.125C5.625 57.6075 6.045 57.1875 6.5625 57.1875H20.625C21.1425 57.1875 21.5625 57.6075 21.5625 58.125C21.5625 58.6425 21.1425 59.0625 20.625 59.0625Z" fill="#051326"/>
<path d="M1.6856 72.2231C1.3181 72.2231 0.969347 72.0056 0.819347 71.6437C0.622472 71.1656 0.849347 70.6162 1.32747 70.4194L3.05997 69.7012C3.53435 69.5044 4.08747 69.7312 4.28435 70.2094C4.48122 70.6875 4.25435 71.2369 3.77622 71.4337L2.0456 72.15C1.92747 72.2006 1.8056 72.2231 1.6856 72.2231Z" fill="#051326"/>
<path d="M6.88311 70.0687C6.51561 70.0687 6.16686 69.8512 6.01686 69.4894C5.81998 69.0112 6.04686 68.4619 6.52498 68.265L19.5169 62.8837C19.995 62.685 20.5444 62.9137 20.7412 63.3919C20.9381 63.87 20.7112 64.4194 20.2331 64.6162L7.24123 69.9975C7.12498 70.0462 7.00311 70.0687 6.88311 70.0687Z" fill="#051326"/>
<path d="M3.4181 46.62C3.2981 46.62 3.17622 46.5975 3.05997 46.5488L1.32747 45.8306C0.849347 45.6338 0.622472 45.0844 0.819347 44.6063C1.01622 44.1281 1.56935 43.8994 2.04372 44.0981L3.77622 44.8163C4.25435 45.0131 4.48122 45.5625 4.28435 46.0406C4.13622 46.4025 3.7856 46.62 3.4181 46.62Z" fill="#051326"/>
<path d="M19.875 53.4375C19.755 53.4375 19.6331 53.415 19.5169 53.3663L6.52498 47.985C6.04686 47.7881 5.81998 47.2388 6.01686 46.7606C6.21373 46.2825 6.76311 46.0538 7.24123 46.2525L20.2331 51.6338C20.7112 51.8306 20.9381 52.38 20.7412 52.8581C20.5912 53.22 20.2425 53.4375 19.875 53.4375Z" fill="#051326"/>
<path d="M104.062 53.4375H90.9375C89.3869 53.4375 88.125 52.1756 88.125 50.625V48.75C88.125 47.1994 89.3869 45.9375 90.9375 45.9375H104.062C105.613 45.9375 106.875 47.1994 106.875 48.75V50.625C106.875 52.1756 105.613 53.4375 104.062 53.4375ZM90.9375 47.8125C90.42 47.8125 90 48.2344 90 48.75V50.625C90 51.1406 90.42 51.5625 90.9375 51.5625H104.062C104.58 51.5625 105 51.1406 105 50.625V48.75C105 48.2344 104.58 47.8125 104.062 47.8125H90.9375Z" fill="#051326"/>
<path d="M94.6875 120H38.4375C37.92 120 37.5 119.58 37.5 119.062C37.5 118.545 37.92 118.125 38.4375 118.125H94.6875C96.7556 118.125 98.4375 116.443 98.4375 114.375V110.625C98.4375 110.108 98.8575 109.688 99.375 109.688C99.8925 109.688 100.312 110.108 100.312 110.625V114.375C100.312 117.476 97.7887 120 94.6875 120Z" fill="#051326"/>
<path d="M67.5 32.8125H55.3125C50.1356 32.8125 45.9375 28.6144 45.9375 23.4375V12.1875H76.875V23.4375C76.875 28.6144 72.6769 32.8125 67.5 32.8125Z" fill="#FF1616"/>
<path d="M67.5 33.75H55.3125C49.6256 33.75 45 29.1225 45 23.4375V12.1875C45 11.67 45.42 11.25 45.9375 11.25H76.875C77.3925 11.25 77.8125 11.67 77.8125 12.1875V23.4375C77.8125 29.1225 73.1869 33.75 67.5 33.75ZM46.875 13.125V23.4375C46.875 28.0894 50.6606 31.875 55.3125 31.875H67.5C72.1519 31.875 75.9375 28.0894 75.9375 23.4375V13.125H46.875Z" fill="#051326"/>
<path d="M75.9281 92.8125H67.4887C66.5906 92.8125 65.7674 92.3981 65.2312 91.68C64.6949 90.9581 64.5356 90.0525 64.7943 89.1937L66.8437 82.3631V78.75C66.8437 78.2325 67.2637 77.8125 67.7812 77.8125C68.2987 77.8125 68.7187 78.2325 68.7187 78.75V82.5C68.7187 82.5919 68.7056 82.6819 68.6793 82.77L66.5906 89.7319C66.5043 90.0187 66.5568 90.3206 66.7349 90.5606C66.9131 90.8006 67.1887 90.9375 67.4868 90.9375H75.9262C76.4437 90.9375 76.8637 91.3575 76.8637 91.875C76.8637 92.3925 76.4456 92.8125 75.9281 92.8125Z" fill="#051326"/>
<path d="M66.5625 28.125C66.045 28.125 65.625 27.705 65.625 27.1875C65.625 26.67 66.045 26.25 66.5625 26.25C68.6306 26.25 70.3125 24.5681 70.3125 22.5V17.8125C70.3125 17.295 70.7325 16.875 71.25 16.875C71.7675 16.875 72.1875 17.295 72.1875 17.8125V22.5C72.1875 25.6012 69.6638 28.125 66.5625 28.125Z" fill="#051326"/>
<path d="M29.0625 64.6875C28.545 64.6875 28.125 64.2675 28.125 63.75V52.5C28.125 51.9825 28.545 51.5625 29.0625 51.5625C29.58 51.5625 30 51.9825 30 52.5V63.75C30 64.2675 29.58 64.6875 29.0625 64.6875Z" fill="#051326"/>
<path d="M110.625 14.0625C110.108 14.0625 109.688 13.6425 109.688 13.125V5.625C109.688 5.1075 110.108 4.6875 110.625 4.6875C111.143 4.6875 111.562 5.1075 111.562 5.625V13.125C111.562 13.6425 111.143 14.0625 110.625 14.0625Z" fill="#051326"/>
<path d="M114.375 10.3125H106.875C106.358 10.3125 105.938 9.8925 105.938 9.375C105.938 8.8575 106.358 8.4375 106.875 8.4375H114.375C114.892 8.4375 115.312 8.8575 115.312 9.375C115.312 9.8925 114.892 10.3125 114.375 10.3125Z" fill="#051326"/>
<path d="M95.625 25.3125C95.1075 25.3125 94.6875 24.8925 94.6875 24.375V16.875C94.6875 16.3575 95.1075 15.9375 95.625 15.9375C96.1425 15.9375 96.5625 16.3575 96.5625 16.875V24.375C96.5625 24.8925 96.1425 25.3125 95.625 25.3125Z" fill="#051326"/>
<path d="M99.375 21.5625H91.875C91.3575 21.5625 90.9375 21.1425 90.9375 20.625C90.9375 20.1075 91.3575 19.6875 91.875 19.6875H99.375C99.8925 19.6875 100.312 20.1075 100.312 20.625C100.312 21.1425 99.8925 21.5625 99.375 21.5625Z" fill="#051326"/>
</g>
<defs>
<clipPath id="clip0_1974_2635">
<rect width="120" height="120" fill="white"/>
</clipPath>
</defs>
</svg>
