<svg width="306" height="30" viewBox="0 0 306 30" fill="none" xmlns="http://www.w3.org/2000/svg">
<path d="M291.721 10.4721C290.733 10.5488 290.341 10.4547 289.944 10.5388C272.485 14.5074 253.88 17.0353 235.465 19.833C216.456 22.7123 197.447 25.5916 177.674 27.4808C166.605 28.4104 155.538 29.2509 144.303 28.9306C140.953 28.7991 137.409 28.576 134.071 27.9989C127.392 26.9339 124.7 24.2258 127.341 21.2286C128.359 19.9935 129.966 18.8551 131.965 17.8107C134.966 16.1551 138.357 14.6827 141.553 13.1186C143.151 12.3366 144.749 11.5546 146.152 10.681C148.761 8.93128 148.009 7.49559 144.292 6.2898C140.575 5.08402 136.249 4.58362 131.916 4.35053C125.61 4.09251 119.681 4.55233 113.746 5.27947C100.686 6.89701 88.2 9.2349 76.6792 12.3872C71.9127 13.664 13.1484 27.8516 8.38415 29.0393C6.79531 29.4648 4.81668 29.7072 3.0398 29.7739C2.05162 29.8505 0.288454 29.3825 0.100418 29.0236C-0.282511 28.5731 0.52448 27.8702 0.932545 27.3406C1.13429 27.1648 1.72811 27.0832 2.12475 26.9991C9.47744 24.8637 71.0296 9.64167 78.9715 7.60285C92.2761 4.11655 106.544 1.53379 121.96 0.30261C129.272 -0.228861 136.567 -0.136583 143.436 1.19821C146.578 1.77276 149.712 2.61463 152.25 3.62724C158.106 6.01885 159.202 9.41989 155.181 12.3997C153.17 13.8896 150.376 15.1912 147.778 16.4954C144.777 18.1511 141.581 19.7151 138.582 21.2816C137.782 21.7172 137.369 22.425 136.764 22.9522C138.713 23.8682 141.084 23.7199 143.25 23.8365C155.276 24.0777 167.129 23.3363 178.804 21.8795C202.944 18.8868 226.892 15.7134 250.837 12.6291C260.139 11.4097 269.438 10.2794 279.531 8.9809C278.157 8.69612 277.373 8.50793 276.392 8.31725C272.659 7.73521 268.924 7.24229 265.194 6.57115C263.623 6.28388 262.055 5.9075 260.688 5.35539C259.125 4.8008 258.556 3.90224 259.757 3.20435C260.56 2.67968 262.146 2.3432 263.531 2.18244C264.916 2.02169 266.292 2.21736 267.667 2.41303C278.48 3.79771 289.295 5.09328 300.106 6.56706C305.608 7.34975 307.53 9.33506 304.71 11.6169C303.298 12.847 301.294 14.0695 298.905 14.9307C290.534 18.3011 281.772 21.5775 273.011 24.7647C271.418 25.3685 269.235 25.8757 267.254 26.2072C264.879 26.5337 263.32 25.8009 264.528 24.8357C266.14 23.519 267.951 22.1157 270.347 20.9873C275.739 18.3814 281.324 15.9562 286.714 13.4394C288.113 12.744 289.509 12.1377 290.907 11.4423C290.914 11.175 291.118 10.9102 291.721 10.4721Z" fill="#FF1616"/>
</svg>
