<svg width="120" height="120" viewBox="0 0 120 120" fill="none" xmlns="http://www.w3.org/2000/svg">
<path d="M48.75 91.4062C48.2325 91.4062 47.8125 91.8263 47.8125 92.3438V98.9062C47.8125 99.4237 48.2325 99.8438 48.75 99.8438C49.2675 99.8438 49.6875 99.4237 49.6875 98.9062V92.3438C49.6875 91.8263 49.2675 91.4062 48.75 91.4062Z" fill="#051326"/>
<path d="M71.25 91.4062C70.7325 91.4062 70.3125 91.8263 70.3125 92.3438V98.9062C70.3125 99.4237 70.7325 99.8438 71.25 99.8438C71.7675 99.8438 72.1875 99.4237 72.1875 98.9062V92.3438C72.1875 91.8263 71.7675 91.4062 71.25 91.4062Z" fill="#051326"/>
<path d="M78.75 101.719H41.25C39.6994 101.719 38.4375 102.981 38.4375 104.531V108.281C38.4375 109.832 39.6994 111.094 41.25 111.094H78.75C80.3006 111.094 81.5625 109.832 81.5625 108.281V104.531C81.5625 102.981 80.3006 101.719 78.75 101.719ZM79.6875 108.281C79.6875 108.799 79.2656 109.219 78.75 109.219H41.25C40.7344 109.219 40.3125 108.799 40.3125 108.281V104.531C40.3125 104.014 40.7344 103.594 41.25 103.594H78.75C79.2656 103.594 79.6875 104.014 79.6875 104.531V108.281Z" fill="#051326"/>
<path d="M91.875 23.9062H73.125V29.5312H91.875V23.9062Z" fill="#FF1616"/>
<path d="M91.875 22.9688H73.125C72.6075 22.9688 72.1875 23.3888 72.1875 23.9062V29.5312C72.1875 30.0487 72.6075 30.4688 73.125 30.4688H91.875C92.3925 30.4688 92.8125 30.0487 92.8125 29.5312V23.9062C92.8125 23.3888 92.3925 22.9688 91.875 22.9688ZM90.9375 28.5938H74.0625V24.8438H90.9375V28.5938Z" fill="#051326"/>
<path d="M91.875 33.2812H73.125V38.9062H91.875V33.2812Z" fill="#FF1616"/>
<path d="M91.875 32.3438H73.125C72.6075 32.3438 72.1875 32.7638 72.1875 33.2812V38.9062C72.1875 39.4237 72.6075 39.8438 73.125 39.8438H91.875C92.3925 39.8438 92.8125 39.4237 92.8125 38.9062V33.2812C92.8125 32.7638 92.3925 32.3438 91.875 32.3438ZM90.9375 37.9688H74.0625V34.2188H90.9375V37.9688Z" fill="#051326"/>
<path d="M105 8.90625H15C9.315 8.90625 4.6875 13.5319 4.6875 19.2188V79.2188C4.6875 84.9056 9.315 89.5312 15 89.5312H105C110.685 89.5312 115.312 84.9056 115.312 79.2188V19.2188C115.312 13.5319 110.685 8.90625 105 8.90625ZM113.438 79.2188C113.438 83.8706 109.652 87.6562 105 87.6562H15C10.3481 87.6562 6.5625 83.8706 6.5625 79.2188V19.2188C6.5625 14.5669 10.3481 10.7812 15 10.7812H105C109.652 10.7812 113.438 14.5669 113.438 19.2188V79.2188Z" fill="#051326"/>
<path d="M104.062 14.5312H90C89.4825 14.5312 89.0625 14.9513 89.0625 15.4688C89.0625 15.9863 89.4825 16.4062 90 16.4062H104.062C106.131 16.4062 107.812 18.0881 107.812 20.1562V34.2188C107.812 34.7362 108.233 35.1562 108.75 35.1562C109.267 35.1562 109.688 34.7362 109.688 34.2188V20.1562C109.688 17.055 107.164 14.5312 104.062 14.5312Z" fill="#051326"/>
<path d="M114.375 76.4062H5.625C5.1075 76.4062 4.6875 76.8263 4.6875 77.3438C4.6875 77.8613 5.1075 78.2812 5.625 78.2812H114.375C114.893 78.2812 115.312 77.8613 115.312 77.3438C115.312 76.8263 114.893 76.4062 114.375 76.4062Z" fill="#051326"/>
<path d="M38.3456 52.0312C31.11 52.0312 25.2206 57.9188 25.2206 65.1562C25.2206 72.3937 31.11 78.2812 38.3456 78.2812C45.5812 78.2812 51.4706 72.3937 51.4706 65.1562C51.4706 57.9188 45.5831 52.0312 38.3456 52.0312ZM38.3456 76.4062C32.1412 76.4062 27.0956 71.3606 27.0956 65.1562C27.0956 58.9519 32.1412 53.9062 38.3456 53.9062C44.55 53.9062 49.5956 58.9519 49.5956 65.1562C49.5956 71.3606 44.55 76.4062 38.3456 76.4062Z" fill="#051326"/>
<path d="M61.1288 56.2875L60.7125 56.0812L59.5556 50.5594C58.6819 46.4025 55.4137 43.245 51.2306 42.5175L36.1688 39.9L14.5612 22.4475C12.735 20.97 10.4325 20.1562 8.08125 20.1562H5.625C5.1075 20.1562 4.6875 20.5762 4.6875 21.0937V69.8437C4.6875 70.3612 5.1075 70.7812 5.625 70.7812H23.1112C23.6287 70.7812 24.0487 70.3612 24.0487 69.8437C24.0487 69.3262 23.6287 68.9062 23.1112 68.9062H6.5625V22.0312H8.08125C10.005 22.0312 11.8875 22.6969 13.3819 23.9062L35.1806 41.5125C35.3044 41.6119 35.4544 41.6794 35.61 41.7075L50.9081 44.3681C54.3319 44.9625 57.0075 47.5462 57.7219 50.9475L58.9725 56.9137C59.0306 57.195 59.2163 57.4331 59.4731 57.5606L60.2944 57.9694C61.56 58.5994 62.1769 60.0844 61.7306 61.425L59.235 68.91H53.5819C53.0644 68.91 52.6444 69.33 52.6444 69.8475C52.6444 70.365 53.0644 70.785 53.5819 70.785H59.91C60.3131 70.785 60.6712 70.5262 60.8006 70.1437L63.51 62.0194C64.2488 59.7937 63.225 57.3319 61.1288 56.2875Z" fill="#051326"/>
<path d="M38.3456 57.6562C34.2093 57.6562 30.8456 61.02 30.8456 65.1562C30.8456 69.2925 34.2093 72.6562 38.3456 72.6562C42.4818 72.6562 45.8456 69.2925 45.8456 65.1562C45.8456 61.02 42.4818 57.6562 38.3456 57.6562ZM38.3456 70.7812C35.2443 70.7812 32.7206 68.2575 32.7206 65.1562C32.7206 62.055 35.2443 59.5312 38.3456 59.5312C41.4468 59.5312 43.9706 62.055 43.9706 65.1562C43.9706 68.2575 41.4468 70.7812 38.3456 70.7812Z" fill="#051326"/>
<path d="M59.5556 50.5612C59.4413 50.0212 59.2725 49.47 59.0363 48.8737C58.8938 48.5175 58.5488 48.2831 58.1644 48.2831H53.9756C52.995 48.2831 52.1006 48.7818 51.585 49.6162C51.0694 50.4506 51.0206 51.4743 51.4613 52.3537L53.8538 57.1406C54.0131 57.4575 54.3375 57.6581 54.6919 57.6581H59.8894C60.1706 57.6581 60.4388 57.5306 60.6169 57.3112C60.7969 57.0918 60.8663 56.8031 60.8081 56.5275L59.5556 50.5612ZM55.2694 55.7812L53.1356 51.5137C52.9256 51.09 53.0963 50.7337 53.1769 50.6006C53.2575 50.4675 53.5031 50.1562 53.9738 50.1562H57.5063C57.5963 50.43 57.6675 50.6906 57.72 50.9456L58.7344 55.7812H55.2694Z" fill="#051326"/>
<path d="M36.36 40.0519L17.7881 25.0519C17.6213 24.9169 17.4131 24.8438 17.1994 24.8438H5.625C5.1075 24.8438 4.6875 25.2638 4.6875 25.7812V40.7812C4.6875 41.2987 5.1075 41.7188 5.625 41.7188H35.7694C36.1669 41.7188 36.5194 41.4675 36.6544 41.0944C36.7856 40.7194 36.6694 40.3013 36.36 40.0519ZM6.5625 39.8438V26.7188H16.8656L33.1163 39.8438H6.5625Z" fill="#051326"/>
<path d="M101.25 47.3438H75C73.965 47.3438 73.125 48.1838 73.125 49.2188V67.9688C73.125 69.0037 73.965 69.8438 75 69.8438H101.25C102.285 69.8438 103.125 69.0037 103.125 67.9688V49.2188C103.125 48.1838 102.285 47.3438 101.25 47.3438Z" fill="#9A9CA5"/>
<path d="M101.25 46.4062H75C73.4494 46.4062 72.1875 47.6681 72.1875 49.2188V67.9688C72.1875 69.5194 73.4494 70.7812 75 70.7812H101.25C102.801 70.7812 104.062 69.5194 104.062 67.9688V49.2188C104.062 47.6681 102.801 46.4062 101.25 46.4062ZM102.188 67.9688C102.188 68.4862 101.766 68.9062 101.25 68.9062H75C74.4844 68.9062 74.0625 68.4862 74.0625 67.9688V49.2188C74.0625 48.7013 74.4844 48.2812 75 48.2812H101.25C101.766 48.2812 102.188 48.7013 102.188 49.2188V67.9688Z" fill="#051326"/>
<path d="M98.5781 52.7269C98.19 52.3913 97.5975 52.4344 97.2563 52.8282L92.2913 58.6219L89.2575 55.5882C89.0738 55.4044 88.8188 55.2919 88.5638 55.3144C88.3031 55.3219 88.0594 55.4382 87.8906 55.6332L81.9881 62.3794L78.9469 59.3382C78.5813 58.9725 77.9869 58.9725 77.6213 59.3382C77.2556 59.7038 77.2556 60.2982 77.6213 60.6638L81.3713 64.4138C81.5475 64.59 81.7856 64.6875 82.035 64.6875C82.0463 64.6875 82.0556 64.6875 82.0669 64.6875C82.3275 64.68 82.5713 64.5638 82.74 64.3688L88.6425 57.6225L91.6838 60.6638C91.8694 60.8494 92.1225 60.9563 92.3831 60.9375C92.6438 60.9282 92.8894 60.81 93.0581 60.6113L98.6831 54.0488C99.0188 53.655 98.9719 53.0625 98.5781 52.7269Z" fill="#051326"/>
<path d="M5.625 100.312H3.75C3.2325 100.312 2.8125 100.733 2.8125 101.25C2.8125 101.768 3.2325 102.188 3.75 102.188H5.625C6.1425 102.188 6.5625 101.768 6.5625 101.25C6.5625 100.733 6.1425 100.312 5.625 100.312Z" fill="#051326"/>
<path d="M28.125 100.312H9.375C8.8575 100.312 8.4375 100.733 8.4375 101.25C8.4375 101.768 8.8575 102.188 9.375 102.188H28.125C28.6425 102.188 29.0625 101.768 29.0625 101.25C29.0625 100.733 28.6425 100.312 28.125 100.312Z" fill="#051326"/>
<path d="M116.25 100.312H114.375C113.858 100.312 113.438 100.733 113.438 101.25C113.438 101.768 113.858 102.188 114.375 102.188H116.25C116.767 102.188 117.188 101.768 117.188 101.25C117.188 100.733 116.767 100.312 116.25 100.312Z" fill="#051326"/>
<path d="M110.625 100.312H91.875C91.3575 100.312 90.9375 100.733 90.9375 101.25C90.9375 101.768 91.3575 102.188 91.875 102.188H110.625C111.142 102.188 111.562 101.768 111.562 101.25C111.562 100.733 111.142 100.312 110.625 100.312Z" fill="#051326"/>
<path d="M67.5 25.7812H52.5C52.1775 25.7812 51.8794 25.9462 51.7069 26.2181L40.4569 44.0306C40.1812 44.4675 40.3125 45.0469 40.7494 45.3244C40.9031 45.4219 41.0775 45.4688 41.25 45.4688C41.5594 45.4688 41.8631 45.3131 42.0431 45.0319L53.0175 27.6562H67.5C68.0175 27.6562 68.4375 27.2363 68.4375 26.7188C68.4375 26.2013 68.0175 25.7812 67.5 25.7812Z" fill="#051326"/>
<path d="M67.5 35.1562H52.5C52.1868 35.1562 51.8943 35.3119 51.72 35.5744L40.47 52.4494C40.1831 52.8806 40.2993 53.4619 40.7306 53.7488C40.89 53.8556 41.0718 53.9062 41.25 53.9062C41.5518 53.9062 41.8481 53.76 42.03 53.4881L53.0025 37.0312H67.5C68.0175 37.0312 68.4375 36.6113 68.4375 36.0938C68.4375 35.5763 68.0175 35.1562 67.5 35.1562Z" fill="#051326"/>
</svg>
