<svg width="120" height="120" viewBox="0 0 120 120" fill="none" xmlns="http://www.w3.org/2000/svg">
<path d="M58.125 107.811H43.125C42.6075 107.811 42.1875 107.391 42.1875 106.873C42.1875 106.356 42.6075 105.936 43.125 105.936H58.125C58.6425 105.936 59.0625 106.356 59.0625 106.873C59.0625 107.391 58.6425 107.811 58.125 107.811Z" fill="#051326"/>
<path d="M79.6875 107.811H65.625C65.1075 107.811 64.6875 107.391 64.6875 106.873C64.6875 106.356 65.1075 105.936 65.625 105.936H79.6875C81.7556 105.936 83.4375 104.254 83.4375 102.186V10.3107C83.4375 8.24254 81.7556 6.56067 79.6875 6.56067H21.5625C19.4944 6.56067 17.8125 8.24254 17.8125 10.3107V102.186C17.8125 104.254 19.4944 105.936 21.5625 105.936H35.625C36.1425 105.936 36.5625 106.356 36.5625 106.873C36.5625 107.391 36.1425 107.811 35.625 107.811H21.5625C18.4612 107.811 15.9375 105.287 15.9375 102.186V10.3107C15.9375 7.20942 18.4612 4.68567 21.5625 4.68567H79.6875C82.7887 4.68567 85.3125 7.20942 85.3125 10.3107V102.186C85.3125 105.287 82.7887 107.811 79.6875 107.811Z" fill="#051326"/>
<path d="M75 37.4982H26.25C25.215 37.4982 24.375 36.6582 24.375 35.6232V14.9982C24.375 13.9632 25.215 13.1232 26.25 13.1232H75C76.035 13.1232 76.875 13.9632 76.875 14.9982V35.6232C76.875 36.6582 76.035 37.4982 75 37.4982Z" fill="#9A9CA5"/>
<path d="M75 38.4357H26.25C24.6994 38.4357 23.4375 37.1738 23.4375 35.6232V14.9982C23.4375 13.4475 24.6994 12.1857 26.25 12.1857H75C76.5506 12.1857 77.8125 13.4475 77.8125 14.9982V35.6232C77.8125 37.1738 76.5506 38.4357 75 38.4357ZM26.25 14.0607C25.7325 14.0607 25.3125 14.4825 25.3125 14.9982V35.6232C25.3125 36.1388 25.7325 36.5607 26.25 36.5607H75C75.5156 36.5607 75.9375 36.1388 75.9375 35.6232V14.9982C75.9375 14.4825 75.5156 14.0607 75 14.0607H26.25Z" fill="#051326"/>
<path d="M50.625 83.4357C40.8038 83.4357 32.8125 75.4444 32.8125 65.6232C32.8125 55.8019 40.8038 47.8107 50.625 47.8107C60.4462 47.8107 68.4375 55.8019 68.4375 65.6232C68.4375 75.4444 60.4462 83.4357 50.625 83.4357ZM50.625 49.6857C41.8369 49.6857 34.6875 56.835 34.6875 65.6232C34.6875 74.4113 41.8369 81.5607 50.625 81.5607C59.4131 81.5607 66.5625 74.4113 66.5625 65.6232C66.5625 56.835 59.4131 49.6857 50.625 49.6857Z" fill="#051326"/>
<path d="M45.3203 76.3895C44.6003 76.3895 43.8803 76.1157 43.3309 75.5682L40.6778 72.917C39.5828 71.8201 39.5828 70.0351 40.6778 68.9382L53.9378 55.682C55.0347 54.587 56.8178 54.587 57.9147 55.682L60.5678 58.3332C61.6628 59.4301 61.6628 61.2132 60.5678 62.3101L47.3097 75.5682C46.7603 76.1157 46.0422 76.3895 45.3203 76.3895ZM55.9272 56.732C55.6872 56.732 55.4472 56.8238 55.2634 57.0057L42.0053 70.262C41.6397 70.6276 41.6397 71.2238 42.0053 71.5895L44.6566 74.2407C45.0222 74.6063 45.6166 74.6063 45.9822 74.2407L59.2403 60.9826C59.6059 60.617 59.6059 60.0226 59.2403 59.657L56.5891 57.0057C56.4072 56.8238 56.1672 56.732 55.9272 56.732ZM59.9059 61.6463H59.9247H59.9059Z" fill="#051326"/>
<path d="M33.75 32.8107C33.2325 32.8107 32.8125 32.3907 32.8125 31.8732V20.6232C32.8125 20.1057 33.2325 19.6857 33.75 19.6857C34.2675 19.6857 34.6875 20.1057 34.6875 20.6232V31.8732C34.6875 32.3907 34.2675 32.8107 33.75 32.8107Z" fill="#051326"/>
<path d="M39.375 32.8107C38.8575 32.8107 38.4375 32.3907 38.4375 31.8732V24.3732C38.4375 23.8557 38.8575 23.4357 39.375 23.4357C39.8925 23.4357 40.3125 23.8557 40.3125 24.3732V31.8732C40.3125 32.3907 39.8925 32.8107 39.375 32.8107Z" fill="#051326"/>
<path d="M45.9375 32.8107C45.42 32.8107 45 32.3907 45 31.8732V24.3732C45 23.8557 45.42 23.4357 45.9375 23.4357C46.455 23.4357 46.875 23.8557 46.875 24.3732V31.8732C46.875 32.3907 46.455 32.8107 45.9375 32.8107Z" fill="#051326"/>
<path d="M71.3269 23.4357H56.3269C55.8094 23.4357 55.3894 23.0157 55.3894 22.4982V18.7482C55.3894 18.2307 55.8094 17.8107 56.3269 17.8107H71.3269C71.8444 17.8107 72.2644 18.2307 72.2644 18.7482V22.4982C72.2644 23.0157 71.8444 23.4357 71.3269 23.4357ZM57.2663 21.5607H70.3913V19.6857H57.2663V21.5607Z" fill="#051326"/>
<path d="M71.3269 32.8107H56.3269C55.8094 32.8107 55.3894 32.3907 55.3894 31.8732V28.1232C55.3894 27.6057 55.8094 27.1857 56.3269 27.1857H71.3269C71.8444 27.1857 72.2644 27.6057 72.2644 28.1232V31.8732C72.2644 32.3907 71.8444 32.8107 71.3269 32.8107ZM57.2663 30.9357H70.3913V29.0607H57.2663V30.9357Z" fill="#051326"/>
<path d="M50.625 45.9357C50.1075 45.9357 49.6875 45.5157 49.6875 44.9982V43.1232C49.6875 42.6057 50.1075 42.1857 50.625 42.1857C51.1425 42.1857 51.5625 42.6057 51.5625 43.1232V44.9982C51.5625 45.5157 51.1425 45.9357 50.625 45.9357Z" fill="#051326"/>
<path d="M50.625 89.0607C50.1075 89.0607 49.6875 88.6407 49.6875 88.1232V86.2482C49.6875 85.7307 50.1075 85.3107 50.625 85.3107C51.1425 85.3107 51.5625 85.7307 51.5625 86.2482V88.1232C51.5625 88.6407 51.1425 89.0607 50.625 89.0607Z" fill="#051326"/>
<path d="M73.125 66.5607H71.25C70.7325 66.5607 70.3125 66.1407 70.3125 65.6232C70.3125 65.1057 70.7325 64.6857 71.25 64.6857H73.125C73.6425 64.6857 74.0625 65.1057 74.0625 65.6232C74.0625 66.1407 73.6425 66.5607 73.125 66.5607Z" fill="#051326"/>
<path d="M30 66.5607H28.125C27.6075 66.5607 27.1875 66.1407 27.1875 65.6232C27.1875 65.1057 27.6075 64.6857 28.125 64.6857H30C30.5175 64.6857 30.9375 65.1057 30.9375 65.6232C30.9375 66.1407 30.5175 66.5607 30 66.5607Z" fill="#051326"/>
<path d="M66.5346 82.4702C66.2946 82.4702 66.0546 82.3783 65.8708 82.1965L64.5452 80.8708C64.1796 80.5052 64.1796 79.9108 64.5452 79.5452C64.9108 79.1796 65.5052 79.1796 65.8708 79.5452L67.1965 80.8708C67.5621 81.2365 67.5621 81.8308 67.1965 82.1965C67.0146 82.3802 66.7746 82.4702 66.5346 82.4702Z" fill="#051326"/>
<path d="M36.0411 51.9772C35.8011 51.9772 35.5611 51.8853 35.3773 51.7034L34.0517 50.3778C33.6861 50.0122 33.6861 49.4178 34.0517 49.0522C34.4173 48.6865 35.0117 48.6865 35.3773 49.0522L36.7029 50.3778C37.0686 50.7434 37.0686 51.3378 36.7029 51.7034C36.5211 51.8853 36.2811 51.9772 36.0411 51.9772Z" fill="#051326"/>
<path d="M34.7154 82.4702C34.4754 82.4702 34.2354 82.3783 34.0517 82.1965C33.6861 81.8308 33.6861 81.2365 34.0517 80.8708L35.3773 79.5452C35.7429 79.1796 36.3373 79.1796 36.7029 79.5452C37.0686 79.9108 37.0686 80.5052 36.7029 80.8708L35.3773 82.1965C35.1954 82.3802 34.9554 82.4702 34.7154 82.4702Z" fill="#051326"/>
<path d="M65.209 51.9772C64.969 51.9772 64.729 51.8853 64.5452 51.7034C64.1796 51.3378 64.1796 50.7434 64.5452 50.3778L65.8708 49.0522C66.2365 48.6865 66.8308 48.6865 67.1965 49.0522C67.5621 49.4178 67.5621 50.0122 67.1965 50.3778L65.8708 51.7034C65.689 51.8853 65.449 51.9772 65.209 51.9772Z" fill="#051326"/>
<path d="M39.375 101.248C36.7912 101.248 34.6875 99.1463 34.6875 96.5607C34.6875 93.975 36.7912 91.8732 39.375 91.8732C41.9588 91.8732 44.0625 93.975 44.0625 96.5607C44.0625 99.1463 41.9588 101.248 39.375 101.248ZM39.375 93.7482C37.8244 93.7482 36.5625 95.01 36.5625 96.5607C36.5625 98.1113 37.8244 99.3732 39.375 99.3732C40.9256 99.3732 42.1875 98.1113 42.1875 96.5607C42.1875 95.01 40.9256 93.7482 39.375 93.7482Z" fill="#051326"/>
<path d="M61.875 101.248C59.2912 101.248 57.1875 99.1463 57.1875 96.5607C57.1875 93.975 59.2912 91.8732 61.875 91.8732C64.4606 91.8732 66.5625 93.975 66.5625 96.5607C66.5625 99.1463 64.4606 101.248 61.875 101.248ZM61.875 93.7482C60.3244 93.7482 59.0625 95.01 59.0625 96.5607C59.0625 98.1113 60.3244 99.3732 61.875 99.3732C63.4256 99.3732 64.6875 98.1113 64.6875 96.5607C64.6875 95.01 63.4256 93.7482 61.875 93.7482Z" fill="#051326"/>
<path d="M90.9375 119.061H44.0625C40.9612 119.061 38.4375 116.537 38.4375 113.436V100.311C38.4375 99.7932 38.8575 99.3732 39.375 99.3732C39.8925 99.3732 40.3125 99.7932 40.3125 100.311V113.436C40.3125 115.504 41.9944 117.186 44.0625 117.186H90.9375C93.0056 117.186 94.6875 115.504 94.6875 113.436V78.7482C94.6875 78.2307 95.1075 77.8107 95.625 77.8107C96.1425 77.8107 96.5625 78.2307 96.5625 78.7482V113.436C96.5625 116.537 94.0387 119.061 90.9375 119.061Z" fill="#051326"/>
<path d="M97.5 74.9982H93.75C92.715 74.9982 91.875 74.1582 91.875 73.1232V52.4982H99.375V73.1232C99.375 74.1582 98.535 74.9982 97.5 74.9982Z" fill="#FF1616"/>
<path d="M97.5 75.9357H93.75C92.1994 75.9357 90.9375 74.6738 90.9375 73.1232V52.4982C90.9375 51.9807 91.3575 51.5607 91.875 51.5607H99.375C99.8925 51.5607 100.312 51.9807 100.312 52.4982V73.1232C100.312 74.6738 99.0506 75.9357 97.5 75.9357ZM92.8125 53.4357V73.1232C92.8125 73.6388 93.2344 74.0607 93.75 74.0607H97.5C98.0156 74.0607 98.4375 73.6388 98.4375 73.1232V53.4357H92.8125Z" fill="#051326"/>
<path d="M95.625 53.4357C95.1075 53.4357 94.6875 53.0157 94.6875 52.4982V40.3107C94.6875 39.7932 95.1075 39.3732 95.625 39.3732C96.1425 39.3732 96.5625 39.7932 96.5625 40.3107V52.4982C96.5625 53.0157 96.1425 53.4357 95.625 53.4357Z" fill="#051326"/>
<path d="M99.375 70.3107H91.875C91.3575 70.3107 90.9375 69.8907 90.9375 69.3732C90.9375 68.8557 91.3575 68.4357 91.875 68.4357H99.375C99.8925 68.4357 100.312 68.8557 100.312 69.3732C100.312 69.8907 99.8925 70.3107 99.375 70.3107Z" fill="#051326"/>
<path d="M105.938 113.436H66.5625C63.4612 113.436 60.9375 110.912 60.9375 107.811V100.311C60.9375 99.7932 61.3575 99.3732 61.875 99.3732C62.3925 99.3732 62.8125 99.7932 62.8125 100.311V107.811C62.8125 109.879 64.4944 111.561 66.5625 111.561H105.938C108.006 111.561 109.688 109.879 109.688 107.811V74.0607C109.688 73.5432 110.107 73.1232 110.625 73.1232C111.143 73.1232 111.562 73.5432 111.562 74.0607V107.811C111.562 110.912 109.039 113.436 105.938 113.436Z" fill="#051326"/>
<path d="M112.5 70.3107H108.75C107.715 70.3107 106.875 69.4707 106.875 68.4357V47.8107H114.375V68.4357C114.375 69.4707 113.535 70.3107 112.5 70.3107Z" fill="#FF1616"/>
<path d="M112.5 71.2482H108.75C107.199 71.2482 105.938 69.9863 105.938 68.4357V47.8107C105.938 47.2932 106.358 46.8732 106.875 46.8732H114.375C114.892 46.8732 115.312 47.2932 115.312 47.8107V68.4357C115.312 69.9863 114.051 71.2482 112.5 71.2482ZM107.812 48.7482V68.4357C107.812 68.9513 108.234 69.3732 108.75 69.3732H112.5C113.016 69.3732 113.438 68.9513 113.438 68.4357V48.7482H107.812Z" fill="#051326"/>
<path d="M110.625 48.7482C110.108 48.7482 109.688 48.3282 109.688 47.8107V35.6232C109.688 35.1057 110.108 34.6857 110.625 34.6857C111.143 34.6857 111.562 35.1057 111.562 35.6232V47.8107C111.562 48.3282 111.143 48.7482 110.625 48.7482Z" fill="#051326"/>
<path d="M114.375 65.6232H106.875C106.358 65.6232 105.938 65.2032 105.938 64.6857C105.938 64.1682 106.358 63.7482 106.875 63.7482H114.375C114.892 63.7482 115.312 64.1682 115.312 64.6857C115.312 65.2032 114.892 65.6232 114.375 65.6232Z" fill="#051326"/>
<path d="M112.5 10.3107C111.983 10.3107 111.562 9.89067 111.562 9.37317V1.87317C111.562 1.35567 111.983 0.935669 112.5 0.935669C113.018 0.935669 113.438 1.35567 113.438 1.87317V9.37317C113.438 9.89067 113.018 10.3107 112.5 10.3107Z" fill="#051326"/>
<path d="M116.25 6.56067H108.75C108.233 6.56067 107.812 6.14067 107.812 5.62317C107.812 5.10567 108.233 4.68567 108.75 4.68567H116.25C116.767 4.68567 117.188 5.10567 117.188 5.62317C117.188 6.14067 116.767 6.56067 116.25 6.56067Z" fill="#051326"/>
<path d="M100.312 23.4357C99.795 23.4357 99.375 23.0157 99.375 22.4982V14.9982C99.375 14.4807 99.795 14.0607 100.312 14.0607C100.83 14.0607 101.25 14.4807 101.25 14.9982V22.4982C101.25 23.0157 100.83 23.4357 100.312 23.4357Z" fill="#051326"/>
<path d="M104.062 19.6857H96.5625C96.045 19.6857 95.625 19.2657 95.625 18.7482C95.625 18.2307 96.045 17.8107 96.5625 17.8107H104.062C104.58 17.8107 105 18.2307 105 18.7482C105 19.2657 104.58 19.6857 104.062 19.6857Z" fill="#051326"/>
<path d="M5.595 113.436H3.75C3.2325 113.436 2.8125 113.016 2.8125 112.498C2.8125 111.981 3.2325 111.561 3.75 111.561H5.595C6.1125 111.561 6.5325 111.981 6.5325 112.498C6.5325 113.016 6.11437 113.436 5.595 113.436Z" fill="#051326"/>
<path d="M32.2709 113.436H9.28711C8.76961 113.436 8.34961 113.016 8.34961 112.498C8.34961 111.981 8.76961 111.561 9.28711 111.561H32.2709C32.7884 111.561 33.2084 111.981 33.2084 112.498C33.2084 113.016 32.7884 113.436 32.2709 113.436Z" fill="#051326"/>
</svg>
