<svg width="120" height="120" viewBox="0 0 120 120" fill="none" xmlns="http://www.w3.org/2000/svg">
<path d="M39.375 71.25H25.3125C24.2775 71.25 23.4375 70.41 23.4375 69.375V46.875C23.4375 45.84 24.2775 45 25.3125 45H89.0625C90.0975 45 90.9375 45.84 90.9375 46.875V69.375C90.9375 70.41 90.0975 71.25 89.0625 71.25H84.375" fill="#9A9CA5"/>
<path d="M89.0625 72.1875H84.375C83.8575 72.1875 83.4375 71.7675 83.4375 71.25C83.4375 70.7325 83.8575 70.3125 84.375 70.3125H89.0625C89.58 70.3125 90 69.8925 90 69.375V46.875C90 46.3575 89.58 45.9375 89.0625 45.9375H25.3125C24.795 45.9375 24.375 46.3575 24.375 46.875V69.375C24.375 69.8925 24.795 70.3125 25.3125 70.3125H39.375C39.8925 70.3125 40.3125 70.7325 40.3125 71.25C40.3125 71.7675 39.8925 72.1875 39.375 72.1875H25.3125C23.7619 72.1875 22.5 70.9256 22.5 69.375V46.875C22.5 45.3244 23.7619 44.0625 25.3125 44.0625H89.0625C90.6131 44.0625 91.875 45.3244 91.875 46.875V69.375C91.875 70.9256 90.6131 72.1875 89.0625 72.1875Z" fill="#051326"/>
<path d="M74.9999 32.8125C74.7074 32.8125 74.4187 32.6756 74.2368 32.4206L69.8306 26.25H44.5443L40.1362 32.4206C39.8362 32.8425 39.2493 32.94 38.8293 32.6381C38.4074 32.3381 38.3099 31.7512 38.6118 31.3312L43.2993 24.7688C43.4756 24.5213 43.7587 24.375 44.0624 24.375H70.3124C70.6162 24.375 70.8993 24.5212 71.0756 24.7669L75.7631 31.3294C76.0649 31.7512 75.9656 32.3362 75.5456 32.6362C75.3806 32.7562 75.1893 32.8125 74.9999 32.8125Z" fill="#051326"/>
<path d="M64.6875 22.5C64.17 22.5 63.75 22.08 63.75 21.5625V16.875H50.625V21.5625C50.625 22.08 50.205 22.5 49.6875 22.5C49.17 22.5 48.75 22.08 48.75 21.5625V15.9375C48.75 15.42 49.17 15 49.6875 15H64.6875C65.205 15 65.625 15.42 65.625 15.9375V21.5625C65.625 22.08 65.205 22.5 64.6875 22.5Z" fill="#051326"/>
<path d="M65.625 16.875H48.75C47.1994 16.875 45.9375 15.6131 45.9375 14.0625V12.1875C45.9375 10.6369 47.1994 9.375 48.75 9.375H65.625C67.1756 9.375 68.4375 10.6369 68.4375 12.1875V14.0625C68.4375 15.6131 67.1756 16.875 65.625 16.875ZM48.75 11.25C48.2325 11.25 47.8125 11.67 47.8125 12.1875V14.0625C47.8125 14.58 48.2325 15 48.75 15H65.625C66.1425 15 66.5625 14.58 66.5625 14.0625V12.1875C66.5625 11.67 66.1425 11.25 65.625 11.25H48.75Z" fill="#051326"/>
<path d="M93.75 105H57.1875C55.9519 105 54.7969 104.392 54.0975 103.374L43.785 88.3744C43.3556 87.75 43.125 87.0094 43.125 86.25V69.375C43.125 67.305 44.805 65.625 46.875 65.625C48.945 65.625 50.625 67.305 50.625 69.375V85.0856L59.16 97.5H93.75C95.82 97.5 97.5 99.18 97.5 101.25C97.5 103.32 95.82 105 93.75 105Z" fill="#F7F7F8"/>
<path d="M93.75 105.938H57.1875C55.6444 105.938 54.2006 105.178 53.325 103.907L43.0125 88.9069C42.4725 88.1231 42.1875 87.2025 42.1875 86.25V69.375C42.1875 66.7912 44.2912 64.6875 46.875 64.6875C49.4588 64.6875 51.5625 66.7912 51.5625 69.375V84.795L59.6531 96.5625H93.75C96.3338 96.5625 98.4375 98.6662 98.4375 101.25C98.4375 103.834 96.3338 105.938 93.75 105.938ZM46.875 66.5625C45.3244 66.5625 44.0625 67.8244 44.0625 69.375V86.25C44.0625 86.8219 44.2331 87.3731 44.5575 87.8437L54.87 102.844C55.395 103.607 56.2613 104.062 57.1875 104.062H93.75C95.3006 104.062 96.5625 102.801 96.5625 101.25C96.5625 99.6994 95.3006 98.4375 93.75 98.4375H59.16C58.8506 98.4375 58.5619 98.2856 58.3875 98.0306L49.8525 85.6162C49.7456 85.4606 49.6875 85.275 49.6875 85.0856V69.375C49.6875 67.8244 48.4256 66.5625 46.875 66.5625Z" fill="#051326"/>
<path d="M95.625 94.6875H91.1325C90.615 94.6875 90.195 94.2675 90.195 93.75C90.195 93.2325 90.615 92.8125 91.1325 92.8125H95.625C97.6931 92.8125 99.375 91.1306 99.375 89.0625V40.3125C99.375 38.2444 97.6931 36.5625 95.625 36.5625H18.75C16.6819 36.5625 15 38.2444 15 40.3125V77.8125C15 79.8806 16.6819 81.5625 18.75 81.5625H29.0625C29.2331 81.5625 29.4 81.6075 29.5444 81.6956L40.4081 88.2131C40.8525 88.4794 40.995 89.055 40.7288 89.4994C40.4625 89.9438 39.8869 90.0881 39.4425 89.82L28.8019 83.4375H18.75C15.6487 83.4375 13.125 80.9137 13.125 77.8125V40.3125C13.125 37.2112 15.6487 34.6875 18.75 34.6875H95.625C98.7262 34.6875 101.25 37.2112 101.25 40.3125V89.0625C101.25 92.1637 98.7262 94.6875 95.625 94.6875Z" fill="#051326"/>
<path d="M109.688 75.9375H104.062C103.545 75.9375 103.125 75.5175 103.125 75C103.125 74.4825 103.545 74.0625 104.062 74.0625H108.75V53.4375H104.062C103.545 53.4375 103.125 53.0175 103.125 52.5C103.125 51.9825 103.545 51.5625 104.062 51.5625H109.688C110.205 51.5625 110.625 51.9825 110.625 52.5V75C110.625 75.5175 110.205 75.9375 109.688 75.9375Z" fill="#051326"/>
<path d="M109.688 87.1875C109.17 87.1875 108.75 86.7675 108.75 86.25V41.25C108.75 40.7325 109.17 40.3125 109.688 40.3125C115.374 40.3125 120 44.9381 120 50.625V76.875C120 82.5619 115.374 87.1875 109.688 87.1875ZM110.625 42.24V85.26C114.838 84.7913 118.125 81.21 118.125 76.875V50.625C118.125 46.29 114.838 42.7069 110.625 42.24Z" fill="#051326"/>
<path d="M14.0625 65.625H8.4375C7.92 65.625 7.5 65.205 7.5 64.6875V53.4375C7.5 52.92 7.92 52.5 8.4375 52.5H14.0625C14.58 52.5 15 52.92 15 53.4375V64.6875C15 65.205 14.58 65.625 14.0625 65.625ZM9.375 63.75H13.125V54.375H9.375V63.75Z" fill="#051326"/>
<path d="M8.4375 60H5.625C2.52375 60 0 57.4762 0 54.375V36.5625C0 36.045 0.42 35.625 0.9375 35.625H3.75C6.85125 35.625 9.375 38.1487 9.375 41.25V59.0625C9.375 59.58 8.955 60 8.4375 60ZM1.875 37.5V54.375C1.875 56.4431 3.55687 58.125 5.625 58.125H7.5V41.25C7.5 39.1819 5.81813 37.5 3.75 37.5H1.875Z" fill="#051326"/>
<path d="M3.75 82.5H0.9375C0.42 82.5 0 82.08 0 81.5625V63.75C0 60.6487 2.52375 58.125 5.625 58.125H8.4375C8.955 58.125 9.375 58.545 9.375 59.0625V76.875C9.375 79.9762 6.85125 82.5 3.75 82.5ZM1.875 80.625H3.75C5.81813 80.625 7.5 78.9431 7.5 76.875V60H5.625C3.55687 60 1.875 61.6819 1.875 63.75V80.625Z" fill="#051326"/>
<path d="M71.5819 93.75L65.625 85.0856V69.375C65.625 67.305 63.945 65.625 61.875 65.625C59.805 65.625 58.125 67.305 58.125 69.375V86.25C58.125 87.0094 58.3556 87.75 58.785 88.3744L62.4806 93.75" fill="#F7F7F8"/>
<path d="M62.4806 94.6875C62.1825 94.6875 61.89 94.545 61.7062 94.2806L58.0106 88.905C57.4725 88.1231 57.1875 87.2025 57.1875 86.25V69.375C57.1875 66.7912 59.2912 64.6875 61.875 64.6875C64.4587 64.6875 66.5625 66.7912 66.5625 69.375V84.795L72.3544 93.2194C72.6469 93.6469 72.54 94.23 72.1125 94.5225C71.6869 94.8169 71.1037 94.7081 70.8094 94.2806L64.8525 85.6162C64.7456 85.4606 64.6875 85.275 64.6875 85.0856V69.375C64.6875 67.8244 63.4256 66.5625 61.875 66.5625C60.3244 66.5625 59.0625 67.8244 59.0625 69.375V86.25C59.0625 86.8219 59.2331 87.3731 59.5575 87.8437L63.2531 93.2194C63.5456 93.6469 63.4387 94.23 63.0112 94.5225C62.85 94.635 62.6644 94.6875 62.4806 94.6875Z" fill="#051326"/>
<path d="M86.5819 93.75L80.625 85.0856V69.375C80.625 67.305 78.945 65.625 76.875 65.625C74.805 65.625 73.125 67.305 73.125 69.375V86.25C73.125 87.0094 73.3556 87.75 73.785 88.3744L77.4806 93.75" fill="#F7F7F8"/>
<path d="M77.4806 94.6875C77.1825 94.6875 76.89 94.545 76.7062 94.2806L73.0106 88.905C72.4725 88.1231 72.1875 87.2025 72.1875 86.25V69.375C72.1875 66.7912 74.2912 64.6875 76.875 64.6875C79.4587 64.6875 81.5625 66.7912 81.5625 69.375V84.795L87.3544 93.2194C87.6469 93.6469 87.54 94.23 87.1125 94.5225C86.6869 94.8169 86.1037 94.7081 85.8094 94.2806L79.8525 85.6162C79.7456 85.4606 79.6875 85.275 79.6875 85.0856V69.375C79.6875 67.8244 78.4256 66.5625 76.875 66.5625C75.3244 66.5625 74.0625 67.8244 74.0625 69.375V86.25C74.0625 86.8219 74.2331 87.3731 74.5575 87.8437L78.2531 93.2194C78.5456 93.6469 78.4387 94.23 78.0112 94.5225C77.85 94.635 77.6644 94.6875 77.4806 94.6875Z" fill="#051326"/>
<path d="M66.5625 59.0625H47.8125C46.7775 59.0625 45.9375 58.2225 45.9375 57.1875V53.4375C45.9375 52.4025 46.7775 51.5625 47.8125 51.5625H66.5625C67.5975 51.5625 68.4375 52.4025 68.4375 53.4375V57.1875C68.4375 58.2225 67.5975 59.0625 66.5625 59.0625Z" fill="#FF1616"/>
<path d="M66.5625 60H47.8125C46.2619 60 45 58.7381 45 57.1875V53.4375C45 51.8869 46.2619 50.625 47.8125 50.625H66.5625C68.1131 50.625 69.375 51.8869 69.375 53.4375V57.1875C69.375 58.7381 68.1131 60 66.5625 60ZM47.8125 52.5C47.295 52.5 46.875 52.92 46.875 53.4375V57.1875C46.875 57.705 47.295 58.125 47.8125 58.125H66.5625C67.08 58.125 67.5 57.705 67.5 57.1875V53.4375C67.5 52.92 67.08 52.5 66.5625 52.5H47.8125Z" fill="#051326"/>
<path d="M2.8125 105.938H0.9375C0.42 105.938 0 105.518 0 105C0 104.483 0.42 104.062 0.9375 104.062H2.8125C3.33 104.062 3.75 104.483 3.75 105C3.75 105.518 3.33 105.938 2.8125 105.938Z" fill="#051326"/>
<path d="M25.3125 105.938H6.5625C6.045 105.938 5.625 105.518 5.625 105C5.625 104.483 6.045 104.062 6.5625 104.062H25.3125C25.83 104.062 26.25 104.483 26.25 105C26.25 105.518 25.83 105.938 25.3125 105.938Z" fill="#051326"/>
<path d="M34.6875 100.312H15.9375C15.42 100.312 15 99.8925 15 99.375C15 98.8575 15.42 98.4375 15.9375 98.4375H34.6875C35.205 98.4375 35.625 98.8575 35.625 99.375C35.625 99.8925 35.205 100.312 34.6875 100.312Z" fill="#051326"/>
</svg>
