<svg width="120" height="120" viewBox="0 0 120 120" fill="none" xmlns="http://www.w3.org/2000/svg">
<path d="M60 120C59.4825 120 59.0625 119.58 59.0625 119.062C59.0625 114.411 55.2769 110.625 50.625 110.625H9.375C6.27375 110.625 3.75 108.101 3.75 105V45C3.75 41.8987 6.27375 39.375 9.375 39.375H11.25C11.7675 39.375 12.1875 39.795 12.1875 40.3125V95.625C12.1875 97.6931 13.8694 99.375 15.9375 99.375H50.625C56.3119 99.375 60.9375 104.001 60.9375 109.688V119.062C60.9375 119.58 60.5175 120 60 120ZM9.375 41.25C7.30687 41.25 5.625 42.9319 5.625 45V105C5.625 107.068 7.30687 108.75 9.375 108.75H50.625C54.1087 108.75 57.195 110.486 59.0625 113.139V109.688C59.0625 105.036 55.2769 101.25 50.625 101.25H15.9375C12.8363 101.25 10.3125 98.7262 10.3125 95.625V41.25H9.375Z" fill="#051326"/>
<path d="M60 110.625C59.4825 110.625 59.0625 110.205 59.0625 109.688V97.5C59.0625 96.9825 59.4825 96.5625 60 96.5625C60.5175 96.5625 60.9375 96.9825 60.9375 97.5V109.688C60.9375 110.205 60.5175 110.625 60 110.625Z" fill="#051326"/>
<path d="M108.75 55.7812C108.232 55.7812 107.812 55.3612 107.812 54.8438V35.625C107.812 33.5569 106.131 31.875 104.062 31.875H65.625C65.1075 31.875 64.6875 31.455 64.6875 30.9375C64.6875 30.42 65.1075 30 65.625 30H104.062C107.164 30 109.688 32.5237 109.688 35.625V54.8438C109.688 55.3612 109.268 55.7812 108.75 55.7812Z" fill="#051326"/>
<path d="M18.75 42.3206C18.2325 42.3206 17.8125 41.9006 17.8125 41.3831V35.625C17.8125 32.5237 20.3362 30 23.4375 30H56.25C56.7675 30 57.1875 30.42 57.1875 30.9375C57.1875 31.455 56.7675 31.875 56.25 31.875H23.4375C21.3694 31.875 19.6875 33.5569 19.6875 35.625V41.3831C19.6875 41.9006 19.2675 42.3206 18.75 42.3206Z" fill="#051326"/>
<path d="M26.25 50.625H20.625C19.0744 50.625 17.8125 49.3631 17.8125 47.8125V42.1875C17.8125 40.6369 19.0744 39.375 20.625 39.375H26.25C27.8006 39.375 29.0625 40.6369 29.0625 42.1875V47.8125C29.0625 49.3631 27.8006 50.625 26.25 50.625ZM20.625 41.25C20.1075 41.25 19.6875 41.67 19.6875 42.1875V47.8125C19.6875 48.33 20.1075 48.75 20.625 48.75H26.25C26.7675 48.75 27.1875 48.33 27.1875 47.8125V42.1875C27.1875 41.67 26.7675 41.25 26.25 41.25H20.625Z" fill="#051326"/>
<path d="M26.25 64.6875H20.625C19.0744 64.6875 17.8125 63.4256 17.8125 61.875V56.25C17.8125 54.6994 19.0744 53.4375 20.625 53.4375H26.25C27.8006 53.4375 29.0625 54.6994 29.0625 56.25V61.875C29.0625 63.4256 27.8006 64.6875 26.25 64.6875ZM20.625 55.3125C20.1075 55.3125 19.6875 55.7325 19.6875 56.25V61.875C19.6875 62.3925 20.1075 62.8125 20.625 62.8125H26.25C26.7675 62.8125 27.1875 62.3925 27.1875 61.875V56.25C27.1875 55.7325 26.7675 55.3125 26.25 55.3125H20.625Z" fill="#051326"/>
<path d="M26.25 92.8125H20.625C19.0744 92.8125 17.8125 91.5506 17.8125 90V84.375C17.8125 82.8244 19.0744 81.5625 20.625 81.5625H26.25C27.8006 81.5625 29.0625 82.8244 29.0625 84.375V90C29.0625 91.5506 27.8006 92.8125 26.25 92.8125ZM20.625 83.4375C20.1075 83.4375 19.6875 83.8575 19.6875 84.375V90C19.6875 90.5175 20.1075 90.9375 20.625 90.9375H26.25C26.7675 90.9375 27.1875 90.5175 27.1875 90V84.375C27.1875 83.8575 26.7675 83.4375 26.25 83.4375H20.625Z" fill="#051326"/>
<path d="M47.8125 45.9375H33.75C33.2325 45.9375 32.8125 45.5175 32.8125 45C32.8125 44.4825 33.2325 44.0625 33.75 44.0625H47.8125C48.33 44.0625 48.75 44.4825 48.75 45C48.75 45.5175 48.33 45.9375 47.8125 45.9375Z" fill="#051326"/>
<path d="M45.9375 88.125H33.75C33.2325 88.125 32.8125 87.705 32.8125 87.1875C32.8125 86.67 33.2325 86.25 33.75 86.25H45.9375C46.455 86.25 46.875 86.67 46.875 87.1875C46.875 87.705 46.455 88.125 45.9375 88.125Z" fill="#051326"/>
<path d="M47.8125 60H33.75C33.2325 60 32.8125 59.58 32.8125 59.0625C32.8125 58.545 33.2325 58.125 33.75 58.125H47.8125C48.33 58.125 48.75 58.545 48.75 59.0625C48.75 59.58 48.33 60 47.8125 60Z" fill="#051326"/>
<path d="M26.25 78.75H20.625C19.0744 78.75 17.8125 77.4881 17.8125 75.9375V70.3125C17.8125 68.7619 19.0744 67.5 20.625 67.5H26.25C27.8006 67.5 29.0625 68.7619 29.0625 70.3125V75.9375C29.0625 77.4881 27.8006 78.75 26.25 78.75ZM20.625 69.375C20.1075 69.375 19.6875 69.795 19.6875 70.3125V75.9375C19.6875 76.455 20.1075 76.875 20.625 76.875H26.25C26.7675 76.875 27.1875 76.455 27.1875 75.9375V70.3125C27.1875 69.795 26.7675 69.375 26.25 69.375H20.625Z" fill="#051326"/>
<path d="M47.8125 74.0625H33.75C33.2325 74.0625 32.8125 73.6425 32.8125 73.125C32.8125 72.6075 33.2325 72.1875 33.75 72.1875H47.8125C48.33 72.1875 48.75 72.6075 48.75 73.125C48.75 73.6425 48.33 74.0625 47.8125 74.0625Z" fill="#051326"/>
<path d="M98.4375 45.9375H74.0625C73.545 45.9375 73.125 45.5175 73.125 45C73.125 44.4825 73.545 44.0625 74.0625 44.0625H98.4375C98.955 44.0625 99.375 44.4825 99.375 45C99.375 45.5175 98.955 45.9375 98.4375 45.9375Z" fill="#051326"/>
<path d="M98.4375 52.5H74.0625C73.545 52.5 73.125 52.08 73.125 51.5625C73.125 51.045 73.545 50.625 74.0625 50.625H98.4375C98.955 50.625 99.375 51.045 99.375 51.5625C99.375 52.08 98.955 52.5 98.4375 52.5Z" fill="#051326"/>
<path d="M2.8125 15H0.9375C0.42 15 0 14.58 0 14.0625C0 13.545 0.42 13.125 0.9375 13.125H2.8125C3.33 13.125 3.75 13.545 3.75 14.0625C3.75 14.58 3.33 15 2.8125 15Z" fill="#051326"/>
<path d="M25.3125 15H6.5625C6.045 15 5.625 14.58 5.625 14.0625C5.625 13.545 6.045 13.125 6.5625 13.125H25.3125C25.83 13.125 26.25 13.545 26.25 14.0625C26.25 14.58 25.83 15 25.3125 15Z" fill="#051326"/>
<path d="M39.375 9.375H37.5C36.9825 9.375 36.5625 8.955 36.5625 8.4375C36.5625 7.92 36.9825 7.5 37.5 7.5H39.375C39.8925 7.5 40.3125 7.92 40.3125 8.4375C40.3125 8.955 39.8925 9.375 39.375 9.375Z" fill="#051326"/>
<path d="M33.75 9.375H15C14.4825 9.375 14.0625 8.955 14.0625 8.4375C14.0625 7.92 14.4825 7.5 15 7.5H33.75C34.2675 7.5 34.6875 7.92 34.6875 8.4375C34.6875 8.955 34.2675 9.375 33.75 9.375Z" fill="#051326"/>
<path d="M114.375 92.3438H78.75C76.1606 92.3438 74.0625 90.2456 74.0625 87.6562V63.2812C74.0625 60.6919 76.1606 58.5938 78.75 58.5938H114.375C116.964 58.5938 119.062 60.6919 119.062 63.2812V87.6562C119.062 90.2456 116.964 92.3438 114.375 92.3438Z" fill="#9A9CA5"/>
<path d="M114.375 93.2812H78.75C75.6487 93.2812 73.125 90.7575 73.125 87.6562V63.2812C73.125 60.18 75.6487 57.6562 78.75 57.6562H114.375C117.476 57.6562 120 60.18 120 63.2812V87.6562C120 90.7575 117.476 93.2812 114.375 93.2812ZM78.75 59.5312C76.6819 59.5312 75 61.2131 75 63.2812V87.6562C75 89.7244 76.6819 91.4062 78.75 91.4062H114.375C116.443 91.4062 118.125 89.7244 118.125 87.6562V63.2812C118.125 61.2131 116.443 59.5312 114.375 59.5312H78.75Z" fill="#051326"/>
<path d="M115.312 55.8769C114.795 55.8769 114.375 55.4569 114.375 54.9394V45C114.375 42.9319 112.693 41.25 110.625 41.25H108.75C108.233 41.25 107.812 40.83 107.812 40.3125C107.812 39.795 108.233 39.375 108.75 39.375H110.625C113.726 39.375 116.25 41.8988 116.25 45V54.9394C116.25 55.4569 115.83 55.8769 115.312 55.8769Z" fill="#051326"/>
<path d="M60 120C59.4825 120 59.0625 119.58 59.0625 119.062V109.687C59.0625 104.001 63.6881 99.375 69.375 99.375H104.062C105.983 99.375 107.576 97.9238 107.769 96C107.82 95.4863 108.281 95.115 108.797 95.1619C109.311 95.2144 109.688 95.6737 109.635 96.1894C109.344 99.0731 106.95 101.25 104.062 101.25H69.375C64.7231 101.25 60.9375 105.036 60.9375 109.687V113.139C62.805 110.486 65.8913 108.75 69.375 108.75H110.625C112.693 108.75 114.375 107.068 114.375 105V96C114.375 95.4825 114.795 95.0625 115.312 95.0625C115.83 95.0625 116.25 95.4825 116.25 96V105C116.25 108.101 113.726 110.625 110.625 110.625H69.375C64.7231 110.625 60.9375 114.411 60.9375 119.062C60.9375 119.58 60.5175 120 60 120Z" fill="#051326"/>
<path d="M93.2495 84.9094C92.5295 84.9094 91.8095 84.6356 91.2601 84.0862L84.6301 77.4581C83.5313 76.3612 83.5313 74.58 84.6301 73.4812C85.7288 72.3825 87.5082 72.3825 88.607 73.4812L93.2476 78.1219L104.516 66.8531C105.615 65.7544 107.394 65.7544 108.493 66.8531C109.592 67.95 109.592 69.7331 108.493 70.83L95.2351 84.0881C94.6876 84.6356 93.9676 84.9094 93.2495 84.9094Z" fill="#FF1616"/>
<path d="M93.2476 85.8488C92.2463 85.8488 91.3051 85.4588 90.5963 84.75L83.9663 78.12C83.2576 77.4132 82.8676 76.4719 82.8676 75.4688C82.8676 74.4675 83.2576 73.5263 83.9663 72.8175C85.3838 71.4 87.8513 71.4 89.2688 72.8175L93.2476 76.7963L103.854 66.1894C105.315 64.7269 107.696 64.7269 109.157 66.1894C109.866 66.8963 110.256 67.8394 110.256 68.8407C110.256 69.8419 109.866 70.785 109.157 71.4919L95.8988 84.75C95.1919 85.4588 94.2507 85.8488 93.2476 85.8488ZM86.6194 73.5938C86.1188 73.5938 85.6482 73.7888 85.2938 74.1432C84.9394 74.4975 84.7444 74.9682 84.7444 75.4688C84.7444 75.9694 84.9394 76.44 85.2938 76.7944L91.9238 83.4244C92.6326 84.1332 93.8663 84.1332 94.5751 83.4244L107.833 70.1663C108.188 69.8119 108.383 69.3413 108.383 68.8407C108.383 68.34 108.188 67.8694 107.833 67.515C107.102 66.7838 105.911 66.7857 105.182 67.515L93.9132 78.7857C93.5607 79.1382 92.9382 79.1382 92.5876 78.7857L87.9469 74.145C87.5907 73.7888 87.1201 73.5938 86.6194 73.5938Z" fill="#051326"/>
<path d="M60 74.0625C59.4825 74.0625 59.0625 73.6425 59.0625 73.125V45C59.0625 44.4825 59.4825 44.0625 60 44.0625C60.5175 44.0625 60.9375 44.4825 60.9375 45V73.125C60.9375 73.6425 60.5194 74.0625 60 74.0625Z" fill="#051326"/>
</svg>
