<svg width="120" height="120" viewBox="0 0 120 120" fill="none" xmlns="http://www.w3.org/2000/svg">
<path d="M108.75 117.188C108.232 117.188 107.812 116.768 107.812 116.25C107.812 89.8856 86.3644 68.4375 60 68.4375C33.6356 68.4375 12.1875 89.8856 12.1875 116.25C12.1875 116.768 11.7675 117.188 11.25 117.188C10.7325 117.188 10.3125 116.768 10.3125 116.25C10.3125 88.8525 32.6025 66.5625 60 66.5625C87.3975 66.5625 109.688 88.8525 109.688 116.25C109.688 116.768 109.269 117.188 108.75 117.188ZM92.46 109.688H90.9394C90.4219 109.688 90.0019 109.268 90.0019 108.75C90.0019 108.232 90.4219 107.812 90.9394 107.812H92.46C93.7012 107.812 94.8656 107.201 95.5781 106.176C96.2738 105.174 96.4331 103.958 96.015 102.836C90.4406 87.8681 75.9675 77.8125 60 77.8125C44.0325 77.8125 29.5613 87.8681 23.9869 102.836C23.5688 103.959 23.7281 105.176 24.4237 106.176C25.1344 107.199 26.3006 107.812 27.5419 107.812H29.0625C29.58 107.812 30 108.232 30 108.75C30 109.268 29.58 109.688 29.0625 109.688H27.5419C25.6875 109.688 23.9475 108.774 22.8844 107.246C21.8325 105.733 21.5944 103.888 22.23 102.182C28.0763 86.4844 43.2544 75.9375 60 75.9375C76.7456 75.9375 91.9238 86.4844 97.77 102.184C98.4038 103.89 98.1656 105.735 97.1156 107.248C96.0544 108.774 94.3125 109.688 92.46 109.688Z" fill="#051326"/>
<path d="M77.0344 67.5394C76.7137 67.5394 76.3988 67.3744 76.2244 67.0762C75.9619 66.63 76.1119 66.0563 76.5581 65.7938C86.5856 59.9119 92.8125 49.0706 92.8125 37.5C92.8125 19.4081 78.0919 4.6875 60 4.6875C41.9081 4.6875 27.1875 19.4081 27.1875 37.5C27.1875 49.0706 33.4162 59.9119 43.44 65.7938C43.8862 66.0563 44.0363 66.63 43.7738 67.0762C43.5113 67.5225 42.9375 67.6725 42.4913 67.41C31.8956 61.1944 25.3125 49.7325 25.3125 37.5C25.3125 18.3731 40.8731 2.8125 60 2.8125C79.1269 2.8125 94.6875 18.3731 94.6875 37.5C94.6875 49.7325 88.1044 61.1944 77.5069 67.41C77.3588 67.4981 77.1956 67.5394 77.0344 67.5394Z" fill="#051326"/>
<path d="M50.0063 63.7631C53.2463 63.1481 56.5837 62.8125 60 62.8125C63.4163 62.8125 66.7538 63.1481 69.9938 63.7631C80.5875 59.73 88.125 49.5075 88.125 37.5C88.125 21.9675 75.5325 9.375 60 9.375C44.4675 9.375 31.875 21.9675 31.875 37.5C31.875 49.5075 39.4144 59.73 50.0063 63.7631Z" fill="#F7F7F8"/>
<path d="M69.9956 64.7006C69.9375 64.7006 69.8794 64.695 69.8212 64.6838C63.2981 63.4444 56.7056 63.4444 50.1825 64.6838C50.0156 64.7175 49.8356 64.7006 49.6744 64.6387C38.4675 60.3712 30.9375 49.4644 30.9375 37.5C30.9375 21.4744 43.9744 8.4375 60 8.4375C76.0256 8.4375 89.0625 21.4744 89.0625 37.5C89.0625 49.4644 81.5325 60.3712 70.3275 64.6406C70.2225 64.68 70.1081 64.7006 69.9956 64.7006ZM60 61.875C63.2831 61.875 66.615 62.1844 69.9056 62.7938C80.2538 58.7363 87.1875 48.6056 87.1875 37.5C87.1875 22.5094 74.9906 10.3125 60 10.3125C45.0094 10.3125 32.8125 22.5094 32.8125 37.5C32.8125 48.6056 39.7462 58.7363 50.0944 62.7938C53.3869 62.1844 56.7169 61.875 60 61.875Z" fill="#051326"/>
<path d="M60 41.25C62.0711 41.25 63.75 39.5711 63.75 37.5C63.75 35.4289 62.0711 33.75 60 33.75C57.9289 33.75 56.25 35.4289 56.25 37.5C56.25 39.5711 57.9289 41.25 60 41.25Z" fill="#F7F7F8"/>
<path d="M60 42.1875C57.4162 42.1875 55.3125 40.0838 55.3125 37.5C55.3125 34.9162 57.4162 32.8125 60 32.8125C62.5838 32.8125 64.6875 34.9162 64.6875 37.5C64.6875 40.0838 62.5856 42.1875 60 42.1875ZM60 34.6875C58.4494 34.6875 57.1875 35.9494 57.1875 37.5C57.1875 39.0506 58.4494 40.3125 60 40.3125C61.5506 40.3125 62.8125 39.0506 62.8125 37.5C62.8125 35.9494 61.5525 34.6875 60 34.6875Z" fill="#051326"/>
<path d="M60 34.6875C59.4825 34.6875 59.0625 34.2675 59.0625 33.75V20.625C59.0625 20.1075 59.4825 19.6875 60 19.6875C60.5175 19.6875 60.9375 20.1075 60.9375 20.625V33.75C60.9375 34.2675 60.5194 34.6875 60 34.6875Z" fill="#051326"/>
<path d="M66.5625 53.4375H53.4375C52.4025 53.4375 51.5625 52.5975 51.5625 51.5625V49.6875C51.5625 48.6525 52.4025 47.8125 53.4375 47.8125H66.5625C67.5975 47.8125 68.4375 48.6525 68.4375 49.6875V51.5625C68.4375 52.5975 67.5994 53.4375 66.5625 53.4375Z" fill="#FF1616"/>
<path d="M66.5625 54.375H53.4375C51.8869 54.375 50.625 53.1131 50.625 51.5625V49.6875C50.625 48.1369 51.8869 46.875 53.4375 46.875H66.5625C68.1131 46.875 69.375 48.1369 69.375 49.6875V51.5625C69.375 53.1131 68.115 54.375 66.5625 54.375ZM53.4375 48.75C52.92 48.75 52.5 49.17 52.5 49.6875V51.5625C52.5 52.08 52.92 52.5 53.4375 52.5H66.5625C67.08 52.5 67.5 52.08 67.5 51.5625V49.6875C67.5 49.17 67.08 48.75 66.5625 48.75H53.4375Z" fill="#051326"/>
<path d="M60 15C59.4825 15 59.0625 14.58 59.0625 14.0625V9.375C59.0625 8.8575 59.4825 8.4375 60 8.4375C60.5175 8.4375 60.9375 8.8575 60.9375 9.375V14.0625C60.9375 14.58 60.5194 15 60 15Z" fill="#051326"/>
<path d="M43.4287 21.8644C43.1887 21.8644 42.9487 21.7725 42.765 21.5906L39.45 18.2756C39.0844 17.91 39.0844 17.3156 39.45 16.95C39.8156 16.5844 40.41 16.5844 40.7756 16.95L44.0906 20.265C44.4562 20.6306 44.4562 21.225 44.0906 21.5906C43.9069 21.7725 43.6687 21.8644 43.4287 21.8644Z" fill="#051326"/>
<path d="M36.5625 38.4375H31.875C31.3575 38.4375 30.9375 38.0175 30.9375 37.5C30.9375 36.9825 31.3575 36.5625 31.875 36.5625H36.5625C37.08 36.5625 37.5 36.9825 37.5 37.5C37.5 38.0175 37.0819 38.4375 36.5625 38.4375Z" fill="#051326"/>
<path d="M88.125 38.4375H83.4375C82.92 38.4375 82.5 38.0175 82.5 37.5C82.5 36.9825 82.92 36.5625 83.4375 36.5625H88.125C88.6425 36.5625 89.0625 36.9825 89.0625 37.5C89.0625 38.0175 88.6444 38.4375 88.125 38.4375Z" fill="#051326"/>
<path d="M76.5731 21.8644C76.3331 21.8644 76.0931 21.7725 75.9094 21.5906C75.5437 21.225 75.5437 20.6306 75.9094 20.265L79.2243 16.95C79.59 16.5844 80.1843 16.5844 80.55 16.95C80.9156 17.3156 80.9156 17.91 80.55 18.2756L77.235 21.5906C77.0531 21.7725 76.8131 21.8644 76.5731 21.8644Z" fill="#051326"/>
<path d="M88.125 117.188C87.6075 117.188 87.1875 116.767 87.1875 116.25C87.1875 114.086 86.91 111.883 86.3606 109.688H77.1806C76.8075 109.688 76.4719 109.466 76.3219 109.125C73.4813 102.632 67.0762 98.4375 60 98.4375C52.9237 98.4375 46.5188 102.632 43.6781 109.125C43.5281 109.466 43.1925 109.688 42.8194 109.688H33.6394C33.0919 111.883 32.8125 114.086 32.8125 116.25C32.8125 116.767 32.3925 117.188 31.875 117.188C31.3575 117.188 30.9375 116.767 30.9375 116.25C30.9375 113.692 31.2994 111.084 32.0137 108.501C32.1262 108.094 32.4956 107.812 32.9175 107.812H42.2175C45.4725 100.957 52.3856 96.5625 60 96.5625C67.6144 96.5625 74.5275 100.957 77.7825 107.812H87.0825C87.5044 107.812 87.8737 108.094 87.9862 108.501C88.7006 111.084 89.0625 113.692 89.0625 116.25C89.0625 116.767 88.6444 117.188 88.125 117.188Z" fill="#051326"/>
<path d="M7.5 11.25H5.625C5.1075 11.25 4.6875 10.83 4.6875 10.3125C4.6875 9.795 5.1075 9.375 5.625 9.375H7.5C8.0175 9.375 8.4375 9.795 8.4375 10.3125C8.4375 10.83 8.01938 11.25 7.5 11.25Z" fill="#051326"/>
<path d="M28.125 11.25H11.25C10.7325 11.25 10.3125 10.83 10.3125 10.3125C10.3125 9.795 10.7325 9.375 11.25 9.375H28.125C28.6425 9.375 29.0625 9.795 29.0625 10.3125C29.0625 10.83 28.6444 11.25 28.125 11.25Z" fill="#051326"/>
<path d="M114.375 11.25H112.5C111.983 11.25 111.562 10.83 111.562 10.3125C111.562 9.795 111.983 9.375 112.5 9.375H114.375C114.892 9.375 115.312 9.795 115.312 10.3125C115.312 10.83 114.894 11.25 114.375 11.25Z" fill="#051326"/>
<path d="M108.75 11.25H91.875C91.3575 11.25 90.9375 10.83 90.9375 10.3125C90.9375 9.795 91.3575 9.375 91.875 9.375H108.75C109.267 9.375 109.688 9.795 109.688 10.3125C109.688 10.83 109.269 11.25 108.75 11.25Z" fill="#051326"/>
<path d="M17.8125 47.8126C17.5725 47.8126 17.3325 47.7207 17.1487 47.5388L9.64873 40.0388C9.28311 39.6732 9.28311 39.0788 9.64873 38.7132C10.0144 38.3476 10.6087 38.3476 10.9744 38.7132L18.4744 46.2132C18.84 46.5788 18.84 47.1732 18.4744 47.5388C18.2925 47.7207 18.0525 47.8126 17.8125 47.8126Z" fill="#051326"/>
<path d="M102.188 47.8124C101.67 47.8124 101.25 47.3924 101.25 46.8749V36.2681C101.25 35.7506 101.67 35.3306 102.188 35.3306C102.705 35.3306 103.125 35.7506 103.125 36.2681V46.8749C103.125 47.3924 102.707 47.8124 102.188 47.8124Z" fill="#051326"/>
<path d="M17.8125 64.6875C7.99125 64.6875 0 56.6962 0 46.875C0 37.0538 7.99125 29.0625 17.8125 29.0625C19.7025 29.0625 21.5887 29.37 23.415 29.9756C23.9062 30.1388 24.1725 30.6694 24.0094 31.1606C23.8463 31.6519 23.3156 31.9163 22.8244 31.755C21.1894 31.2113 19.5037 30.9375 17.8125 30.9375C9.02437 30.9375 1.875 38.0869 1.875 46.875C1.875 55.6631 9.02437 62.8125 17.8125 62.8125C21.8869 62.8125 25.7737 61.26 28.7512 58.4419C29.1281 58.0894 29.7225 58.1025 30.0769 58.4794C30.4331 58.8562 30.4163 59.4487 30.0394 59.805C26.7131 62.9531 22.3706 64.6875 17.8125 64.6875Z" fill="#051326"/>
<path d="M102.187 64.6875C97.6312 64.6875 93.2869 62.9531 89.9587 59.805C89.5819 59.4487 89.5669 58.8562 89.9212 58.4794C90.2756 58.1025 90.8719 58.0894 91.2469 58.4419C94.2262 61.26 98.1112 62.8125 102.186 62.8125C110.974 62.8125 118.123 55.6631 118.123 46.875C118.123 38.0869 110.974 30.9375 102.186 30.9375C100.496 30.9375 98.8087 31.2113 97.1719 31.755C96.6787 31.9144 96.15 31.6519 95.9869 31.1606C95.8237 30.6694 96.09 30.1388 96.5812 29.9756C98.4075 29.37 100.294 29.0625 102.184 29.0625C112.005 29.0625 119.996 37.0538 119.996 46.875C119.996 56.6962 112.011 64.6875 102.187 64.6875Z" fill="#051326"/>
</svg>
