<svg width="120" height="120" viewBox="0 0 120 120" fill="none" xmlns="http://www.w3.org/2000/svg">
<path d="M50.625 16.875H35.625V24.375H50.625V16.875Z" fill="#F7F7F8"/>
<path d="M84.375 16.875H69.375V24.375H84.375V16.875Z" fill="#F7F7F8"/>
<path d="M84.375 103.125H68.5837C67.1362 106.433 63.8419 108.75 60 108.75C56.1581 108.75 52.8638 106.433 51.4163 103.125H35.625V95.625H51.4163C52.8638 92.3175 56.1581 90 60 90C63.8419 90 67.1362 92.3175 68.5837 95.625H84.375V103.125Z" fill="#F7F7F8"/>
<path d="M63.75 86.25H60H56.25V33.75H63.75V86.25Z" fill="#FF1616"/>
<path d="M50.625 25.3125H35.625C35.1075 25.3125 34.6875 24.8925 34.6875 24.375C34.6875 23.8575 35.1075 23.4375 35.625 23.4375H50.625C51.1425 23.4375 51.5625 23.8575 51.5625 24.375C51.5625 24.8925 51.1425 25.3125 50.625 25.3125Z" fill="#051326"/>
<path d="M84.375 25.3125H69.375C68.8575 25.3125 68.4375 24.8925 68.4375 24.375C68.4375 23.8575 68.8575 23.4375 69.375 23.4375H84.375C84.8925 23.4375 85.3125 23.8575 85.3125 24.375C85.3125 24.8925 84.8925 25.3125 84.375 25.3125Z" fill="#051326"/>
<path d="M84.375 17.8125H69.375C68.8575 17.8125 68.4375 17.3925 68.4375 16.875C68.4375 16.3575 68.8575 15.9375 69.375 15.9375H84.375C84.8925 15.9375 85.3125 16.3575 85.3125 16.875C85.3125 17.3925 84.8925 17.8125 84.375 17.8125Z" fill="#051326"/>
<path d="M50.625 17.8125H35.625C35.1075 17.8125 34.6875 17.3925 34.6875 16.875C34.6875 16.3575 35.1075 15.9375 35.625 15.9375H50.625C51.1425 15.9375 51.5625 16.3575 51.5625 16.875C51.5625 17.3925 51.1425 17.8125 50.625 17.8125Z" fill="#051326"/>
<path d="M64.6875 30H55.3125C52.7231 30 50.625 27.9019 50.625 25.3125V15.9375C50.625 13.3481 52.7231 11.25 55.3125 11.25H64.6875C67.2769 11.25 69.375 13.3481 69.375 15.9375V25.3125C69.375 27.9019 67.2769 30 64.6875 30Z" fill="#9A9CA5"/>
<path d="M64.6875 30.9375H55.3125C52.2112 30.9375 49.6875 28.4137 49.6875 25.3125V15.9375C49.6875 12.8362 52.2112 10.3125 55.3125 10.3125H64.6875C67.7887 10.3125 70.3125 12.8362 70.3125 15.9375V25.3125C70.3125 28.4137 67.7887 30.9375 64.6875 30.9375ZM55.3125 12.1875C53.2444 12.1875 51.5625 13.8694 51.5625 15.9375V25.3125C51.5625 27.3806 53.2444 29.0625 55.3125 29.0625H64.6875C66.7556 29.0625 68.4375 27.3806 68.4375 25.3125V15.9375C68.4375 13.8694 66.7556 12.1875 64.6875 12.1875H55.3125Z" fill="#051326"/>
<path d="M81.5625 92.8125C81.045 92.8125 80.625 92.3925 80.625 91.875V62.0119L75.0394 43.3931C75.0131 43.3069 75 43.2169 75 43.125V28.125C75 27.6075 75.42 27.1875 75.9375 27.1875C76.455 27.1875 76.875 27.6075 76.875 28.125V42.9881L82.4606 61.6069C82.4869 61.6931 82.5 61.7831 82.5 61.875V91.875C82.5 92.3925 82.08 92.8125 81.5625 92.8125Z" fill="#051326"/>
<path d="M38.4375 92.8125C37.92 92.8125 37.5 92.3925 37.5 91.875V61.875C37.5 61.7831 37.5131 61.6931 37.5394 61.605L43.125 42.9881V28.125C43.125 27.6075 43.545 27.1875 44.0625 27.1875C44.58 27.1875 45 27.6075 45 28.125V43.125C45 43.2169 44.9869 43.3069 44.9606 43.395L39.375 62.0119V91.875C39.375 92.3925 38.955 92.8125 38.4375 92.8125Z" fill="#051326"/>
<path d="M84.375 96.5625H68.5837C68.2125 96.5625 67.875 96.3413 67.725 96.0019C66.3769 92.925 63.345 90.9375 60 90.9375C56.655 90.9375 53.6231 92.925 52.275 96.0019C52.125 96.3431 51.7875 96.5625 51.4163 96.5625H35.625C35.1075 96.5625 34.6875 96.1425 34.6875 95.625C34.6875 95.1075 35.1075 94.6875 35.625 94.6875H50.8219C52.5806 91.2506 56.115 89.0625 60 89.0625C63.885 89.0625 67.4194 91.2506 69.1781 94.6875H84.375C84.8925 94.6875 85.3125 95.1075 85.3125 95.625C85.3125 96.1425 84.8925 96.5625 84.375 96.5625Z" fill="#051326"/>
<path d="M60 109.688C56.1169 109.688 52.5787 107.499 50.8219 104.062H35.625C35.1075 104.062 34.6875 103.643 34.6875 103.125C34.6875 102.608 35.1075 102.188 35.625 102.188H51.4163C51.7875 102.188 52.125 102.409 52.275 102.748C53.6212 105.825 56.6531 107.812 60 107.812C63.3469 107.812 66.3787 105.825 67.725 102.748C67.875 102.407 68.2125 102.188 68.5837 102.188H84.375C84.8925 102.188 85.3125 102.608 85.3125 103.125C85.3125 103.643 84.8925 104.062 84.375 104.062H69.1781C67.4212 107.499 63.8831 109.688 60 109.688Z" fill="#051326"/>
<path d="M63.75 87.1875C63.2325 87.1875 62.8125 86.7675 62.8125 86.25V33.75C62.8125 33.2325 63.2325 32.8125 63.75 32.8125C64.2675 32.8125 64.6875 33.2325 64.6875 33.75V86.25C64.6875 86.7675 64.2675 87.1875 63.75 87.1875Z" fill="#051326"/>
<path d="M56.25 87.1875C55.7325 87.1875 55.3125 86.7675 55.3125 86.25V33.75C55.3125 33.2325 55.7325 32.8125 56.25 32.8125C56.7675 32.8125 57.1875 33.2325 57.1875 33.75V86.25C57.1875 86.7675 56.7675 87.1875 56.25 87.1875Z" fill="#051326"/>
<path d="M64.6875 30.9375H55.3125C54.795 30.9375 54.375 30.5175 54.375 30V22.5C54.375 20.9494 55.6369 19.6875 57.1875 19.6875H62.8125C64.3631 19.6875 65.625 20.9494 65.625 22.5V30C65.625 30.5175 65.205 30.9375 64.6875 30.9375ZM56.25 29.0625H63.75V22.5C63.75 21.9825 63.3281 21.5625 62.8125 21.5625H57.1875C56.6719 21.5625 56.25 21.9825 56.25 22.5V29.0625Z" fill="#051326"/>
<path d="M27.1873 36.5625H21.5623C18.461 36.5625 15.9373 34.0387 15.9373 30.9375V10.3125C15.9373 7.21125 18.461 4.6875 21.5623 4.6875H27.1873C30.2885 4.6875 32.8123 7.21125 32.8123 10.3125V30.9375C32.8123 34.0387 30.2885 36.5625 27.1873 36.5625ZM21.5623 6.5625C19.4941 6.5625 17.8123 8.24437 17.8123 10.3125V30.9375C17.8123 33.0056 19.4941 34.6875 21.5623 34.6875H27.1873C29.2554 34.6875 30.9373 33.0056 30.9373 30.9375V10.3125C30.9373 8.24437 29.2554 6.5625 27.1873 6.5625H21.5623Z" fill="#051326"/>
<path d="M16.875 14.0625C16.5037 14.0625 16.1512 13.8393 16.005 13.4737C15.8118 12.9937 16.0443 12.4481 16.5262 12.255L21.2137 10.38C21.6937 10.185 22.2393 10.4212 22.4306 10.9031C22.6218 11.385 22.3912 11.9287 21.9093 12.1218L17.2218 13.9968C17.1093 14.0418 16.9912 14.0625 16.875 14.0625Z" fill="#051326"/>
<path d="M16.875 23.4375C16.5037 23.4375 16.1512 23.2143 16.005 22.8487C15.8118 22.3687 16.0443 21.8231 16.5262 21.63L21.2137 19.755C21.6937 19.56 22.2393 19.7962 22.4306 20.2781C22.6237 20.7581 22.3912 21.3037 21.9093 21.4968L17.2218 23.3718C17.1093 23.4168 16.9912 23.4375 16.875 23.4375Z" fill="#051326"/>
<path d="M16.875 32.8125C16.5037 32.8125 16.1512 32.5894 16.005 32.2238C15.8118 31.7438 16.0443 31.1982 16.5262 31.005L21.2137 29.1301C21.6937 28.9369 22.2393 29.1713 22.4306 29.6532C22.6237 30.1332 22.3912 30.6788 21.9093 30.8719L17.2218 32.7469C17.1093 32.7919 16.9912 32.8125 16.875 32.8125Z" fill="#051326"/>
<path d="M27.1875 115.312H21.5625C18.4612 115.312 15.9375 112.789 15.9375 109.688V89.0625C15.9375 85.9612 18.4612 83.4375 21.5625 83.4375H27.1875C30.2887 83.4375 32.8125 85.9612 32.8125 89.0625V109.688C32.8125 112.789 30.2887 115.312 27.1875 115.312ZM21.5625 85.3125C19.4944 85.3125 17.8125 86.9944 17.8125 89.0625V109.688C17.8125 111.756 19.4944 113.438 21.5625 113.438H27.1875C29.2556 113.438 30.9375 111.756 30.9375 109.688V89.0625C30.9375 86.9944 29.2556 85.3125 27.1875 85.3125H21.5625Z" fill="#051326"/>
<path d="M16.875 92.8125C16.5037 92.8125 16.1512 92.5894 16.005 92.2237C15.8118 91.7437 16.0443 91.1981 16.5262 91.005L21.2137 89.13C21.6937 88.935 22.2393 89.1712 22.4306 89.6531C22.6237 90.1331 22.3912 90.6787 21.9093 90.8718L17.2218 92.7468C17.1093 92.7918 16.9912 92.8125 16.875 92.8125Z" fill="#051326"/>
<path d="M16.875 102.188C16.5037 102.188 16.1512 101.964 16.005 101.599C15.8118 101.119 16.0443 100.573 16.5262 100.38L21.2137 98.5051C21.6937 98.3119 22.2393 98.5463 22.4306 99.0282C22.6237 99.5082 22.3912 100.054 21.9093 100.247L17.2218 102.122C17.1093 102.167 16.9912 102.188 16.875 102.188Z" fill="#051326"/>
<path d="M16.875 111.563C16.5037 111.563 16.1512 111.339 16.005 110.974C15.8118 110.494 16.0443 109.948 16.5262 109.755L21.2137 107.88C21.6937 107.687 22.2393 107.921 22.4306 108.403C22.6218 108.885 22.3912 109.429 21.9093 109.622L17.2218 111.497C17.1093 111.542 16.9912 111.563 16.875 111.563Z" fill="#051326"/>
<path d="M98.4375 36.5625H92.8125C89.7112 36.5625 87.1875 34.0387 87.1875 30.9375V10.3125C87.1875 7.21125 89.7112 4.6875 92.8125 4.6875H98.4375C101.539 4.6875 104.062 7.21125 104.062 10.3125V30.9375C104.062 34.0387 101.539 36.5625 98.4375 36.5625ZM92.8125 6.5625C90.7444 6.5625 89.0625 8.24437 89.0625 10.3125V30.9375C89.0625 33.0056 90.7444 34.6875 92.8125 34.6875H98.4375C100.506 34.6875 102.188 33.0056 102.188 30.9375V10.3125C102.188 8.24437 100.506 6.5625 98.4375 6.5625H92.8125Z" fill="#051326"/>
<path d="M103.125 14.0625C103.009 14.0625 102.891 14.0418 102.776 13.995L98.0887 12.12C97.6068 11.9268 97.3743 11.3812 97.5675 10.9012C97.7606 10.4212 98.3081 10.185 98.7843 10.3781L103.472 12.2531C103.954 12.4462 104.186 12.9918 103.993 13.4718C103.849 13.8393 103.496 14.0625 103.125 14.0625Z" fill="#051326"/>
<path d="M103.125 23.4375C103.009 23.4375 102.891 23.4169 102.776 23.37L98.0887 21.495C97.6068 21.3019 97.3743 20.7563 97.5675 20.2763C97.7606 19.7944 98.3081 19.5581 98.7843 19.7531L103.472 21.6281C103.954 21.8213 104.186 22.3669 103.993 22.8469C103.849 23.2144 103.496 23.4375 103.125 23.4375Z" fill="#051326"/>
<path d="M103.125 32.8125C103.009 32.8125 102.891 32.7919 102.776 32.7451L98.0887 30.8701C97.6068 30.6769 97.3743 30.1313 97.5675 29.6513C97.7606 29.1694 98.3081 28.9369 98.7843 29.1282L103.472 31.0032C103.954 31.1963 104.186 31.7419 103.993 32.2219C103.849 32.5894 103.496 32.8125 103.125 32.8125Z" fill="#051326"/>
<path d="M98.4375 115.312H92.8125C89.7112 115.312 87.1875 112.789 87.1875 109.688V89.0625C87.1875 85.9612 89.7112 83.4375 92.8125 83.4375H98.4375C101.539 83.4375 104.062 85.9612 104.062 89.0625V109.688C104.062 112.789 101.539 115.312 98.4375 115.312ZM92.8125 85.3125C90.7444 85.3125 89.0625 86.9944 89.0625 89.0625V109.688C89.0625 111.756 90.7444 113.438 92.8125 113.438H98.4375C100.506 113.438 102.188 111.756 102.188 109.688V89.0625C102.188 86.9944 100.506 85.3125 98.4375 85.3125H92.8125Z" fill="#051326"/>
<path d="M103.125 92.8125C103.009 92.8125 102.891 92.7919 102.776 92.745L98.0887 90.87C97.6068 90.6769 97.3743 90.1312 97.5675 89.6512C97.7606 89.1712 98.3081 88.935 98.7843 89.1281L103.472 91.0031C103.954 91.1962 104.186 91.7419 103.993 92.2219C103.849 92.5894 103.496 92.8125 103.125 92.8125Z" fill="#051326"/>
<path d="M103.125 102.188C103.009 102.188 102.891 102.167 102.776 102.12L98.0887 100.245C97.6068 100.052 97.3743 99.5063 97.5675 99.0263C97.7606 98.5444 98.3081 98.3119 98.7843 98.5032L103.472 100.378C103.954 100.571 104.186 101.117 103.993 101.597C103.849 101.964 103.496 102.188 103.125 102.188Z" fill="#051326"/>
<path d="M103.125 111.563C103.009 111.563 102.891 111.542 102.776 111.495L98.0887 109.62C97.6068 109.427 97.3743 108.881 97.5675 108.401C97.7606 107.921 98.3081 107.687 98.7843 107.878L103.472 109.753C103.954 109.946 104.186 110.492 103.993 110.972C103.849 111.339 103.496 111.563 103.125 111.563Z" fill="#051326"/>
<path d="M24.375 75C23.8575 75 23.4375 74.58 23.4375 74.0625V72.1875C23.4375 71.67 23.8575 71.25 24.375 71.25C24.8925 71.25 25.3125 71.67 25.3125 72.1875V74.0625C25.3125 74.58 24.8925 75 24.375 75Z" fill="#051326"/>
<path d="M24.375 69.375C23.8575 69.375 23.4375 68.955 23.4375 68.4375V45.9375C23.4375 45.42 23.8575 45 24.375 45C24.8925 45 25.3125 45.42 25.3125 45.9375V68.4375C25.3125 68.955 24.8925 69.375 24.375 69.375Z" fill="#051326"/>
<path d="M95.625 75C95.1075 75 94.6875 74.58 94.6875 74.0625V72.1875C94.6875 71.67 95.1075 71.25 95.625 71.25C96.1425 71.25 96.5625 71.67 96.5625 72.1875V74.0625C96.5625 74.58 96.1425 75 95.625 75Z" fill="#051326"/>
<path d="M95.625 69.375C95.1075 69.375 94.6875 68.955 94.6875 68.4375V45.9375C94.6875 45.42 95.1075 45 95.625 45C96.1425 45 96.5625 45.42 96.5625 45.9375V68.4375C96.5625 68.955 96.1425 69.375 95.625 69.375Z" fill="#051326"/>
</svg>
