<svg width="120" height="120" viewBox="0 0 120 120" fill="none" xmlns="http://www.w3.org/2000/svg">
<path d="M82.5 62.4225C78.8756 62.4225 75.9375 65.3606 75.9375 68.985V78.36H70.3125H66.5625V78.75C66.5625 82.3744 63.6244 85.3125 60 85.3125C56.3756 85.3125 53.4375 82.3744 53.4375 78.75V78.36H49.6875H44.0625V68.985C44.0625 65.3606 41.1244 62.4225 37.5 62.4225C33.8756 62.4225 30.9375 65.3606 30.9375 68.985V100.86C30.9375 104.484 33.8756 107.422 37.5 107.422C41.1244 107.422 44.0625 104.484 44.0625 100.86V91.485H53.4375V100.86C53.4375 104.484 56.3756 107.422 60 107.422C63.6244 107.422 66.5625 104.484 66.5625 100.86V91.485H75.9375V100.86C75.9375 104.484 78.8756 107.422 82.5 107.422C86.1244 107.422 89.0625 104.484 89.0625 100.86V68.985C89.0625 65.3606 86.1244 62.4225 82.5 62.4225Z" fill="#9A9CA5"/>
<path d="M82.5 108.36C78.3638 108.36 75 104.996 75 100.86V92.4225H67.5V100.86C67.5 104.996 64.1362 108.36 60 108.36C55.8638 108.36 52.5 104.996 52.5 100.86V92.4225H45V100.86C45 104.996 41.6363 108.36 37.5 108.36C33.3637 108.36 30 104.996 30 100.86V68.985C30 64.8487 33.3637 61.485 37.5 61.485C41.6363 61.485 45 64.8487 45 68.985V77.4225H49.6875C50.205 77.4225 50.625 77.8425 50.625 78.36C50.625 78.8775 50.205 79.2975 49.6875 79.2975H44.0625C43.545 79.2975 43.125 78.8775 43.125 78.36V68.985C43.125 65.8837 40.6012 63.36 37.5 63.36C34.3987 63.36 31.875 65.8837 31.875 68.985V100.86C31.875 103.961 34.3987 106.485 37.5 106.485C40.6012 106.485 43.125 103.961 43.125 100.86V91.485C43.125 90.9675 43.545 90.5475 44.0625 90.5475H53.4375C53.955 90.5475 54.375 90.9675 54.375 91.485V100.86C54.375 103.961 56.8988 106.485 60 106.485C63.1012 106.485 65.625 103.961 65.625 100.86V91.485C65.625 90.9675 66.045 90.5475 66.5625 90.5475H75.9375C76.455 90.5475 76.875 90.9675 76.875 91.485V100.86C76.875 103.961 79.3988 106.485 82.5 106.485C85.6012 106.485 88.125 103.961 88.125 100.86V68.985C88.125 65.8837 85.6012 63.36 82.5 63.36C79.3988 63.36 76.875 65.8837 76.875 68.985V78.36C76.875 78.8775 76.455 79.2975 75.9375 79.2975H70.3125C69.795 79.2975 69.375 78.8775 69.375 78.36C69.375 77.8425 69.795 77.4225 70.3125 77.4225H75V68.985C75 64.8487 78.3638 61.485 82.5 61.485C86.6362 61.485 90 64.8487 90 68.985V100.86C90 104.996 86.6362 108.36 82.5 108.36Z" fill="#051326"/>
<path d="M60 86.25C55.8637 86.25 52.5 82.8862 52.5 78.75V44.0625C52.5 43.545 52.92 43.125 53.4375 43.125C53.955 43.125 54.375 43.545 54.375 44.0625V78.75C54.375 81.8512 56.8987 84.375 60 84.375C63.1012 84.375 65.625 81.8512 65.625 78.75V44.0625C65.625 43.545 66.045 43.125 66.5625 43.125C67.08 43.125 67.5 43.545 67.5 44.0625V78.75C67.5 82.8862 64.1363 86.25 60 86.25Z" fill="#051326"/>
<path d="M94.6875 120H25.3125C19.6256 120 15 115.374 15 109.688V60.9375C15 55.2506 19.6256 50.625 25.3125 50.625H49.6875C50.205 50.625 50.625 51.045 50.625 51.5625C50.625 52.08 50.205 52.5 49.6875 52.5H25.3125C20.6606 52.5 16.875 56.2856 16.875 60.9375V109.688C16.875 114.339 20.6606 118.125 25.3125 118.125H94.6875C99.3394 118.125 103.125 114.339 103.125 109.688V60.9375C103.125 56.2856 99.3394 52.5 94.6875 52.5H70.3125C69.795 52.5 69.375 52.08 69.375 51.5625C69.375 51.045 69.795 50.625 70.3125 50.625H94.6875C100.374 50.625 105 55.2506 105 60.9375V109.688C105 115.374 100.374 120 94.6875 120Z" fill="#051326"/>
<path d="M69.375 32.8125V35.625C69.375 38.2144 67.2769 40.3125 64.6875 40.3125H55.3125C52.7231 40.3125 50.625 38.2144 50.625 35.625V32.8125L46.875 30C44.5144 28.23 43.125 25.4513 43.125 22.5V15C43.125 7.23375 49.4212 0.9375 57.1875 0.9375H62.8125C70.5788 0.9375 76.875 7.23375 76.875 15V22.5C76.875 25.4513 75.4856 28.23 73.125 30L69.375 32.8125Z" fill="#FF1616"/>
<path d="M64.6875 41.25H55.3125C52.2113 41.25 49.6875 38.7262 49.6875 35.625V33.2812L46.3125 30.75C43.7288 28.8131 42.1875 25.7288 42.1875 22.5V15C42.1875 6.72938 48.9169 0 57.1875 0H62.8125C71.0831 0 77.8125 6.72938 77.8125 15V22.5C77.8125 25.7288 76.2712 28.8131 73.6875 30.75L70.3125 33.2812V35.625C70.3125 38.7262 67.7887 41.25 64.6875 41.25ZM57.1875 1.875C49.95 1.875 44.0625 7.7625 44.0625 15V22.5C44.0625 25.1419 45.3244 27.6638 47.4375 29.25L51.1875 32.0625C51.4237 32.2388 51.5625 32.5181 51.5625 32.8125V35.625C51.5625 37.6931 53.2444 39.375 55.3125 39.375H64.6875C66.7556 39.375 68.4375 37.6931 68.4375 35.625V32.8125C68.4375 32.5181 68.5763 32.2388 68.8125 32.0625L72.5625 29.25C74.6756 27.6638 75.9375 25.1419 75.9375 22.5V15C75.9375 7.7625 70.05 1.875 62.8125 1.875H57.1875Z" fill="#051326"/>
<path d="M62.8125 6.5625C67.4644 6.5625 71.25 10.3481 71.25 15L62.8125 6.5625Z" fill="#FF1616"/>
<path d="M71.25 15.9375C70.7325 15.9375 70.3125 15.5175 70.3125 15C70.3125 10.8637 66.9488 7.5 62.8125 7.5C62.295 7.5 61.875 7.08 61.875 6.5625C61.875 6.045 62.295 5.625 62.8125 5.625C67.9819 5.625 72.1875 9.83063 72.1875 15C72.1875 15.5175 71.7675 15.9375 71.25 15.9375Z" fill="#051326"/>
<path d="M15 42.1875H13.125C12.6075 42.1875 12.1875 41.7675 12.1875 41.25C12.1875 40.7325 12.6075 40.3125 13.125 40.3125H15C15.5175 40.3125 15.9375 40.7325 15.9375 41.25C15.9375 41.7675 15.5175 42.1875 15 42.1875Z" fill="#051326"/>
<path d="M41.25 42.1875H18.75C18.2325 42.1875 17.8125 41.7675 17.8125 41.25C17.8125 40.7325 18.2325 40.3125 18.75 40.3125H41.25C41.7675 40.3125 42.1875 40.7325 42.1875 41.25C42.1875 41.7675 41.7675 42.1875 41.25 42.1875Z" fill="#051326"/>
<path d="M106.875 42.1875H105C104.483 42.1875 104.062 41.7675 104.062 41.25C104.062 40.7325 104.483 40.3125 105 40.3125H106.875C107.392 40.3125 107.812 40.7325 107.812 41.25C107.812 41.7675 107.392 42.1875 106.875 42.1875Z" fill="#051326"/>
<path d="M101.25 42.1875H78.75C78.2325 42.1875 77.8125 41.7675 77.8125 41.25C77.8125 40.7325 78.2325 40.3125 78.75 40.3125H101.25C101.767 40.3125 102.188 40.7325 102.188 41.25C102.188 41.7675 101.767 42.1875 101.25 42.1875Z" fill="#051326"/>
<path d="M19.6875 97.5H15.9375C15.42 97.5 15 97.08 15 96.5625V74.0625C15 73.545 15.42 73.125 15.9375 73.125H19.6875C21.2381 73.125 22.5 74.3869 22.5 75.9375V94.6875C22.5 96.2381 21.2381 97.5 19.6875 97.5ZM16.875 95.625H19.6875C20.205 95.625 20.625 95.205 20.625 94.6875V75.9375C20.625 75.42 20.205 75 19.6875 75H16.875V95.625Z" fill="#051326"/>
<path d="M104.062 97.5H100.312C98.7619 97.5 97.5 96.2381 97.5 94.6875V75.9375C97.5 74.3869 98.7619 73.125 100.312 73.125H104.062C104.58 73.125 105 73.545 105 74.0625V96.5625C105 97.08 104.58 97.5 104.062 97.5ZM100.312 75C99.795 75 99.375 75.42 99.375 75.9375V94.6875C99.375 95.205 99.795 95.625 100.312 95.625H103.125V75H100.312Z" fill="#051326"/>
</svg>
