<svg width="48" height="38" viewBox="0 0 48 38" fill="none" xmlns="http://www.w3.org/2000/svg">
<path d="M36.5998 14.3846H25.1998V18.4231C25.1998 21.2861 22.7773 23.6154 19.7998 23.6154C16.8223 23.6154 14.3998 21.2861 14.3998 18.4231V9.65386L9.53226 12.4664C8.08476 13.2957 7.19976 14.8029 7.19976 16.4183V19.8293L1.19976 23.1611C0.0522575 23.7957 -0.345243 25.2091 0.322257 26.3125L6.32226 36.3077C6.98226 37.4111 8.45226 37.7861 9.59976 37.1515L17.3548 32.8462H27.5998C30.2473 32.8462 32.3998 30.7765 32.3998 28.2308H33.5998C34.9273 28.2308 35.9998 27.1995 35.9998 25.9231V21.3077H36.5998C37.5973 21.3077 38.3998 20.5361 38.3998 19.5769V16.1154C38.3998 15.1563 37.5973 14.3846 36.5998 14.3846ZM47.6773 11.6875L41.6773 1.69233C41.0173 0.58896 39.5473 0.21396 38.3998 0.848575L30.6448 5.15386H22.9798C22.0798 5.15386 21.2023 5.39906 20.4373 5.85338L17.9248 7.36059C17.2198 7.77886 16.7998 8.52165 16.7998 9.31492V18.4231C16.7998 20.0168 18.1423 21.3077 19.7998 21.3077C21.4573 21.3077 22.7998 20.0168 22.7998 18.4231V12.0769H36.5998C38.9173 12.0769 40.7998 13.887 40.7998 16.1154V18.1707L46.7998 14.839C47.9473 14.1971 48.3373 12.7909 47.6773 11.6875Z" fill="#FF1616"/>
</svg>
