<svg width="34" height="62" viewBox="0 0 34 62" fill="none" xmlns="http://www.w3.org/2000/svg">
<path d="M7.96219 30.1406C7.17999 30.1252 6.44955 30.1147 5.69611 30.072C4.52281 30.0488 3.32363 30.0231 2.15321 29.9701C1.89152 29.9749 1.65858 29.9524 1.40264 29.8977C0.404743 29.6812 -0.0755779 28.7037 0.240667 27.593C0.278042 27.4764 0.315418 27.3599 0.375802 27.2756C1.87955 23.8768 3.05545 20.3562 4.18246 16.8009C5.45035 12.8687 6.74413 8.93903 8.03503 5.03911C8.29092 4.28293 8.57268 3.52925 8.82856 2.77307C9.18795 1.75658 9.77167 1.12216 10.7667 1.09811C11.8134 1.07905 12.8429 0.968227 13.8868 0.978927C18.5771 1.10147 23.2933 0.956204 27.9865 0.778682C29.1655 0.742365 30.3676 0.738304 31.5409 0.761501C31.9579 0.771732 32.3691 0.841477 32.7458 0.997993C33.7035 1.36078 34.0142 2.472 33.5254 3.476C33.3643 3.79083 33.1544 4.0709 32.9445 4.35097C32.3982 5.13917 31.8547 5.89762 31.3343 6.68831C29.9196 8.89437 28.5308 11.1029 27.0931 13.2767C25.6554 15.4505 24.1918 17.6218 22.7283 19.7931C22.3027 20.4128 21.88 21.0027 21.4573 21.5926C21.3366 21.7611 21.2129 21.9594 21.0289 22.242C21.2877 22.267 21.443 22.282 21.5983 22.297C23.7436 22.5342 25.8918 22.7416 28.0371 22.9788C28.1924 22.9938 28.3707 23.0411 28.5231 23.0858C29.4836 23.4188 29.8748 24.5078 29.409 25.5441C29.2422 25.9184 28.9748 26.253 28.7103 26.5578C27.494 28.0622 26.2546 29.5343 25.0613 31.071C24.4949 31.7972 23.9715 32.6176 23.5 33.4431C20.9611 37.8232 18.4509 42.176 15.9608 46.5909C13.3817 51.1172 10.8485 55.7081 8.2952 60.237C8.10543 60.5791 7.88978 60.9187 7.60223 61.1912C6.90923 61.8752 6.08676 61.7357 5.50581 60.9888C5.08878 60.4379 4.88743 59.8178 4.93052 59.1012C4.98218 57.7546 5.01083 56.3758 5.16889 55.0095C5.71778 50.1369 6.34431 45.2718 6.8932 40.3992C7.26392 37.1012 7.58287 33.7982 7.92771 30.4977C7.98809 30.4134 7.9737 30.2919 7.96219 30.1406Z" fill="#FF1616"/>
</svg>
