<svg width="226" height="86" viewBox="0 0 226 86" fill="none" xmlns="http://www.w3.org/2000/svg">
<path d="M103.214 45.8929C102.381 46.0322 101.879 46.2988 101.326 46.2391C80.9201 47.8875 60.3643 48.0999 39.2397 44.7242C29.6728 43.1895 20.3955 40.5409 11.2889 37.4985C8.91531 36.7389 6.31933 36.047 3.88883 35.4187C3.00454 35.2318 1.89789 35.1125 1.06531 35.2518C0.620582 35.3871 0.00519946 35.9162 2.79489e-05 36.3736C-0.00514357 36.8311 0.708492 37.4118 1.20493 37.6027C23.4414 45.5409 46.2054 50.9252 69.5278 51.011C81.4941 51.0181 93.3519 50.8302 105.054 49.6638C106.275 49.5205 108.049 49.4369 108.985 49.9499C121.153 56.6199 134.469 59.7495 147.857 61.3755C168.547 63.9715 189.191 65.7838 209.887 67.9224C211.159 68.1053 212.653 68.2205 214.251 68.9881C202.781 74.0727 191.203 78.9624 179.51 84.1146C180.876 85.8648 182.313 86.1113 183.922 85.964C185.752 85.7491 187.748 85.5978 189.527 85.0566C199.203 81.8856 208.878 78.7145 218.445 75.3484C220.503 74.6084 222.344 73.4786 224.02 72.2851C227.205 69.8344 226.466 66.6403 222.391 64.4607C214.349 60.2965 206.417 56.3271 198.262 52.4254C195.893 51.2084 194.062 51.4233 193.106 52.7401C192.371 53.9892 193.018 55.6161 195.329 56.9644C199.348 59.2753 203.479 61.3236 207.994 63.8253C206.996 63.901 206.551 64.0363 205.998 63.9766C185.364 61.2493 164.674 58.6533 143.989 55.5999C137.794 54.7491 131.5 52.7884 125.424 51.2176C122.994 50.5893 120.625 49.3723 117.647 48.2269C119.038 47.6897 120.149 47.3515 121.039 47.081C128.372 45.3063 135.436 42.8156 141.626 39.2231C147.092 35.9648 151.348 31.9349 153.571 26.3577C154.202 24.4563 154.89 22.4235 155.025 20.3311C155.738 11.1104 148.348 3.21483 136.796 0.916481C122.482 -2.13746 101.492 2.19603 95.0015 17.6188C91.2472 26.2829 93.5329 34.8192 100.587 43.045C101.352 43.9519 102.283 44.9224 103.214 45.8929ZM148.995 24.4447C146.668 29.3695 143.193 32.934 138.564 35.5955C131.423 40.0473 122.973 42.6176 114.254 44.472C112.31 44.9495 110.82 44.3768 109.171 43.283C100.762 37.2929 97.2252 26.7439 100.912 19.1259C105.959 8.81489 121.877 2.37748 135.917 5.17288C145.37 6.97017 150.675 12.9923 149.869 20.6458C149.631 22.0858 149.171 23.5935 148.995 24.4447Z" fill="#FF1616"/>
</svg>
