<svg width="517" height="207" viewBox="0 0 517 207" fill="none" xmlns="http://www.w3.org/2000/svg">
<path d="M24.1968 145.309C23.9836 144.92 23.9836 144.628 23.7704 144.336C9.05988 123.8 13.537 103.751 31.8719 84.1891C45.7296 69.493 66.4096 57.0355 92.2064 46.3298C138.257 26.9622 192.409 14.7967 254.235 10.3197C299.433 7.01069 344.204 7.98393 388.123 14.4074C413.493 18.1057 436.731 23.4585 456.985 31.3418C477.665 39.3224 492.589 49.0549 500.903 60.9285C501.969 62.291 503.249 63.6536 504.528 65.0161C515.827 77.279 519.238 90.0285 515.614 103.167C510.71 120.686 495.36 136.16 471.269 149.883C469.35 151.051 467.218 152.219 465.513 153.484C428.63 179.372 377.25 196.112 311.798 203.217C235.048 211.49 162.561 206.234 95.4043 187.061C67.0492 178.983 42.9581 168.667 25.476 155.431C-4.79787 132.559 -7.56942 108.812 14.3898 84.2864C28.2475 68.7144 49.5671 55.5756 76.0035 43.994C118.216 25.5997 168.317 13.2395 224.175 5.94012C254.875 1.94981 285.788 -0.0940044 317.341 0.00332017C336.742 0.00332017 356.143 0.781917 374.904 3.60433C384.925 5.0642 394.305 7.10801 402.194 10.2224C404.965 11.293 407.31 12.5582 409.655 13.7261C410.935 14.4074 412.001 15.2833 410.082 16.4512C409.229 16.2565 408.163 16.1592 407.523 15.8672C396.65 9.54113 381.514 6.52406 365.097 4.48025C346.336 2.24178 327.148 1.75516 307.748 2.24178C228.652 4.2856 158.084 16.7431 96.6835 39.7117C66.1964 51.196 41.8921 65.0161 25.2628 81.464C12.6842 94.0188 6.71472 107.06 9.05988 120.783C10.3391 128.958 15.0294 136.744 22.278 144.141C22.4912 144.433 22.9176 144.725 23.344 144.92C23.344 145.114 23.7704 145.114 24.1968 145.309ZM506.873 105.698C504.315 107.255 503.888 109.007 504.741 110.759C504.315 111.051 503.462 111.245 503.249 111.537C502.396 112.802 501.969 114.165 501.33 115.528C501.543 115.528 501.756 115.528 501.969 115.625C502.822 113.97 503.675 112.413 504.741 110.759C505.38 109.104 506.02 107.352 506.873 105.698C506.873 104.725 507.086 103.849 507.299 102.973C506.873 102.973 506.66 102.973 506.233 102.973C506.446 103.946 506.66 104.822 506.873 105.698ZM311.372 16.0619C268.733 16.1592 230.571 19.9549 194.114 27.0595C158.937 33.8723 127.81 43.3127 102.013 56.2569C84.1049 65.3081 70.034 75.4298 61.5061 87.0115C54.2575 96.8412 51.6991 106.866 55.3234 117.182C59.161 128.277 70.4604 137.718 87.5161 145.796C118.003 160.2 151.901 172.657 189.211 183.168C207.545 188.229 226.52 192.609 246.987 195.431C251.677 196.015 256.154 196.502 261.058 196.307C289.413 195.236 316.915 192.414 343.565 187.742C386.843 180.151 424.792 168.861 456.132 153.095C458.904 151.732 461.249 150.175 463.381 148.618C471.909 142 478.731 135.09 484.274 127.888C497.492 110.661 503.462 93.0456 499.198 74.8459C497.919 68.9091 494.294 63.4589 487.259 58.398C473.401 48.2763 455.706 39.9064 433.96 33.191C396.011 21.3174 353.798 16.0619 311.372 16.0619ZM208.825 19.8575C208.825 19.7602 208.611 19.5656 208.611 19.4682C206.906 19.6629 205.2 19.9549 203.495 20.1495C184.094 23.2639 165.759 27.1569 148.064 32.0231C109.475 42.7288 77.2826 56.3542 53.6179 73.8727C35.4962 87.3034 24.6232 101.805 23.7704 117.669C22.7044 136.063 34.6434 152.316 61.9325 166.039C76.0035 173.046 92.846 178.497 111.181 182.876C146.571 191.343 184.307 195.431 223.962 196.404C228.226 196.502 232.276 196.404 236.54 196.404C235.687 195.918 234.621 195.723 233.555 195.528C224.814 193.971 215.86 192.609 207.545 190.857C155.739 179.567 112.034 163.411 73.2319 144.238C66.836 141.124 62.1457 137.426 57.8818 133.533C44.2372 120.588 42.5317 107.06 49.354 93.2402C56.8158 77.9603 73.2319 64.8215 96.0439 53.3372C124.825 38.6412 160.216 28.4221 200.297 21.3174C203.282 20.8308 206.053 20.3442 208.825 19.8575ZM424.579 171.878C424.366 171.684 423.94 171.489 423.726 171.295C381.3 185.796 333.971 195.042 281.525 198.448C229.291 201.854 178.338 199.616 128.663 191.149C138.896 193.777 149.556 195.723 160.642 197.475C202.216 203.898 244.855 205.261 288.347 202.341C330.56 199.519 368.722 192.414 402.62 180.443C410.082 177.718 417.117 174.701 424.579 171.878ZM507.939 99.761C507.726 99.761 507.726 99.761 507.939 99.761C507.726 100.15 507.726 100.442 507.726 100.832H507.939C507.939 100.54 507.939 100.15 507.939 99.761Z" fill="#FF1616"/>
</svg>
