<svg width="33" height="29" viewBox="0 0 33 29" fill="none" xmlns="http://www.w3.org/2000/svg">
<path d="M10.1145 14.6364C11.4591 17.043 13.7045 18.984 16.4848 20.1432C16.6899 20.2273 16.9167 20.2637 17.143 20.2488C17.3692 20.234 17.5871 20.1683 17.7752 20.0582L21.8587 17.6941C22.0391 17.5881 22.2476 17.5234 22.4647 17.506C22.6818 17.4887 22.9004 17.5193 23.1001 17.595L30.7445 20.4404C31.0058 20.5347 31.224 20.7007 31.3657 20.913C31.5074 21.1254 31.5646 21.3721 31.5285 21.6154C31.2863 23.2543 30.3632 24.7606 28.9321 25.8523C27.5011 26.9441 25.66 27.5465 23.7535 27.5469C17.8619 27.5469 12.2115 25.5185 8.04552 21.9079C3.87951 18.2974 1.53906 13.4005 1.53906 8.29437C1.53949 6.64205 2.23459 5.04647 3.4943 3.80621C4.75401 2.56594 6.492 1.76597 8.38307 1.55599C8.66375 1.52474 8.9485 1.57433 9.19348 1.69711C9.43845 1.81989 9.63006 2.00906 9.7388 2.23549L13.022 8.87477C13.1073 9.04514 13.1431 9.23109 13.126 9.41624C13.1089 9.60139 13.0395 9.78006 12.924 9.93649L10.1962 13.5322C10.0747 13.6948 10.0034 13.8817 9.98914 14.075C9.97484 14.2684 10.018 14.4616 10.1145 14.6364V14.6364Z" stroke="#FF1616" stroke-width="2" stroke-linecap="round" stroke-linejoin="round"/>
</svg>
