<svg width="301" height="96" viewBox="0 0 301 96" fill="none" xmlns="http://www.w3.org/2000/svg">
<path d="M115.644 65.9679C128.308 55.1299 131.743 45.763 132.369 36.8414C132.747 31.8441 132.004 27.2405 129.041 23.4789C127.816 21.8759 126.369 20.4272 123.989 19.4863C122.488 18.9516 120.888 18.5213 118.843 18.3995C115.043 18.1655 110.536 19.6857 106.62 22.303C104.157 23.945 102.339 25.77 100.91 27.5002C98.4496 30.5429 96.9338 33.4554 95.951 36.2778C93.3004 43.7315 94.0582 50.1133 96.7145 55.9117C98.5667 59.7442 101.152 63.2777 104.546 66.3533C104.78 66.5766 104.87 66.795 105.126 67.0729C102.02 69.2322 98.4236 70.8904 94.6609 72.4892C79.0441 79.2428 63.2352 84.4816 47.4011 88.265C42.2045 89.493 37.0853 90.5619 32.0212 91.4172C22.2041 93.1919 13.3729 93.5449 5.83853 92.5404C4.49396 92.388 3.14939 92.2356 1.68272 92.133C1.53829 92.1282 1.29409 92.2278 0.683594 92.4769C1.08413 92.7595 1.3179 92.9828 1.67377 93.1562C8.28936 95.7463 16.7454 96.5659 27.1863 95.62C40.2151 94.3829 53.9289 91.337 67.9732 87.0093C79.4862 83.4593 90.7759 79.3632 101.763 74.1797C104.161 73.0742 106.613 71.7551 109.21 70.4408C109.566 70.6142 109.944 70.8422 110.322 71.0703C115.651 74.695 121.524 77.9068 128.994 80.1482C135.008 81.9641 141.643 83.2081 149.565 83.4174C153.875 83.5068 158.485 83.2829 163.427 82.4774C176.099 80.3666 186.386 75.2137 193.435 67.3674C193.834 66.9497 194.234 66.532 194.832 65.9055C195.566 66.307 196.111 66.5944 196.801 66.8867C201.583 69.5236 206.71 71.9564 212.746 73.827C217.949 75.4004 223.695 76.561 230.605 76.7367C233.927 76.8471 237.404 76.6394 241.28 76.014C250.608 74.4385 258.677 70.828 265.464 65.1278C266.751 64.0932 267.749 63.0489 269.113 61.8553C269.847 62.2567 270.392 62.5442 270.959 62.8863C276.042 65.9103 281.836 68.5808 288.495 70.5797C290.14 71.1192 292.007 71.5045 293.974 71.7853C294.908 71.9779 296.263 71.8075 297.518 71.7414C298.607 71.616 299.705 71.1677 300.381 70.3821C301.057 69.5965 300.512 69.309 299.601 69.171C297.756 68.8404 296.011 68.4053 294.388 67.9204C286.251 65.4414 279.467 62.0916 273.493 58.2838C272.926 57.9417 272.481 57.5499 273.134 56.7097C279.016 48.4475 280.845 41.0743 280.952 34.0209C281.198 24.1709 278.469 15.4072 272.809 7.83905C270.893 5.2435 268.533 2.95644 264.752 1.37634C263.374 0.791835 261.751 0.306949 259.95 0.0855275C255.461 -0.440721 250.41 1.49238 246.729 5.03322C244.49 7.22134 243.194 9.27921 242.332 11.3515C240.441 15.4366 239.982 19.1923 240.157 22.7534C240.393 29.6028 242.828 35.5554 246.628 41.0148C251.208 47.6852 257.33 53.5988 264.607 58.8505C265.43 59.4704 265.676 60.0711 264.312 61.2648C262.649 62.7718 261.152 64.3381 259.322 65.7857C255.219 68.9892 250.379 71.091 244.971 72.1503C241.284 72.8897 238.074 73.0524 235.041 72.9516C229.742 72.8833 225.285 72.0888 221.028 71.0854C212.136 68.8507 204.919 65.4864 198.489 61.6097C197.922 61.2676 197.643 60.9351 198.053 60.1946C201.515 52.9833 201.768 46.6351 200.756 40.6758C199.687 34.2298 197.153 28.3815 192.565 23.4347C190.795 21.5443 188.78 19.7536 185.856 18.5251C184.644 18 183.187 17.5746 181.554 17.4125C177.543 17.0099 172.925 18.9574 170.61 22.0049C169.502 23.4765 168.805 24.9078 168.375 26.2941C167.239 30.135 167.757 33.4921 168.519 36.7496C171.296 47.0233 178.867 55.0859 188.791 61.9339C189.169 62.1619 189.426 62.4398 189.926 62.618C190.638 62.9649 190.594 63.556 190.041 64.2918C188.733 65.9722 187.593 67.712 185.852 69.378C181.916 73.3413 176.379 76.174 169.827 77.5724C166.429 78.3215 163.019 78.693 159.831 78.9103C154.277 79.2644 149.522 78.7832 145.087 78.0433C135.763 76.4945 128.414 73.503 122.073 69.8446C119.916 68.7494 117.913 67.3362 115.644 65.9679ZM269.043 55.0654C268.542 54.8871 268.376 54.8277 268.187 54.7137C267.831 54.5403 267.575 54.2624 267.219 54.089C259.775 48.7779 253.73 42.7053 249.716 35.6766C246.772 30.5689 244.805 25.0627 245.303 18.6148C245.541 15.7138 245.924 12.8176 247.717 9.5372C248.558 8.11067 249.666 6.63913 251.062 5.17719C252.359 3.81967 254.213 3.12709 255.914 3.45294C257.447 3.71937 258.904 4.14484 259.993 4.71975C263.908 6.62752 266.18 9.39649 268.108 12.3695C272.21 18.9163 274.215 26.2553 274.387 34.3415C274.466 40.1082 273.645 46.1143 270.371 52.7392C269.917 53.3706 269.629 54.0613 269.043 55.0654ZM111.548 62.2225C110.914 61.7166 110.491 61.3793 110.212 61.0469C109.098 59.717 107.885 58.4915 106.893 57.1119C103.294 52.144 101.427 46.5334 102.269 39.8815C102.717 36.4487 103.843 32.9308 106.401 29.0833C107.387 27.6615 108.661 26.2494 110.08 24.8421C112.043 23.0218 113.719 22.5927 115.776 23.092C116.565 23.2798 117.254 23.5721 117.7 23.964C118.824 24.971 120.092 25.9828 120.873 27.1938C123.67 31.5964 124.104 36.8361 123.049 42.619C122.093 47.5971 119.804 52.8003 115.117 58.4086C114.164 59.5621 112.945 60.7606 111.548 62.2225ZM176.308 21.6556C176.552 21.5559 176.919 21.4065 177.185 21.3615C177.997 21.6039 179.03 21.6921 179.72 21.9844C180.999 22.6733 182.422 23.367 183.479 24.2102C188.554 28.2574 191.231 33.4101 192.831 39.0658C194.353 44.1801 194.898 49.6929 193.666 55.7392C193.579 56.2211 193.369 56.7529 193.159 57.2846C192.247 57.1466 191.58 56.9089 191.28 56.5219C188.497 53.8975 185.37 51.4772 182.953 48.7034C178.366 43.7566 175.221 38.1574 174.419 31.6664C174.103 29.5011 174.52 27.037 174.959 24.6274C174.891 23.7633 175.722 22.6596 176.308 21.6556Z" fill="#FF1616"/>
</svg>
