<svg width="80" height="81" viewBox="0 0 80 81" fill="none" xmlns="http://www.w3.org/2000/svg">
<circle cx="36" cy="45.0002" r="33" fill="#EEEFF0" stroke="#EEEFF0" stroke-width="6"/>
<circle cx="65" cy="14.9998" r="14" fill="#FF1616" stroke="#EEEFF0" stroke-width="2"/>
<path d="M62.9263 19V18.148H64.9183V11.392H65.4463L63.1183 12.844V11.848L65.1943 10.54H65.9143V18.148H67.7863V19H62.9263Z" fill="#EEEFF0"/>
<g clip-path="url(#clip0_248_1524)">
<path d="M25.2721 55.2944L24.1542 58.0279C24.1192 58.1112 24.0996 58.2036 24.0996 58.3002C24.0996 58.6866 24.4132 59.0002 24.7996 59.0002C24.8451 59.0002 24.8892 58.996 24.9312 58.9876L54.3312 53.3876C54.656 53.3267 54.8996 53.0425 54.8996 52.7002C54.8996 52.4797 54.7974 52.283 54.6385 52.1549L51.1364 49.3535C51.0167 49.2576 50.8648 49.2002 50.6996 49.2002C50.6527 49.2002 50.6072 49.2051 50.5631 49.2135L38.7142 51.5837" stroke="#FF1616" stroke-miterlimit="10"/>
<path d="M24.1211 58.4702L24.8211 61.2702C24.8974 61.5747 25.1725 61.8001 25.5001 61.8001C25.5456 61.8001 25.5897 61.7959 25.6317 61.7875L55.0324 56.1875C55.3558 56.1259 55.6001 55.8417 55.6001 55.5001C55.6001 55.4413 55.5931 55.3846 55.5791 55.33L54.8791 52.53" stroke="#FF1616" stroke-miterlimit="10"/>
<path d="M16.6309 59.2957C18.8723 61.2032 23.1157 65.3003 29.6999 65.3003C31.5668 65.3003 35.2999 64.9174 35.2999 63.2003C35.2999 61.7345 34.1148 60.9302 33.1999 60.3464" stroke="#FF1616" stroke-miterlimit="10"/>
<path d="M29.7549 61.0022L31.5035 62.9643" stroke="#FF1616" stroke-miterlimit="10"/>
<path d="M35.0459 63.9743C37.0542 63.6845 38.8 62.9642 38.8 61.8001C38.8 60.3672 37.0423 59.614 37.0423 59.614" stroke="#FF1616" stroke-miterlimit="10"/>
<path d="M30.2811 52.9019L28.1279 58.3787" stroke="#FF1616" stroke-miterlimit="10"/>
<path d="M44.9629 40.8364L45.3822 42.1461" stroke="#FF1616" stroke-miterlimit="10"/>
<path d="M44.5025 39.4L44.0608 38.0224L44.8588 36.4383C45.0114 36.1772 45.0996 35.8741 45.0996 35.55C45.0996 34.5833 44.3163 33.8 43.3496 33.8C42.3829 33.8 41.5996 34.5833 41.5996 35.55C41.5996 35.6326 41.6052 35.7131 41.6164 35.7929" stroke="#FF1616" stroke-miterlimit="10"/>
<path d="M50.7002 37.3C50.7002 33.4339 47.5663 30.3 43.7002 30.3C39.8341 30.3 36.7002 33.4339 36.7002 37.3C36.7002 41.1661 39.8341 44.3 43.7002 44.3L47.2002 46.4L47.9002 42.8902C49.5977 41.6134 50.7002 39.5876 50.7002 37.3Z" stroke="#FF1616" stroke-miterlimit="10"/>
<path d="M42.088 27.932C40.8042 26.385 38.8666 25.4001 36.6994 25.4001C33.9022 25.4001 31.4879 27.0409 30.3672 29.4125" stroke="#FF1616" stroke-miterlimit="10"/>
<path d="M49.8531 60.0242L41.0107 61.7091" stroke="#FF1616" stroke-miterlimit="10"/>
<path d="M55.468 58.9553L51.5781 59.6959" stroke="#FF1616" stroke-miterlimit="10"/>
<path d="M17.2627 50.8387C21.2443 49.0446 25.5003 47.8 27.6003 47.8C29.7003 47.8 33.0785 47.8175 34.6003 48.5C36.1606 49.2 38.8003 50.7169 38.8003 52C38.8003 52.9884 37.8161 53.4 36.7003 53.4C33.3095 53.4 33.6378 52 31.1003 52C28.3031 55.6106 23.3282 55.5253 22.7549 55.5029" stroke="#FF1616" stroke-miterlimit="10"/>
<path d="M35.9994 31.7002H24.7994C24.0259 31.7002 23.3994 32.3267 23.3994 33.1002V40.1002C23.3994 40.8737 24.0259 41.5002 24.7994 41.5002H28.2994L32.4994 44.3002V41.5002H35.2994" stroke="#FF1616" stroke-miterlimit="10"/>
<path d="M31.1002 35.9001H29.7002V37.3001H31.1002V35.9001Z" fill="#FF1616"/>
<path d="M28.3004 35.9001H26.9004V37.3001H28.3004V35.9001Z" fill="#FF1616"/>
<path d="M33.9 35.9001H32.5V37.3001H33.9V35.9001Z" fill="#FF1616"/>
</g>
<defs>
<clipPath id="clip0_248_1524">
<rect width="42" height="42" fill="white" transform="translate(15 24.0002)"/>
</clipPath>
</defs>
</svg>
