<svg width="80" height="81" viewBox="0 0 80 81" fill="none" xmlns="http://www.w3.org/2000/svg">
<circle cx="36" cy="45.0002" r="33" fill="#EEEFF0" stroke="#EEEFF0" stroke-width="6"/>
<circle cx="65" cy="14.9998" r="14" fill="#FF1616" stroke="#EEEFF0" stroke-width="2"/>
<path d="M66.0343 19V17.164H62.0023V16.444L66.1903 10.54H67.0063V16.36H68.3023V17.164H67.0063V19H66.0343ZM66.0343 16.36V11.716H66.2983L62.8183 16.612V16.36H66.0343Z" fill="#EEEFF0"/>
<path d="M24.7998 36.6003C26.7328 36.6003 28.2998 35.0333 28.2998 33.1003C28.2998 31.1673 26.7328 29.6003 24.7998 29.6003C22.8668 29.6003 21.2998 31.1673 21.2998 33.1003C21.2998 35.0333 22.8668 36.6003 24.7998 36.6003Z" stroke="#FF1616" stroke-miterlimit="10"/>
<path d="M30.7472 42.7072C29.5124 40.722 27.3102 39.4004 24.8 39.4004C22.2898 39.4004 20.089 40.7213 18.8535 42.7058" stroke="#FF1616" stroke-miterlimit="10"/>
<path d="M46.5 56.9004C48.433 56.9004 50 55.3334 50 53.4004C50 51.4674 48.433 49.9004 46.5 49.9004C44.567 49.9004 43 51.4674 43 53.4004C43 55.3334 44.567 56.9004 46.5 56.9004Z" stroke="#FF1616" stroke-miterlimit="10"/>
<path d="M52.4467 63.0056C51.2112 61.0211 49.0104 59.7002 46.5002 59.7002C43.99 59.7002 41.7892 61.0211 40.5537 63.0056" stroke="#FF1616" stroke-miterlimit="10"/>
<path d="M50 38.0002V39.4002C50 40.1737 49.3735 40.8002 48.6 40.8002H40.4632L35.3 43.6002V40.8002H32.5" stroke="#FF1616" stroke-miterlimit="10"/>
<path d="M18.5 38.7003V28.2003C18.5 27.4268 19.1265 26.8003 19.9 26.8003H48.6C49.3735 26.8003 50 27.4268 50 28.2003V36.6003" stroke="#FF1616" stroke-miterlimit="10"/>
<path d="M21.2998 58.3003V59.7003C21.2998 60.4738 21.9263 61.1003 22.6998 61.1003H30.8366L35.9998 63.7106L36.0005 61.1003H38.7998" stroke="#FF1616" stroke-miterlimit="10"/>
<path d="M52.7998 59.0003V48.5003C52.7998 47.7268 52.1733 47.1003 51.3998 47.1003H22.6998C21.9263 47.1003 21.2998 47.7268 21.2998 48.5003V56.9003" stroke="#FF1616" stroke-miterlimit="10"/>
<path d="M33.9 53.4001H32.5V54.8001H33.9V53.4001Z" fill="#FF1616"/>
<path d="M37.4 53.4001H36V54.8001H37.4V53.4001Z" fill="#FF1616"/>
<path d="M30.4 53.4001H29V54.8001H30.4V53.4001Z" fill="#FF1616"/>
<path d="M33.9004 31.7002H40.9004" stroke="#FF1616" stroke-miterlimit="10"/>
<path d="M33.9004 35.9001H46.5004" stroke="#FF1616" stroke-miterlimit="10"/>
<path d="M52.7998 26.1003V33.1003" stroke="#FF1616" stroke-miterlimit="10"/>
<path d="M52.7998 34.5002V36.6002" stroke="#FF1616" stroke-miterlimit="10"/>
</svg>
