<svg width="80" height="81" viewBox="0 0 80 81" fill="none" xmlns="http://www.w3.org/2000/svg">
<circle cx="36" cy="45.0002" r="33" fill="#EEEFF0" stroke="#EEEFF0" stroke-width="6"/>
<circle cx="65" cy="14.9998" r="14" fill="#FF1616" stroke="#EEEFF0" stroke-width="2"/>
<path d="M64.9543 19.108C64.3863 19.108 63.8423 19.02 63.3223 18.844C62.8023 18.668 62.3663 18.416 62.0143 18.088L62.3863 17.32C62.7783 17.64 63.1823 17.872 63.5983 18.016C64.0143 18.16 64.4623 18.232 64.9423 18.232C65.5743 18.232 66.0543 18.1 66.3823 17.836C66.7103 17.564 66.8743 17.168 66.8743 16.648C66.8743 16.152 66.7063 15.776 66.3703 15.52C66.0343 15.256 65.5423 15.124 64.8943 15.124H63.6223V14.296H64.8103C65.3703 14.296 65.8143 14.152 66.1423 13.864C66.4703 13.576 66.6343 13.184 66.6343 12.688C66.6343 12.24 66.4823 11.9 66.1783 11.668C65.8823 11.428 65.4543 11.308 64.8943 11.308C63.9823 11.308 63.1943 11.632 62.5303 12.28L62.1583 11.5C62.4863 11.164 62.8983 10.904 63.3943 10.72C63.8903 10.528 64.4103 10.432 64.9543 10.432C65.7863 10.432 66.4383 10.624 66.9103 11.008C67.3823 11.392 67.6183 11.924 67.6183 12.604C67.6183 13.124 67.4703 13.572 67.1743 13.948C66.8783 14.316 66.4783 14.568 65.9743 14.704V14.572C66.5743 14.668 67.0383 14.908 67.3663 15.292C67.6943 15.668 67.8583 16.144 67.8583 16.72C67.8583 17.456 67.5983 18.04 67.0783 18.472C66.5663 18.896 65.8583 19.108 64.9543 19.108Z" fill="#EEEFF0"/>
<path d="M45.8004 64.6003C50.4396 64.6003 54.2004 60.8395 54.2004 56.2003C54.2004 51.5611 50.4396 47.8003 45.8004 47.8003C41.1612 47.8003 37.4004 51.5611 37.4004 56.2003C37.4004 60.8395 41.1612 64.6003 45.8004 64.6003Z" stroke="#FF1616" stroke-miterlimit="10"/>
<path d="M43 58.3002C43 59.4601 44.2537 60.4002 45.8 60.4002C47.3463 60.4002 48.6 59.4601 48.6 58.3002C48.6 57.1403 47.3463 56.2002 45.8 56.2002C44.2537 56.2002 43 55.2601 43 54.1002C43 52.9403 44.2537 52.0002 45.8 52.0002C47.3463 52.0002 48.6 52.9403 48.6 54.1002" stroke="#FF1616" stroke-miterlimit="10"/>
<path d="M45.7998 52.0004V49.9004" stroke="#FF1616" stroke-miterlimit="10"/>
<path d="M45.7998 62.5004V60.4004" stroke="#FF1616" stroke-miterlimit="10"/>
<path d="M37.4 62.5004H23.3258C22.3346 62.5004 21.4778 61.8067 21.272 60.8372L18.528 47.9306C18.5091 47.8438 18.5 47.7556 18.5 47.6674C18.5 46.9674 19.067 46.4004 19.767 46.4004H29" stroke="#FF1616" stroke-miterlimit="10"/>
<path d="M30.4004 46.4004H33.808C34.2994 46.4004 34.7551 46.1428 35.0085 45.7207L36.2937 43.5794C36.5464 43.158 37.0021 42.9004 37.4942 42.9004H52.2306C52.932 42.9004 53.5004 43.4688 53.5004 44.1702C53.5004 44.257 53.4913 44.3431 53.4738 44.4278L52.7752 47.8004" stroke="#FF1616" stroke-miterlimit="10"/>
<path d="M47.9004 40.8003V26.1003H29.7004L23.4004 32.4003V44.3003" stroke="#FF1616" stroke-miterlimit="10"/>
<path d="M29.7004 26.1003V32.4003H23.4053" stroke="#FF1616" stroke-miterlimit="10"/>
<path d="M32.5 32.4004H38.1" stroke="#FF1616" stroke-miterlimit="10"/>
<path d="M39.5 32.4004H42.3" stroke="#FF1616" stroke-miterlimit="10"/>
<path d="M26.2002 39.4004H32.5002" stroke="#FF1616" stroke-miterlimit="10"/>
<path d="M26.2002 35.9004H45.1002" stroke="#FF1616" stroke-miterlimit="10"/>
<path d="M33.9004 39.4004H35.3004" stroke="#FF1616" stroke-miterlimit="10"/>
</svg>
