<svg width="80" height="81" viewBox="0 0 80 81" fill="none" xmlns="http://www.w3.org/2000/svg">
<circle cx="36" cy="45.0002" r="33" fill="#EEEFF0" stroke="#EEEFF0" stroke-width="6"/>
<circle cx="65" cy="14.9998" r="14" fill="#FF1616" stroke="#EEEFF0" stroke-width="2"/>
<path d="M62.4343 19V18.256L65.4343 15.124C65.8263 14.716 66.1183 14.328 66.3103 13.96C66.5103 13.584 66.6103 13.196 66.6103 12.796C66.6103 12.308 66.4583 11.94 66.1543 11.692C65.8503 11.436 65.4103 11.308 64.8343 11.308C64.3863 11.308 63.9703 11.388 63.5863 11.548C63.2103 11.7 62.8463 11.944 62.4943 12.28L62.1343 11.5C62.4543 11.18 62.8623 10.924 63.3583 10.732C63.8543 10.532 64.3783 10.432 64.9303 10.432C65.7863 10.432 66.4463 10.632 66.9103 11.032C67.3743 11.424 67.6063 11.984 67.6063 12.712C67.6063 13.248 67.4743 13.76 67.2103 14.248C66.9543 14.728 66.5783 15.224 66.0823 15.736L63.4303 18.424V18.148H67.9663V19H62.4343Z" fill="#EEEFF0"/>
<g clip-path="url(#clip0_248_1525)">
<path d="M32.5006 34.5001V38.3501C32.5006 41.2502 34.8505 43.6001 37.7506 43.6001C40.6507 43.6001 43.0006 41.2502 43.0006 38.3501V32.4659C43.0006 30.1104 41.0903 28.2001 38.7348 28.2001H38.1006C34.6006 28.2001 33.2006 25.4001 33.2006 25.4001C33.2006 25.4001 31.1006 26.8001 31.1006 28.9001C31.1006 31.0001 32.5006 33.1001 36.0006 33.1001" stroke="#FF1616" stroke-miterlimit="10"/>
<path d="M32.5 35.2002V32.0264" stroke="#FF1616" stroke-miterlimit="10"/>
<path d="M50.0006 66.0002V55.5933C50.0006 52.9494 48.5488 50.5183 46.2213 49.2653L40.9006 46.4002L39.8359 43.1697" stroke="#FF1616" stroke-miterlimit="10"/>
<path d="M45.1006 57.6001V66.0001" stroke="#FF1616" stroke-miterlimit="10"/>
<path d="M40.9 46.4001L37.75 48.5001L40.2 52.0001L44.4 48.2845" stroke="#FF1616" stroke-miterlimit="10"/>
<path d="M35.6653 43.1697L34.6006 46.4002L37.7506 48.5002L35.3006 52.0002L31.1006 48.2846" stroke="#FF1616" stroke-miterlimit="10"/>
<path d="M34.6008 46.4001L31.1008 48.2845L24.0805 46.7921L28.655 39.8544C28.8734 39.5233 29.0008 39.1264 29.0008 38.7001C29.0008 37.5402 28.06 36.6001 26.9008 36.6001C26.2134 36.6001 25.603 36.9305 25.2194 37.4408L18.2894 46.6815C17.9828 47.0903 17.8008 47.5992 17.8008 48.1501C17.8008 49.0433 18.0948 49.8371 19.1434 50.3201L27.3614 54.1015C29.2143 54.9541 30.4008 56.8063 30.4008 58.8461V66.0001" stroke="#FF1616" stroke-miterlimit="10"/>
<path d="M26.9275 36.6002L26.3108 35.3668C26.0539 34.8509 26.2597 34.2216 26.77 33.9619L28.2463 33.2115C28.7566 32.9525 29.3782 33.1604 29.6351 33.6763L32.7389 39.9196" stroke="#FF1616" stroke-miterlimit="10"/>
<path d="M33.4719 41.3937L33.7897 42.0335C34.0466 42.5494 33.8401 43.1787 33.3305 43.4384L31.8542 44.1888C31.3439 44.4478 30.7216 44.2399 30.4654 43.724L28.5908 39.9531" stroke="#FF1616" stroke-miterlimit="10"/>
<path d="M50.7002 36.6001V40.1001" stroke="#FF1616" stroke-miterlimit="10"/>
<path d="M50.7002 42.9001V46.4001" stroke="#FF1616" stroke-miterlimit="10"/>
<path d="M55.6006 41.5002H52.1006" stroke="#FF1616" stroke-miterlimit="10"/>
<path d="M49.3008 41.5002H45.8008" stroke="#FF1616" stroke-miterlimit="10"/>
<path d="M20.6006 26.1001V28.9001" stroke="#FF1616" stroke-miterlimit="10"/>
<path d="M20.6006 31.7002V34.5002" stroke="#FF1616" stroke-miterlimit="10"/>
<path d="M24.8 30.3H22" stroke="#FF1616" stroke-miterlimit="10"/>
<path d="M19.2004 30.3H16.4004" stroke="#FF1616" stroke-miterlimit="10"/>
</g>
<defs>
<clipPath id="clip0_248_1525">
<rect width="42" height="42" fill="white" transform="translate(15 24.0002)"/>
</clipPath>
</defs>
</svg>
