<svg width="80" height="81" viewBox="0 0 80 81" fill="none" xmlns="http://www.w3.org/2000/svg">
<circle cx="36" cy="45.0002" r="33" fill="#EEEFF0" stroke="#EEEFF0" stroke-width="6"/>
<circle cx="65" cy="14.9998" r="14" fill="#FF1616" stroke="#EEEFF0" stroke-width="2"/>
<path d="M65.2783 19.108C64.2543 19.108 63.4623 18.748 62.9023 18.028C62.3503 17.3 62.0743 16.284 62.0743 14.98C62.0743 14.004 62.2143 13.18 62.4943 12.508C62.7743 11.828 63.1743 11.312 63.6943 10.96C64.2143 10.608 64.8423 10.432 65.5783 10.432C66.0183 10.432 66.4623 10.524 66.9103 10.708C67.3583 10.884 67.7263 11.132 68.0143 11.452L67.6543 12.22C67.3503 11.908 67.0183 11.68 66.6583 11.536C66.2983 11.384 65.9343 11.308 65.5663 11.308C64.7503 11.308 64.1223 11.6 63.6823 12.184C63.2503 12.76 63.0343 13.628 63.0343 14.788V15.904H62.9263C62.9823 15.448 63.1183 15.056 63.3343 14.728C63.5583 14.392 63.8503 14.136 64.2103 13.96C64.5703 13.784 64.9703 13.696 65.4103 13.696C65.9223 13.696 66.3743 13.808 66.7663 14.032C67.1583 14.256 67.4663 14.572 67.6903 14.98C67.9143 15.38 68.0263 15.84 68.0263 16.36C68.0263 16.888 67.9103 17.36 67.6783 17.776C67.4463 18.192 67.1223 18.52 66.7063 18.76C66.2903 18.992 65.8143 19.108 65.2783 19.108ZM65.2063 18.268C65.5743 18.268 65.8983 18.192 66.1783 18.04C66.4663 17.88 66.6863 17.66 66.8383 17.38C66.9983 17.092 67.0783 16.764 67.0783 16.396C67.0783 16.028 66.9983 15.704 66.8383 15.424C66.6863 15.144 66.4663 14.924 66.1783 14.764C65.8983 14.604 65.5743 14.524 65.2063 14.524C64.8383 14.524 64.5143 14.604 64.2343 14.764C63.9543 14.924 63.7343 15.144 63.5743 15.424C63.4223 15.704 63.3463 16.028 63.3463 16.396C63.3463 16.764 63.4223 17.092 63.5743 17.38C63.7343 17.66 63.9543 17.88 64.2343 18.04C64.5143 18.192 64.8383 18.268 65.2063 18.268Z" fill="#EEEFF0"/>
<g clip-path="url(#clip0_250_1767)">
<path d="M29.0002 24.7002C27.4539 24.7002 26.2002 26.0057 26.2002 27.6171V28.7833C26.2002 30.3947 27.4539 31.7002 29.0002 31.7002C30.5465 31.7002 31.8002 30.3947 31.8002 28.7833V27.6171C31.8002 26.0057 30.5465 24.7002 29.0002 24.7002Z" stroke="#FF1616" stroke-miterlimit="10"/>
<path d="M29.0004 49.9002V62.5002L28.2283 62.7571C27.4352 63.0217 26.9004 63.7644 26.9004 64.6002C26.9004 64.9873 27.2133 65.3002 27.6004 65.3002H31.1004C31.8732 65.3002 32.5004 64.673 32.5004 63.9002V42.8687" stroke="#FF1616" stroke-miterlimit="10"/>
<path d="M26.2002 38.7002V47.1002L24.3606 53.8447C24.1877 54.4789 24.1002 55.1334 24.1002 55.7907C24.1002 56.0637 24.1149 56.336 24.145 56.6076L24.8002 62.5002L24.0281 62.7571C23.235 63.0217 22.7002 63.7644 22.7002 64.6002C22.7002 64.9873 23.0131 65.3002 23.4002 65.3002H24.8002" stroke="#FF1616" stroke-miterlimit="10"/>
<path d="M26.2002 46.4002L23.2651 42.8785C22.8997 42.4403 22.7002 41.888 22.7002 41.3175C22.7002 40.9766 22.7716 40.6392 22.9109 40.3277L24.761 36.1634C25.2104 35.1526 26.2135 34.5002 27.3202 34.5002H30.8776C31.9976 34.5002 33.0091 35.1673 33.4508 36.197L35.1875 40.2493C35.2603 40.4187 35.3002 40.6042 35.3002 40.8002C35.3002 41.3896 34.9355 41.8943 34.4196 42.1001L30.9196 43.5008C30.7586 43.5645 30.5836 43.6002 30.4002 43.6002C29.6274 43.6002 29.0002 42.973 29.0002 42.2002C29.0002 41.6206 29.3733 41.1026 29.8808 40.9003L32.3805 39.9" stroke="#FF1616" stroke-miterlimit="10"/>
<path d="M36.5152 34.442L39.4965 32.4001H47.2C47.9728 32.4001 48.6 31.7729 48.6 31.0001V26.8001C48.6 26.0273 47.9728 25.4001 47.2 25.4001H37.4C36.6272 25.4001 36 26.0273 36 26.8001V34.1697C36 34.435 36.2968 34.5918 36.5152 34.442V34.442Z" stroke="#FF1616" stroke-miterlimit="10"/>
<path d="M40.1998 28.2002H38.7998V29.6002H40.1998V28.2002Z" fill="#FF1616"/>
<path d="M42.9996 28.2002H41.5996V29.6002H42.9996V28.2002Z" fill="#FF1616"/>
<path d="M45.8004 28.2002H44.4004V29.6002H45.8004V28.2002Z" fill="#FF1616"/>
<path d="M41.6006 47.1003V49.2003" stroke="#FF1616" stroke-miterlimit="10"/>
<path d="M39.5 53.4004C39.5 54.1732 40.1272 54.8004 40.9 54.8004H42.3C43.0728 54.8004 43.7 54.1732 43.7 53.4004C43.7 52.6276 43.0728 52.0004 42.3 52.0004H40.9C40.1272 52.0004 39.5 51.3732 39.5 50.6004C39.5 49.8276 40.1272 49.2004 40.9 49.2004H42.3C43.0728 49.2004 43.7 49.8276 43.7 50.6004" stroke="#FF1616" stroke-miterlimit="10"/>
<path d="M41.6006 56.9003V54.8003" stroke="#FF1616" stroke-miterlimit="10"/>
<path d="M49.3006 59.7004V65.3004H34.6006" stroke="#FF1616" stroke-miterlimit="10"/>
<path d="M34.5244 38.7004H49.3007V55.5004" stroke="#FF1616" stroke-miterlimit="10"/>
<path d="M49.3008 56.9004V58.3004" stroke="#FF1616" stroke-miterlimit="10"/>
<path d="M36.7002 54.1004V59.0004C38.2465 59.0004 39.5002 60.2541 39.5002 61.8004H43.7002C43.7002 60.2541 44.9539 59.0004 46.5002 59.0004V45.0004C44.9539 45.0004 43.7002 43.7467 43.7002 42.2004H39.5002C39.5002 43.7467 38.2465 45.0004 36.7002 45.0004V49.9004" stroke="#FF1616" stroke-miterlimit="10"/>
<path d="M36.7002 51.3003V52.7003" stroke="#FF1616" stroke-miterlimit="10"/>
<path d="M52.1006 46.4004V47.8004" stroke="#FF1616" stroke-miterlimit="10"/>
<path d="M52.1006 49.2004V56.9004" stroke="#FF1616" stroke-miterlimit="10"/>
<path d="M19.9004 47.1003V52.0003" stroke="#FF1616" stroke-miterlimit="10"/>
<path d="M19.9004 53.4004V54.8004" stroke="#FF1616" stroke-miterlimit="10"/>
<path d="M21.3008 26.1003V31.7003" stroke="#FF1616" stroke-miterlimit="10"/>
<path d="M21.3008 33.1003V34.5003" stroke="#FF1616" stroke-miterlimit="10"/>
</g>
<defs>
<clipPath id="clip0_250_1767">
<rect width="42" height="42" fill="white" transform="translate(15 24.0002)"/>
</clipPath>
</defs>
</svg>
