<svg width="80" height="81" viewBox="0 0 80 81" fill="none" xmlns="http://www.w3.org/2000/svg">
<circle cx="36" cy="45.0002" r="33" fill="#EEEFF0" stroke="#EEEFF0" stroke-width="6"/>
<circle cx="65" cy="14.9998" r="14" fill="#FF1616" stroke="#EEEFF0" stroke-width="2"/>
<path d="M65.1583 19.108C64.7903 19.108 64.4303 19.068 64.0783 18.988C63.7263 18.908 63.3943 18.792 63.0823 18.64C62.7783 18.488 62.5103 18.304 62.2783 18.088L62.6503 17.32C63.0423 17.632 63.4423 17.864 63.8503 18.016C64.2583 18.16 64.6943 18.232 65.1583 18.232C65.7663 18.232 66.2423 18.068 66.5863 17.74C66.9303 17.412 67.1023 16.98 67.1023 16.444C67.1023 15.892 66.9383 15.44 66.6103 15.088C66.2823 14.736 65.8263 14.56 65.2423 14.56C64.8263 14.56 64.4543 14.644 64.1263 14.812C63.7983 14.972 63.5143 15.224 63.2743 15.568H62.5543V10.54H67.5703V11.38H63.5143V14.752H63.2503C63.4663 14.416 63.7623 14.16 64.1383 13.984C64.5223 13.8 64.9543 13.708 65.4343 13.708C65.9783 13.708 66.4463 13.82 66.8383 14.044C67.2383 14.268 67.5463 14.58 67.7623 14.98C67.9783 15.38 68.0863 15.848 68.0863 16.384C68.0863 16.92 67.9663 17.396 67.7263 17.812C67.4943 18.22 67.1583 18.54 66.7183 18.772C66.2863 18.996 65.7663 19.108 65.1583 19.108Z" fill="#EEEFF0"/>
<path d="M15.2996 62.6708C15.3152 62.6489 15.3263 62.6425 15.3304 62.6409H17.2946C17.2987 62.6425 17.3098 62.6489 17.3254 62.6708C17.3512 62.7069 17.375 62.7696 17.375 62.8502C17.375 62.9309 17.3512 62.9936 17.3254 63.0297C17.3098 63.0516 17.2987 63.058 17.2946 63.0596H15.3304C15.3263 63.058 15.3152 63.0516 15.2996 63.0297C15.2738 62.9936 15.25 62.9309 15.25 62.8502C15.25 62.7696 15.2738 62.7069 15.2996 62.6708ZM17.2929 62.6404C17.2929 62.6403 17.2934 62.6404 17.2942 62.6407L17.2929 62.6404ZM17.2929 63.0601C17.2929 63.06 17.2933 63.0599 17.2942 63.0598L17.2929 63.0601ZM15.3321 63.0601C15.3321 63.0601 15.3316 63.0601 15.3308 63.0598L15.3321 63.0601ZM15.3308 62.6407C15.3316 62.6404 15.3321 62.6403 15.3321 62.6404L15.3308 62.6407Z" fill="#FF1616" stroke="#FF1616" stroke-width="0.5"/>
<path d="M18.5808 62.6708C18.5964 62.6489 18.6076 62.6425 18.6116 62.6409H56.6696C56.6737 62.6425 56.6848 62.6489 56.7004 62.6708C56.7262 62.7069 56.75 62.7696 56.75 62.8502C56.75 62.9309 56.7262 62.9936 56.7004 63.0297C56.6848 63.0516 56.6737 63.058 56.6696 63.0596H18.6116C18.6076 63.058 18.5964 63.0516 18.5808 63.0297C18.555 62.9936 18.5312 62.9309 18.5312 62.8502C18.5312 62.7696 18.555 62.7069 18.5808 62.6708ZM56.6679 62.6404C56.6679 62.6403 56.6684 62.6404 56.6692 62.6407L56.6679 62.6404ZM56.6679 63.0601C56.6679 63.0601 56.6683 63.0599 56.6692 63.0598L56.6679 63.0601ZM18.6133 63.0601C18.6133 63.0601 18.6129 63.0601 18.612 63.0598L18.6133 63.0601ZM18.612 62.6407C18.6129 62.6404 18.6133 62.6403 18.6133 62.6404L18.612 62.6407Z" fill="#FF1616" stroke="#FF1616" stroke-width="0.5"/>
<mask id="path-6-inside-1_250_1649" fill="white">
<path d="M53.7229 60.094H55.3594L56.3109 57.2386C56.5177 56.6178 56.2361 55.9399 55.6501 55.6486L55.3522 55.5002L54.9144 53.4121C54.6388 52.0969 53.5888 51.083 52.2652 50.8533L46.9102 49.9221L39.2813 43.7599C38.6972 43.2887 37.9701 43.0315 37.2193 43.0315H23.9808C22.9262 43.0315 21.9353 43.5388 21.3184 44.3945L18.2813 48.6096H16.1589C15.649 48.6096 15.334 49.1661 15.5965 49.6032L16.9688 51.8909V55.5002C16.1242 55.5002 15.4948 56.2786 15.672 57.1048L16.3125 60.094H17.9533"/>
</mask>
<path d="M53.7229 59.594C53.4468 59.594 53.2229 59.8179 53.2229 60.094C53.2229 60.3701 53.4468 60.594 53.7229 60.594V59.594ZM55.3594 60.094V60.594H55.7198L55.8337 60.2521L55.3594 60.094ZM56.3109 57.2386L56.7853 57.3967L56.7853 57.3966L56.3109 57.2386ZM55.6501 55.6486L55.4273 56.0962L55.4275 56.0963L55.6501 55.6486ZM55.3522 55.5002L54.8628 55.6028L54.9125 55.8399L55.1293 55.9479L55.3522 55.5002ZM54.9144 53.4121L54.4251 53.5146L54.4251 53.5146L54.9144 53.4121ZM52.2652 50.8533L52.1795 51.3459L52.1797 51.346L52.2652 50.8533ZM46.9102 49.9221L46.596 50.3111L46.6968 50.3925L46.8245 50.4147L46.9102 49.9221ZM39.2813 43.7599L39.5954 43.371L39.5952 43.3708L39.2813 43.7599ZM21.3184 44.3945L20.9128 44.1021L20.9127 44.1022L21.3184 44.3945ZM18.2813 48.6096V49.1096H18.5373L18.6869 48.9019L18.2813 48.6096ZM15.5965 49.6032L16.0253 49.346L16.0252 49.3457L15.5965 49.6032ZM16.9688 51.8909H17.4688V51.7524L17.3975 51.6337L16.9688 51.8909ZM16.9688 55.5002V56.0002H17.4688V55.5002H16.9688ZM15.672 57.1048L16.1609 57L16.1609 56.9999L15.672 57.1048ZM16.3125 60.094L15.8236 60.1988L15.9083 60.594H16.3125V60.094ZM17.9533 60.594C18.2294 60.594 18.4533 60.3701 18.4533 60.094C18.4533 59.8179 18.2294 59.594 17.9533 59.594V60.594ZM53.7229 60.594H55.3594V59.594H53.7229V60.594ZM55.8337 60.2521L56.7853 57.3967L55.8366 57.0806L54.885 59.9359L55.8337 60.2521ZM56.7853 57.3966C57.0707 56.5395 56.682 55.6032 55.8727 55.2008L55.4275 56.0963C55.7903 56.2766 55.9646 56.6962 55.8365 57.0807L56.7853 57.3966ZM55.8729 55.201L55.575 55.0526L55.1293 55.9479L55.4273 56.0962L55.8729 55.201ZM55.8415 55.3977L55.4038 53.3095L54.4251 53.5146L54.8628 55.6028L55.8415 55.3977ZM55.4038 53.3095C55.0862 51.7939 53.8761 50.6254 52.3506 50.3607L52.1797 51.346C53.3015 51.5406 54.1915 52.4 54.4251 53.5146L55.4038 53.3095ZM52.3508 50.3607L46.9958 49.4295L46.8245 50.4147L52.1795 51.3459L52.3508 50.3607ZM47.2243 49.5332L39.5954 43.371L38.9671 44.1489L46.596 50.3111L47.2243 49.5332ZM39.5952 43.3708C38.9224 42.828 38.0845 42.5315 37.2193 42.5315V43.5315C37.8556 43.5315 38.472 43.7495 38.9673 44.1491L39.5952 43.3708ZM37.2193 42.5315H23.9808V43.5315H37.2193V42.5315ZM23.9808 42.5315C22.7654 42.5315 21.6236 43.1161 20.9128 44.1021L21.724 44.6869C22.2469 43.9615 23.0869 43.5315 23.9808 43.5315V42.5315ZM20.9127 44.1022L17.8756 48.3173L18.6869 48.9019L21.724 44.6868L20.9127 44.1022ZM18.2813 48.1096H16.1589V49.1096H18.2813V48.1096ZM16.1589 48.1096C15.2604 48.1096 14.7052 49.0902 15.1679 49.8606L16.0252 49.3457C15.9629 49.2421 16.0376 49.1096 16.1589 49.1096V48.1096ZM15.1678 49.8604L16.54 52.1481L17.3975 51.6337L16.0253 49.346L15.1678 49.8604ZM16.4688 51.8909V55.5002H17.4688V51.8909H16.4688ZM16.9688 55.0002C15.8058 55.0002 14.9392 56.0721 15.1831 57.2096L16.1609 56.9999C16.0505 56.485 16.4425 56.0002 16.9688 56.0002V55.0002ZM15.1831 57.2095L15.8236 60.1988L16.8014 59.9892L16.1609 57L15.1831 57.2095ZM16.3125 60.594H17.9533V59.594H16.3125V60.594Z" fill="#FF1616" mask="url(#path-6-inside-1_250_1649)"/>
<path d="M55.685 55.5784L55.685 55.5784L55.5295 55.5009C55.461 55.4668 55.412 55.4033 55.3962 55.3285L54.9907 53.3965L54.9907 53.3964C54.7065 52.0418 53.6427 51.0139 52.2788 50.7761C52.2788 50.7761 52.2787 50.7761 52.2787 50.7761L47.0078 49.86C46.9659 49.8527 46.9266 49.8349 46.8935 49.8081L39.3316 43.6992C39.3316 43.6992 39.3315 43.6991 39.3315 43.6991C38.7355 43.2179 37.9858 42.9534 37.2206 42.9534H23.9808C22.9042 42.9534 21.8851 43.4751 21.2554 44.3484C21.2554 44.3484 21.2554 44.3484 21.2554 44.3485L18.3161 48.4276C18.2691 48.4929 18.1936 48.5315 18.1133 48.5315H16.1596C15.8902 48.5315 15.6529 48.67 15.52 48.9042L55.685 55.5784ZM55.685 55.5784C56.3013 55.8851 56.6027 56.6105 56.3854 57.2634L55.4343 60.1176C55.4342 60.1177 55.4342 60.1178 55.4342 60.1179C55.4229 60.1509 55.3923 60.1721 55.3594 60.1721H53.3906C53.3476 60.1721 53.3125 60.137 53.3125 60.094C53.3125 60.0509 53.3476 60.0159 53.3906 60.0159H55.1231C55.2307 60.0159 55.3263 59.947 55.3603 59.8449L56.2371 57.214C56.4306 56.6333 56.1645 55.9915 55.6158 55.7188C55.6158 55.7187 55.6157 55.7187 55.6157 55.7187L55.3179 55.5704L55.3176 55.5703C55.2957 55.5594 55.2807 55.5395 55.2761 55.5172L55.2759 55.5165L54.8376 53.429C54.5672 52.1382 53.5506 51.1574 52.2509 50.9312L52.2509 50.9312L46.8982 50.0003C46.898 50.0003 46.8978 50.0002 46.8977 50.0002C46.8836 49.9976 46.87 49.9912 46.86 49.9831L39.2317 43.8214L55.685 55.5784ZM15.5294 49.6439L15.5294 49.6439L16.855 51.8535C16.8783 51.8923 16.8906 51.9368 16.8906 51.9821V55.2049C16.8906 55.324 16.8067 55.4265 16.69 55.45C16.3722 55.514 16.0857 55.6858 15.877 55.9441L15.8769 55.9442C15.6087 56.276 15.5064 56.7042 15.5962 57.1211L15.5962 57.1213L16.2367 60.1112L16.2367 60.1112C16.2442 60.1463 16.2756 60.1721 16.3125 60.1721H18.2813C18.3243 60.1721 18.3594 60.137 18.3594 60.094C18.3594 60.0509 18.3243 60.0159 18.2813 60.0159H16.5776C16.4598 60.0159 16.3579 59.9335 16.3332 59.8183L15.7478 57.0878L15.7478 57.0876L15.9923 57.0352L15.5294 49.6439ZM15.5294 49.6439C15.3907 49.4128 15.3872 49.1389 15.52 48.9042L15.5294 49.6439Z" fill="#FF1616" stroke="#FF1616" stroke-width="0.5" stroke-linejoin="round"/>
<path d="M29.7371 59.7177C29.7527 59.6958 29.7638 59.6894 29.7679 59.6877H42.5602C42.5643 59.6894 42.5754 59.6958 42.5911 59.7177C42.6169 59.7538 42.6406 59.8165 42.6406 59.8971C42.6406 59.9778 42.6169 60.0404 42.5911 60.0766C42.5754 60.0984 42.5643 60.1049 42.5602 60.1065H29.7679C29.7638 60.1049 29.7527 60.0984 29.7371 60.0766C29.7113 60.0404 29.6875 59.9778 29.6875 59.8971C29.6875 59.8165 29.7113 59.7538 29.7371 59.7177ZM42.5585 59.6873C42.5586 59.6872 42.559 59.6873 42.5598 59.6876L42.5585 59.6873ZM42.5585 60.107C42.5585 60.1069 42.559 60.1068 42.5598 60.1067L42.5585 60.107ZM29.7696 60.107C29.7696 60.107 29.7691 60.107 29.7683 60.1067L29.7696 60.107ZM29.7683 59.6876C29.7691 59.6873 29.7696 59.6872 29.7696 59.6873L29.7683 59.6876Z" fill="#FF1616" stroke="#FF1616" stroke-width="0.5"/>
<path d="M51.8281 58.4534C51.8281 60.6711 50.0303 62.469 47.8125 62.469C45.5947 62.469 43.7969 60.6711 43.7969 58.4534C43.7969 56.2356 45.5947 54.4377 47.8125 54.4377C50.0303 54.4377 51.8281 56.2356 51.8281 58.4534Z" stroke="#FF1616" stroke-width="0.5"/>
<path d="M43.4688 58.4534C43.4688 56.0583 45.4181 54.1096 47.8125 54.1096C50.2069 54.1096 52.1562 56.0583 52.1562 58.4534C52.1562 60.8484 50.2069 62.7971 47.8125 62.7971C45.4181 62.7971 43.4688 60.8484 43.4688 58.4534ZM43.625 58.4534C43.625 60.763 45.5029 62.6409 47.8125 62.6409C50.1221 62.6409 52 60.763 52 58.4534C52 56.1438 50.1221 54.2659 47.8125 54.2659C45.5029 54.2659 43.625 56.1438 43.625 58.4534Z" fill="#FF1616" stroke="#FF1616" stroke-width="0.5"/>
<path d="M27.875 58.4534C27.875 60.6711 26.0771 62.469 23.8594 62.469C21.6416 62.469 19.8438 60.6711 19.8438 58.4534C19.8438 56.2356 21.6416 54.4377 23.8594 54.4377C26.0771 54.4377 27.875 56.2356 27.875 58.4534Z" stroke="#FF1616" stroke-width="0.5"/>
<path d="M19.5156 58.4534C19.5156 56.0583 21.4643 54.1096 23.8594 54.1096C26.2544 54.1096 28.2031 56.0583 28.2031 58.4534C28.2031 60.8484 26.2544 62.7971 23.8594 62.7971C21.4643 62.7971 19.5156 60.8484 19.5156 58.4534ZM19.6719 58.4534C19.6719 60.763 21.5498 62.6409 23.8594 62.6409C26.169 62.6409 28.0469 60.763 28.0469 58.4534C28.0469 56.1438 26.169 54.2659 23.8594 54.2659C21.5498 54.2659 19.6719 56.1438 19.6719 58.4534Z" fill="#FF1616" stroke="#FF1616" stroke-width="0.5"/>
<path d="M46.2025 49.6721H25.8981C24.9269 49.6721 24.2549 48.702 24.5959 47.7931L24.5959 47.7931L25.3342 45.8243C25.5378 45.2815 26.0567 44.9221 26.6364 44.9221H40.3214L46.2025 49.6721Z" stroke="#FF1616" stroke-width="0.5"/>
<path d="M25.1733 45.7643L25.1734 45.7641C25.4016 45.1568 25.9883 44.7502 26.6366 44.7502H40.2944H40.3828L40.4515 44.8058L46.1386 49.3995L46.6889 49.844H45.9815H25.8983C25.3792 49.844 24.9093 49.5977 24.6139 49.1713C24.3186 48.7451 24.2526 48.2188 24.4351 47.7329M25.1733 45.7643L24.4351 47.7329M25.1733 45.7643L24.4351 47.7329M25.1733 45.7643L24.4351 47.7329M46.9591 49.8613L46.9593 49.8615C46.9844 49.8818 46.9948 49.9163 46.9843 49.9479C46.972 49.9803 46.9419 50.0002 46.9101 50.0002H25.8983C25.3353 50.0002 24.8069 49.7236 24.4854 49.2612C24.1647 48.7977 24.0913 48.2059 24.289 47.6782C24.289 47.6782 24.289 47.6782 24.289 47.6782L25.0272 45.7095L25.0273 45.7093C25.2768 45.0426 25.9243 44.594 26.6366 44.594H40.4106C40.4285 44.594 40.4457 44.6001 40.4594 44.6112L40.4596 44.6113L46.9591 49.8613Z" fill="#FF1616" stroke="#FF1616" stroke-width="0.5"/>
<path d="M46.3852 50.9065C46.1316 50.9065 45.9258 51.0535 45.9258 51.2346V53.1706C45.9258 53.3517 46.1316 53.4987 46.3852 53.4987C46.6387 53.4987 46.8445 53.3517 46.8445 53.1706V51.2346C46.8445 51.0535 46.6387 50.9065 46.3852 50.9065Z" fill="#FF1616"/>
<path d="M33.1781 50.9065C32.9245 50.9065 32.7188 51.0535 32.7188 51.2346V58.7815C32.7188 58.9626 32.9245 59.1096 33.1781 59.1096C33.4317 59.1096 33.6375 58.9626 33.6375 58.7815V51.2346C33.6375 51.0535 33.4317 50.9065 33.1781 50.9065Z" fill="#FF1616"/>
<path d="M33.1781 44.344C32.9245 44.344 32.7188 44.491 32.7188 44.6721V49.9221C32.7188 50.1032 32.9245 50.2502 33.1781 50.2502C33.4317 50.2502 33.6375 50.1032 33.6375 49.9221V44.6721C33.6375 44.491 33.4317 44.344 33.1781 44.344Z" fill="#FF1616"/>
<path d="M20.9883 49.9221H19.6758C19.1331 49.9221 18.6914 50.3638 18.6914 50.9065V52.219C18.6914 52.7617 19.1331 53.2034 19.6758 53.2034H20.9883C21.531 53.2034 21.9727 52.7617 21.9727 52.219V50.9065C21.9727 50.3638 21.531 49.9221 20.9883 49.9221ZM21.2088 52.219C21.2088 52.4001 21.1694 52.4875 20.9883 52.4875C20.9883 52.4875 19.8569 52.4875 19.6758 52.4875C19.4947 52.4875 19.4239 52.4001 19.4239 52.219V50.9065C19.4239 50.7254 19.4947 50.653 19.6758 50.653H20.9883C21.1694 50.653 21.2088 50.7254 21.2088 50.9065V52.219Z" fill="#FF1616"/>
<path d="M54.6704 53.4637L55.0449 55.2502H53.6876L52.9199 53.7131L52.9198 53.7129C52.7846 53.443 52.981 53.1252 53.2829 53.1252H54.5755C54.6139 53.2363 54.6461 53.3486 54.6704 53.4635C54.6704 53.4636 54.6704 53.4636 54.6704 53.4637Z" stroke="#FF1616" stroke-width="0.5"/>
<path d="M52.6263 53.8608L52.6262 53.8606C52.5111 53.6308 52.5236 53.3646 52.6587 53.1459C52.7936 52.9275 53.0262 52.7979 53.2828 52.7979H54.7488C54.7809 52.7979 54.8098 52.8174 54.8219 52.8474L55.054 52.7546L54.8216 52.8467C54.8997 53.0439 54.9544 53.2233 54.9911 53.3968C54.9912 53.3969 54.9912 53.3969 54.9912 53.397L55.4301 55.4855L55.4302 55.4856C55.4349 55.508 55.4294 55.5311 55.4146 55.5491L55.4138 55.5501C55.3988 55.5685 55.3763 55.5791 55.3532 55.5791H53.5334C53.5043 55.5791 53.4771 55.5626 53.4635 55.5358C53.4635 55.5358 53.4635 55.5357 53.4634 55.5356L52.6263 53.8608ZM53.5113 55.284L53.5804 55.4222H53.7349H54.9477H55.2555L55.1923 55.1209L54.8375 53.4293C54.8375 53.4292 54.8374 53.429 54.8374 53.4288C54.8168 53.3289 54.7892 53.2285 54.7553 53.1254L54.6988 52.9534H54.5178H53.2814C52.9901 52.9534 52.8374 53.1491 52.7887 53.2295C52.7431 53.3048 52.6342 53.5275 52.7641 53.7896L52.7641 53.7896L52.7645 53.7904L53.5113 55.284Z" fill="#FF1616" stroke="#FF1616" stroke-width="0.5"/>
<path d="M55.182 41.3565L55.182 41.3565C55.2403 41.2982 55.3355 41.2982 55.3938 41.3565C55.4518 41.4145 55.4525 41.5091 55.3935 41.5686C55.3935 41.5687 55.3934 41.5687 55.3933 41.5688L47.0072 49.9558C47.0071 49.9559 47.007 49.9561 47.0069 49.9562C46.9768 49.9857 46.9384 50.0002 46.9 50.0002C46.8616 50.0002 46.8236 49.9858 46.7937 49.9559C46.7354 49.8976 46.7354 49.8024 46.7937 49.744L55.182 41.3565Z" fill="#FF1616" stroke="#FF1616" stroke-width="0.5"/>
<path d="M39.9688 27.5315H52.4375C53.2057 27.5315 53.8281 28.1539 53.8281 28.9221V37.4534C53.8281 38.2216 53.2057 38.844 52.4375 38.844H39.9688C39.2005 38.844 38.5781 38.2216 38.5781 37.4534V28.9221C38.5781 28.1539 39.2005 27.5315 39.9688 27.5315Z" stroke="#FF1616" stroke-width="0.5"/>
<path d="M39.9688 27.2034H52.4375C53.3849 27.2034 54.1562 27.9748 54.1562 28.9221V37.4534C54.1562 38.4007 53.3849 39.1721 52.4375 39.1721H39.9688C39.0214 39.1721 38.25 38.4007 38.25 37.4534V28.9221C38.25 27.9748 39.0214 27.2034 39.9688 27.2034ZM52.4375 39.0159C53.2994 39.0159 54 38.3153 54 37.4534V28.9221C54 28.0602 53.2994 27.3596 52.4375 27.3596H39.9688C39.1068 27.3596 38.4062 28.0602 38.4062 28.9221V37.4534C38.4062 38.3153 39.1068 39.0159 39.9688 39.0159H52.4375Z" fill="#FF1616" stroke="#FF1616" stroke-width="0.5"/>
<path d="M30.0408 36.0127L30.1001 36.1786H30.2763H33.2325C33.3187 36.1786 33.3878 36.2479 33.3878 36.3339C33.3878 36.4196 33.3182 36.4892 33.2325 36.4892H29.9901C29.9249 36.4892 29.8661 36.448 29.8439 36.3857L29.8438 36.3852L28.2299 31.8661L27.9755 31.1538L27.7553 31.8774L25.2749 40.0261C25.2749 40.0262 25.2749 40.0262 25.2748 40.0263C25.2558 40.0884 25.2008 40.1317 25.137 40.1361H25.137H25.1369H25.1369H25.1369H25.1368H25.1368H25.1368H25.1367H25.1367H25.1367H25.1366H25.1366H25.1366H25.1365H25.1365H25.1365H25.1364H25.1364H25.1364H25.1363H25.1363H25.1363H25.1362H25.1362H25.1362H25.1361H25.1361H25.1361H25.136H25.136H25.136H25.1359H25.1359H25.1359H25.1358H25.1358H25.1358H25.1357H25.1357H25.1357H25.1356H25.1356H25.1356H25.1355H25.1355H25.1355H25.1354H25.1354H25.1354H25.1353H25.1353H25.1353H25.1352H25.1352H25.1352H25.1351H25.1351H25.1351H25.135H25.135H25.135H25.1349H25.1349H25.1349H25.1348H25.1348H25.1348H25.1347H25.1347H25.1347H25.1346H25.1346H25.1346H25.1345H25.1345H25.1345H25.1344H25.1344H25.1344H25.1343H25.1343H25.1343H25.1342H25.1342H25.1342H25.1341H25.1341H25.1341H25.134H25.134H25.134H25.1339H25.1339H25.1339H25.1338H25.1338H25.1338H25.1337H25.1337H25.1337H25.1336H25.1336H25.1336H25.1335H25.1335H25.1335H25.1334H25.1334H25.1334H25.1333H25.1333H25.1333H25.1332H25.1332H25.1332H25.1331H25.1331H25.1331H25.133H25.133H25.133H25.1329H25.1329H25.1329H25.1328H25.1328H25.1328H25.1327H25.1327H25.1327H25.1326H25.1326H25.1326H25.1325H25.1325H25.1325H25.1324H25.1324H25.1324H25.1323H25.1323H25.1323H25.1322H25.1322H25.1322H25.1321H25.1321H25.1321H25.132H25.132H25.132H25.1319H25.1319H25.1319H25.1318H25.1318H25.1318H25.1317H25.1317H25.1317H25.1316H25.1316H25.1316H25.1315H25.1315H25.1315H25.1314H25.1314H25.1314H25.1313H25.1313H25.1313H25.1312H25.1312H25.1312H25.1311H25.1311H25.1311H25.131H25.131H25.131H25.1309H25.1309H25.1309H25.1308H25.1308H25.1308H25.1307H25.1307H25.1307H25.1306H25.1306H25.1306H25.1305H25.1305H25.1305H25.1304H25.1304H25.1304H25.1303H25.1303H25.1303H25.1302H25.1302H25.1302H25.1301H25.1301H25.1301H25.13H25.13H25.13H25.1299H25.1299H25.1299H25.1298H25.1298H25.1298H25.1297H25.1297H25.1297H25.1296H25.1296H25.1296H25.1295H25.1295H25.1295H25.1294H25.1294H25.1294H25.1293H25.1293H25.1293H25.1292H25.1292H25.1292H25.1291H25.1291H25.1291H25.129H25.129H25.129H25.1289H25.1289H25.1289H25.1288H25.1288H25.1288H25.1287H25.1287H25.1287H25.1286H25.1286H25.1286H25.1285H25.1285H25.1285H25.1284H25.1284H25.1284H25.1283H25.1283H25.1283H25.1282H25.1282H25.1282H25.1281H25.1281H25.1281H25.128H25.128H25.128H25.1279H25.1279H25.1279H25.1278H25.1278H25.1278H25.1277H25.1277H25.1277H25.1276H25.1276H25.1276H25.1275H25.1275H25.1275H25.1274H25.1274H25.1274H25.1273H25.1273H25.1273H25.1272H25.1272H25.1272H25.1271H25.1271H25.1271H25.127H25.127H25.127H25.1269H25.1269H25.1269H25.1268H25.1268H25.1268H25.1267H25.1267H25.1267H25.1266H25.1266H25.1266H25.1265H25.1265C25.0636 40.1361 25.0059 40.0973 24.9825 40.0387L24.7504 40.1316L24.9825 40.0387L22.8368 34.675L22.6604 34.2338L22.3967 34.6291L21.2027 36.4198L21.2025 36.4201C21.1736 36.4635 21.1255 36.4892 21.0735 36.4892H17.8311C17.7454 36.4892 17.6758 36.4196 17.6758 36.3339C17.6758 36.2483 17.7454 36.1786 17.8311 36.1786H20.8571H20.9909L21.0651 36.0672L22.5655 33.8154L22.5657 33.8151C22.5988 33.7654 22.6523 33.7405 22.7091 33.7469L22.71 33.747C22.7687 33.7533 22.8183 33.7913 22.8396 33.8444C22.8396 33.8444 22.8396 33.8444 22.8396 33.8444L24.8433 38.8529L25.1076 39.5134L25.3146 38.8328L27.8152 30.6145C27.8152 30.6144 27.8153 30.6144 27.8153 30.6143C27.8343 30.5524 27.8896 30.5088 27.9539 30.5046C28.0372 30.5099 28.0919 30.5564 28.1097 30.6067L28.11 30.6076L30.0408 36.0127Z" fill="#FF1616" stroke="#FF1616" stroke-width="0.5"/>
<path d="M50.203 30.3485L50.2031 30.3487C50.49 30.635 50.4898 31.1007 50.2043 31.3862L45.564 36.0265C45.4206 36.1699 45.2331 36.2414 45.0445 36.2414C44.8558 36.2414 44.6683 36.1699 44.525 36.0265L44.5249 36.0265L42.2044 33.7067L42.2043 33.7065C41.9177 33.4204 41.9174 32.9554 42.2045 32.6683C42.4914 32.3814 42.9559 32.3814 43.2428 32.6683L44.867 34.2926L45.0438 34.4693L45.2206 34.2926L49.1646 30.3485C49.4516 30.0616 49.9161 30.0616 50.203 30.3485Z" stroke="#FF1616" stroke-width="0.5"/>
<path d="M50.4349 30.116L50.435 30.1161C50.6362 30.3173 50.7463 30.5832 50.7463 30.8673C50.7463 31.1515 50.6361 31.4179 50.4352 31.6182L50.435 31.6184L45.7953 36.2588C45.5941 36.46 45.3282 36.5701 45.0441 36.5701C44.7601 36.5701 44.4942 36.46 44.293 36.2588L41.9725 33.9383L41.9722 33.938C41.7713 33.7377 41.6611 33.472 41.6611 33.1871C41.6611 32.903 41.7713 32.6372 41.9725 32.4359C42.371 32.0375 43.0763 32.0375 43.4748 32.4359L44.8674 33.8285L45.0442 34.0053L45.2209 33.8285L48.9327 30.1161C48.9327 30.1161 48.9327 30.1161 48.9327 30.1161C49.3464 29.7024 50.0215 29.702 50.4349 30.116ZM50.3246 31.508L50.325 31.5075C50.4946 31.3371 50.5901 31.1085 50.5901 30.8666C50.5901 30.6245 50.4944 30.3966 50.325 30.2263L50.3243 30.2256C49.9702 29.8724 49.3975 29.8724 49.0433 30.2256L49.0431 30.2259L45.099 34.1706C45.099 34.1706 45.099 34.1706 45.099 34.1706C45.0687 34.2009 45.0189 34.2009 44.9886 34.1706L44.9886 34.1705L43.3637 32.5463L43.3633 32.5459C43.1868 32.3703 42.9547 32.2815 42.723 32.2815C42.4914 32.2815 42.259 32.3703 42.0829 32.5464C41.912 32.7172 41.8174 32.9455 41.8174 33.1871C41.8174 33.4293 41.9131 33.6571 42.0824 33.8274L42.0829 33.8279L44.4034 36.1484L44.4036 36.1486C44.7499 36.494 45.3383 36.494 45.6846 36.1486L45.6849 36.1483L50.3246 31.508Z" fill="#FF1616" stroke="#FF1616" stroke-width="0.5"/>
<circle cx="23.8594" cy="58.4534" r="1.61875" stroke="#FF1616" stroke-width="0.7"/>
<circle cx="47.8125" cy="58.4534" r="1.61875" stroke="#FF1616" stroke-width="0.7"/>
</svg>
