<svg width="179" height="54" viewBox="0 0 179 54" fill="none" xmlns="http://www.w3.org/2000/svg">
<path d="M76.1165 17.2444C74.7523 17.5612 55.4636 16.7672 53.7195 16.7348C46.2198 16.594 38.7152 16.4771 31.2211 16.242C27.339 16.1217 23.4555 16.5391 19.5888 16.8354C16.0489 17.1072 11.9534 16.8608 8.65829 18.2503C6.60426 19.1161 2.83132 24.5855 0.328847 21.634C-0.740842 20.3719 1.12639 18.4573 1.30129 17.3866C1.33907 17.1592 0.805274 17.0466 0.805974 16.9178C0.814369 15.7775 0.720623 14.5646 0.720623 13.4109C8.50507 15.9534 17.9728 15.346 26.0077 13.6221C35.3026 11.6265 42.6414 4.86614 51.9495 2.57068C60.5854 0.436422 69.8614 0.350545 78.7141 0.102064C83.8079 -0.0387183 88.9101 -0.0140814 94.0046 0.0577176C94.572 0.0654606 105.602 0.172455 104.639 2.05683C104.334 2.65233 99.7879 2.03938 98.1239 1.8548C95.9852 1.61759 91.945 1.60844 88.7793 1.61759C82.8733 1.63518 76.1193 0.950277 70.3959 2.63262C67.5814 3.45902 65.0629 4.84361 62.5002 6.41474C61.0353 7.31293 56.5816 9.67174 56.0254 11.1591C55.2405 13.2582 59.0463 13.6897 60.4805 13.9712" fill="#FF1616"/>
<path d="M89.2518 31.6576H80.7525V53.0862C80.7525 53.6413 80.3928 53.9989 79.826 53.9996C78.268 53.9996 76.7095 53.9996 75.1505 53.9996C74.9257 53.9944 74.7116 53.9034 74.5533 53.7455C74.395 53.5876 74.3049 53.3752 74.3018 53.153C74.3018 44.3387 74.3018 35.5257 74.3018 26.7138C74.3055 26.4926 74.396 26.2815 74.5542 26.125C74.7124 25.9685 74.926 25.8788 75.1498 25.875H94.8587C95.0777 25.8768 95.2873 25.9631 95.4429 26.1153C95.5985 26.2676 95.6878 26.4739 95.6917 26.6903C95.6917 35.5155 95.6917 44.3404 95.6917 53.1651C95.6896 53.3878 95.5983 53.6007 95.4377 53.7571C95.2772 53.9135 95.0605 54.0007 94.835 53.9996H90.12C90.0053 54.0032 89.8911 53.9836 89.7844 53.9421C89.6777 53.9006 89.5806 53.838 89.4992 53.7582C89.4178 53.6783 89.3538 53.5829 89.311 53.4778C89.2682 53.3726 89.2475 53.2599 89.2503 53.1466V31.6576H89.2518Z" fill="#FF1616"/>
<path d="M34.6278 42.47V53.0788C34.6278 53.6128 34.2591 53.9829 33.7255 53.9829C32.1469 53.9829 30.5688 53.9829 28.9912 53.9829C28.5516 53.9829 28.1445 53.5901 28.1445 53.1661C28.1445 44.3385 28.1445 35.5106 28.1445 26.6825C28.1445 26.2799 28.5516 25.8843 28.9644 25.8836C30.5666 25.8836 32.1688 25.8836 33.771 25.8836C33.996 25.8865 34.2111 25.9751 34.3708 26.1308C34.5305 26.2865 34.6224 26.4971 34.6271 26.718C34.6271 30.1743 34.6271 33.6305 34.6271 37.0868V37.5065L34.7074 37.5647C34.8462 37.4383 35.0183 37.3325 35.1187 37.1812C37.0598 34.2752 38.9958 31.3658 40.9267 28.453C41.4401 27.6811 41.957 26.9112 42.4617 26.1336C42.5049 26.0517 42.5717 25.9841 42.6537 25.9391C42.7357 25.8942 42.8293 25.8739 42.923 25.8807C44.8751 25.89 46.8273 25.8978 48.7794 25.8751C49.1409 25.8708 49.1858 26.1052 49.2964 26.3083C49.407 26.5114 49.5523 26.6719 49.3593 26.9432C46.7564 30.6077 44.1709 34.2879 41.5507 37.944C41.3005 38.2941 40.8559 38.5121 40.4973 38.7841C40.3078 38.9262 40.1083 39.0604 39.8675 39.2294C40.3143 39.5348 40.7438 39.8104 41.1516 40.1143C41.3737 40.2725 41.5706 40.4623 41.7358 40.6775C44.6655 44.7256 47.5925 48.7755 50.5168 52.8274C50.7012 53.0823 50.7027 53.2712 50.5508 53.5248C50.399 53.7783 50.3101 54.0056 49.9044 53.9999C47.8446 53.9708 45.7832 53.9807 43.7241 53.9928C43.4508 53.9928 43.2903 53.9104 43.137 53.6903C40.5884 50.0591 38.026 46.4371 35.4832 42.8017C35.2677 42.4878 35.0464 42.355 34.6278 42.47Z" fill="#FF1616"/>
<path d="M105.3 31.647C105.293 31.7834 105.286 31.8758 105.285 31.969C105.285 33.5909 105.285 35.2128 105.285 36.8944H113.948C114.502 36.8944 114.825 37.2342 114.826 37.8106C114.826 39.1487 114.826 40.487 114.826 41.8256C114.825 42.0477 114.738 42.2605 114.585 42.4174C114.432 42.5743 114.224 42.6628 114.007 42.6636H105.3V48.2188H115.085C115.598 48.2188 115.955 48.5877 115.956 49.1165C115.956 50.4669 115.956 51.8173 115.956 53.1677C115.956 53.5991 115.574 54 115.159 54H99.8795C99.4581 54 99.0693 53.607 99.0693 53.1812C99.0693 44.3452 99.0693 35.5082 99.0693 26.6703C99.0693 26.2673 99.4595 25.875 99.8594 25.875H114.967C115.177 25.8819 115.377 25.9713 115.525 26.1247C115.673 26.2781 115.757 26.4838 115.761 26.6995C115.761 28.0736 115.761 29.4477 115.761 30.8218C115.761 31.2518 115.382 31.6441 114.966 31.6441H105.3V31.647Z" fill="#FF1616"/>
<path d="M18.2801 42.2952H8.674C8.15732 42.2952 7.78096 41.9451 7.78096 41.4643V38.0106C7.78096 37.5319 8.15947 37.1777 8.67471 37.1777H18.2966C18.1527 36.6258 18.057 36.1046 17.8864 35.6047C17.043 33.1427 15.0979 31.6908 12.3814 31.4788C10.0744 31.2989 7.87235 31.6757 5.78836 32.6414C5.45087 32.798 4.82553 32.5292 4.73342 32.1811C4.35994 30.7805 3.99366 29.3771 3.61658 27.9779C3.56189 27.7768 3.61658 27.6797 3.81591 27.586C6.08772 26.5192 8.50705 26.0131 11.0199 25.8961C13.0715 25.8011 15.0922 26.022 17.0416 26.6587C20.1676 27.6797 22.2178 29.7636 23.4634 32.6222C24.2708 34.4756 24.6148 36.4206 24.7184 38.4114C24.8508 40.8946 24.7493 43.3614 23.9412 45.7476C22.4739 50.0793 19.4077 52.7582 14.6806 53.6335C11.1487 54.2874 7.67014 54.0794 4.27503 52.9038C4.01669 52.8142 3.7713 52.6987 3.51656 52.5933C3.46775 52.5678 3.42108 52.5388 3.37695 52.5065C3.68159 51.549 3.98574 50.5916 4.28942 49.6341C4.4722 49.0569 4.65354 48.479 4.84064 47.9025C4.94498 47.579 5.52786 47.3178 5.85601 47.445C7.93916 48.2547 10.1973 48.5742 12.4383 48.3764C15.1627 48.1535 17.2453 46.4554 17.9915 43.8279C18.1131 43.4004 18.1865 42.9607 18.2793 42.5285C18.2866 42.4509 18.2868 42.3729 18.2801 42.2952Z" fill="#FF1616"/>
<path d="M120.46 26.5823C121.25 26.4547 122.02 26.278 122.797 26.2156C124.656 26.0662 126.518 25.8923 128.38 25.8762C130.336 25.8594 132.298 26.0164 134.155 26.7457C137.411 28.0198 139.236 30.4291 139.536 34.0164C139.684 35.7694 139.593 37.5021 138.93 39.1457C137.799 41.9449 135.704 43.6166 132.906 44.4258C130.917 45.0015 128.885 45.0141 126.844 44.8935L126.597 44.8802C126.59 45.0316 126.577 45.1782 126.577 45.324C126.577 47.918 126.577 50.5124 126.577 53.1074C126.577 53.6592 126.235 53.9993 125.693 54C124.213 54 122.732 54 121.251 54C121.043 53.9966 120.844 53.9108 120.697 53.7604C120.549 53.6101 120.464 53.407 120.459 53.1936V26.5823H120.46ZM126.597 31.5328V39.2748C126.656 39.2908 126.716 39.3014 126.776 39.3063C127.821 39.2811 128.872 39.3252 129.906 39.2088C131.128 39.0686 132.217 38.5588 132.776 37.345C133.026 36.8009 133.147 36.1684 133.207 35.564C133.417 33.4478 132.296 31.9696 130.269 31.5819C129.058 31.3505 127.849 31.4002 126.597 31.5328Z" fill="#FF1616"/>
<path d="M94.5664 4.01536C97.1911 3.45371 104.294 2.57967 107.668 4.88449C111.466 7.47644 114.561 11.9829 118.701 14.0048C122.154 15.6897 127.826 15.293 131.619 15.4138C136.541 15.5703 141.296 15.5928 146.148 15.7936C155.098 16.1643 164.128 16.4163 172.9 18.3912C174.738 18.8047 177.961 19.1796 178.791 21.1846C179.631 23.2205 177.727 25.6882 176.858 27.3865C174.618 31.7623 172.394 36.1438 170.12 40.5C169.761 36.0813 172.99 31.2035 174.179 27.0558C175.736 21.6444 170.47 21.4071 166.266 20.5485C156.953 18.6453 147.326 18.8005 137.869 18.6292C133.432 18.5484 129.61 18.5589 125.173 18.4726C123.194 18.434 120.32 18.4775 118.377 18.116C116.232 17.7165 115.283 16.5876 113.697 15.1007C110.477 12.0819 107.28 9.01111 103.976 6.08639C102.324 4.62473 101.417 4.52785 99.1656 4.3053C98.7107 4.25756 94.5664 4.01536 94.5664 4.01536Z" fill="#FF1616"/>
<path d="M70.6128 27.0839C70.3365 28.2977 70.0662 29.4827 69.796 30.6678C69.7477 30.8785 69.6572 31.0885 69.6558 31.2993C69.6558 31.8015 69.3125 31.9664 68.9423 32.1128C68.8729 32.1403 68.7962 32.142 68.7257 32.1176C67.5636 31.6072 66.3324 31.5066 65.0898 31.4491C64.1121 31.404 63.1452 31.4279 62.2104 31.757C60.4534 32.3769 59.3114 33.6324 58.6959 35.3949C58.0736 37.1738 57.9703 39.0212 58.0709 40.8897C58.146 42.2875 58.382 43.6518 58.9922 44.9203C60.0692 47.157 61.8677 48.2729 64.2798 48.383C65.9234 48.4569 67.5073 48.1976 68.9665 47.3615C69.2233 47.2144 69.8349 47.5059 69.9053 47.8022C70.2406 49.148 70.5631 50.4972 70.9051 51.8389C70.9568 52.0442 70.9051 52.142 70.7509 52.2577C69.6652 53.0568 68.43 53.4584 67.1298 53.6883C65.0107 54.0633 62.8897 54.1426 60.77 53.6883C56.6077 52.8071 54.0212 50.1524 52.664 46.1307C51.9223 43.9357 51.7493 41.6581 51.7922 39.3571C51.8338 37.2847 52.094 35.2471 52.8652 33.3088C53.9951 30.4748 55.8077 28.271 58.5792 26.9922C60.3669 26.1678 62.2627 25.8462 64.2208 25.877C66.1789 25.9078 68.1175 26.1411 69.9777 26.828C70.1809 26.9013 70.3747 26.9868 70.6128 27.0839Z" fill="#FF1616"/>
<path d="M148.77 31.6436H141.565C141.346 31.6397 141.136 31.5533 140.98 31.4021C140.823 31.2508 140.732 31.0463 140.724 30.8305C140.724 29.4454 140.724 28.0597 140.724 26.6732C140.733 26.4635 140.822 26.265 140.973 26.1171C141.125 25.9693 141.327 25.8828 141.54 25.875H162.428C162.851 25.875 163.239 26.2595 163.239 26.6782C163.239 28.0523 163.239 29.4265 163.239 30.8006C163.24 31.0229 163.152 31.2364 162.993 31.3945C162.834 31.5526 162.619 31.6424 162.393 31.6443H155.23V53.0383C155.23 53.678 154.897 54 154.245 54H149.664C149.138 54 148.77 53.6446 148.77 53.1314V31.6436Z" fill="#FF1616"/>
</svg>
