<svg width="48" height="48" viewBox="0 0 48 48" fill="none" xmlns="http://www.w3.org/2000/svg">
<path d="M23.2479 9.00437C20.8404 9.03343 15.6645 9.42905 12.7695 12.085C10.616 14.2187 9.86414 17.3734 9.77601 21.2744C9.70289 25.1612 9.61476 32.4606 16.6507 34.4481V37.4753C16.6507 37.4753 16.6066 38.6866 17.4073 38.935C18.3935 39.2472 18.9551 38.3153 19.8926 37.3141L21.641 35.3369C26.4551 35.7372 30.1423 34.8147 30.5669 34.6778C31.5438 34.3656 37.046 33.6625 37.9451 26.3622C38.8676 18.8228 37.496 14.0725 35.0201 11.9237H35.0051C34.2579 11.2356 31.2551 9.04749 24.5463 9.02312C24.5463 9.02312 24.0485 8.98937 23.2479 9.00343V9.00437ZM23.3304 11.1241C24.0138 11.1194 24.4291 11.1484 24.4291 11.1484C30.1076 11.1634 32.8179 12.8725 33.4573 13.4481C35.5423 15.235 36.6166 19.5175 35.8301 25.8119C35.0829 31.915 30.6204 32.3012 29.7945 32.5647C29.4429 32.6772 26.1954 33.4778 22.1041 33.2144C22.1041 33.2144 19.0573 36.8912 18.1048 37.8381C17.9538 38.0041 17.7776 38.0528 17.6651 38.0284C17.5038 37.9891 17.4551 37.7894 17.4645 37.5156L17.4935 32.4916C11.5263 30.8416 11.8779 24.6156 11.9416 21.3634C12.0148 18.1112 12.6251 15.4506 14.442 13.6487C16.8879 11.4372 21.2829 11.1391 23.3285 11.1241H23.3304ZM23.7804 14.3753C23.7313 14.3748 23.6826 14.384 23.637 14.4025C23.5915 14.4209 23.5501 14.4481 23.5151 14.4826C23.4802 14.5172 23.4524 14.5582 23.4334 14.6035C23.4144 14.6488 23.4046 14.6974 23.4045 14.7466C23.4045 14.9566 23.5751 15.1225 23.7804 15.1225C24.7099 15.1048 25.6338 15.2713 26.4986 15.6125C27.3635 15.9536 28.1523 16.4625 28.8195 17.11C30.1816 18.4328 30.8454 20.2103 30.8707 22.5344C30.8707 22.7397 31.0366 22.9103 31.2466 22.9103V22.8953C31.3456 22.8956 31.4407 22.8567 31.5111 22.7871C31.5815 22.7176 31.6216 22.623 31.6226 22.5241C31.6681 21.4301 31.4907 20.3384 31.1012 19.3151C30.7116 18.2919 30.1181 17.3586 29.3566 16.5719C27.8726 15.1216 25.992 14.3744 23.7804 14.3744V14.3753ZM18.8388 15.235C18.5735 15.1962 18.3028 15.2495 18.072 15.3859H18.0523C17.5163 15.7001 17.0334 16.0972 16.6216 16.5625C16.2795 16.9581 16.0938 17.3584 16.0451 17.7437C16.016 17.9734 16.0357 18.2031 16.1041 18.4225L16.1285 18.4375C16.5138 19.57 17.0173 20.6594 17.6323 21.685C18.4245 23.1259 19.3994 24.4585 20.5329 25.6497L20.5666 25.6984L20.6201 25.7378L20.6538 25.7772L20.6932 25.8109C21.8887 26.9477 23.2245 27.9272 24.6682 28.7256C26.3182 29.6237 27.3195 30.0484 27.9204 30.2247V30.2341C28.0966 30.2875 28.257 30.3119 28.4182 30.3119C28.9303 30.2743 29.4152 30.0664 29.7954 29.7212C30.2585 29.3094 30.6512 28.8245 30.9579 28.2859V28.2766C31.2457 27.7347 31.1482 27.2219 30.7329 26.875C29.9012 26.148 29.0017 25.5022 28.047 24.9466C27.4076 24.5997 26.7579 24.8097 26.4944 25.1612L25.9329 25.8691C25.6451 26.2206 25.122 26.1719 25.122 26.1719L25.107 26.1812C21.206 25.1847 20.1654 21.235 20.1654 21.235C20.1654 21.235 20.1166 20.6978 20.4776 20.4241L21.1807 19.8578C21.5173 19.5841 21.7516 18.9353 21.3907 18.295C20.8389 17.3389 20.1945 16.4393 19.467 15.6091C19.3079 15.4133 19.0847 15.2802 18.837 15.2331L18.8388 15.235ZM24.4291 16.3487C23.9313 16.3487 23.9313 17.1006 24.4338 17.1006C25.0528 17.1107 25.6638 17.2426 26.2318 17.4889C26.7998 17.7351 27.3137 18.0909 27.7441 18.5359C28.1368 18.9691 28.4385 19.4766 28.6314 20.0285C28.8244 20.5803 28.9045 21.1653 28.8673 21.7487C28.869 21.8475 28.9093 21.9416 28.9795 22.011C29.0498 22.0804 29.1445 22.1195 29.2432 22.12L29.2582 22.1397C29.3577 22.1389 29.4529 22.0991 29.5232 22.0288C29.5936 21.9584 29.6334 21.8632 29.6341 21.7637C29.6679 20.2741 29.2048 19.0244 28.2963 18.0231C27.3832 17.0219 26.1091 16.4603 24.4826 16.3487H24.4291ZM25.0451 18.37C24.5323 18.355 24.5126 19.1219 25.0207 19.1369C26.2563 19.2006 26.8563 19.825 26.9351 21.1094C26.9368 21.2069 26.9766 21.2998 27.046 21.3683C27.1154 21.4368 27.2088 21.4755 27.3063 21.4759H27.3213C27.3715 21.4738 27.4207 21.4617 27.4661 21.4403C27.5115 21.4189 27.5521 21.3887 27.5857 21.3515C27.6193 21.3142 27.6452 21.2706 27.6618 21.2232C27.6783 21.1759 27.6853 21.1257 27.6823 21.0756C27.5941 19.4012 26.681 18.4581 25.0601 18.3709H25.0451V18.37Z" fill="#051326"/>
</svg>
