<svg width="48" height="48" viewBox="0 0 48 48" fill="none" xmlns="http://www.w3.org/2000/svg">
<path d="M30.87 26.9784C30.4941 26.7881 28.6631 25.8947 28.3209 25.7672C27.9788 25.6453 27.7303 25.5816 27.4809 25.9575C27.2372 26.3241 26.5191 27.1631 26.2997 27.4078C26.0803 27.6525 25.8647 27.6712 25.4944 27.5053C25.1184 27.315 23.9175 26.9241 22.4916 25.6453C21.3778 24.6544 20.6363 23.4338 20.4159 23.0578C20.1966 22.6866 20.3916 22.4766 20.5772 22.2909C20.7478 22.1203 20.9531 21.8616 21.1434 21.6366C21.3244 21.4116 21.3825 21.2606 21.5147 21.0169C21.6366 20.7534 21.5737 20.5481 21.4809 20.3625C21.3881 20.1769 20.6409 18.3366 20.3287 17.6034C20.0306 16.8759 19.7184 16.9688 19.4887 16.9688C19.2741 16.9491 19.0247 16.9491 18.7763 16.9491C18.5278 16.9491 18.1219 17.0419 17.7797 17.3981C17.4375 17.7741 16.4709 18.6722 16.4709 20.4891C16.4709 22.3106 17.8088 24.0731 17.9944 24.3366C18.1847 24.5803 20.6259 28.3303 24.3713 29.9419C25.2647 30.3178 25.9584 30.5428 26.5003 30.7284C27.3937 31.0116 28.2094 30.9722 28.8534 30.8794C29.5659 30.7622 31.0603 29.9756 31.3734 29.0972C31.6912 28.2131 31.6912 27.4809 31.5984 27.315C31.5056 27.1444 31.2619 27.0516 30.8859 26.8856L30.87 26.9784ZM24.0778 36.1875H24.0581C21.8409 36.1875 19.6491 35.5866 17.7347 34.4634L17.2856 34.1953L12.5981 35.4159L13.8581 30.855L13.5553 30.3862C12.3173 28.4178 11.6605 26.1397 11.6606 23.8144C11.6606 17.0081 17.2322 11.4562 24.0872 11.4562C27.4078 11.4562 30.5231 12.75 32.8669 15.0938C34.0231 16.2362 34.9402 17.5974 35.5647 19.0981C36.1892 20.5987 36.5087 22.2087 36.5044 23.8341C36.495 30.6356 30.9281 36.1875 24.0825 36.1875H24.0778ZM34.6491 13.3116C31.7972 10.5572 28.0472 9 24.0581 9C15.8306 9 9.13125 15.6703 9.12656 23.8678C9.12656 26.4853 9.81 29.0391 11.1188 31.2994L9 39L16.92 36.9347C19.114 38.1176 21.5665 38.7398 24.0591 38.7459H24.0638C32.2959 38.7459 38.9953 32.0756 39 23.8725C39 19.9031 37.4522 16.1672 34.6303 13.3594L34.6491 13.3116Z" fill="#051326"/>
</svg>
