<svg width="179" height="55" viewBox="0 0 179 55" fill="none" xmlns="http://www.w3.org/2000/svg">
<path d="M76.1165 17.7444C74.7523 18.0612 55.4636 17.2672 53.7195 17.2348C46.2198 17.094 38.7152 16.9771 31.2211 16.742C27.339 16.6217 23.4555 17.0391 19.5888 17.3354C16.0489 17.6072 11.9534 17.3608 8.65829 18.7503C6.60426 19.6161 2.83132 25.0855 0.328847 22.134C-0.740842 20.8719 1.12639 18.9573 1.30129 17.8866C1.33907 17.6592 0.805274 17.5466 0.805974 17.4178C0.814369 16.2775 0.720623 15.0646 0.720623 13.9109C8.50507 16.4534 17.9728 15.846 26.0077 14.1221C35.3026 12.1265 42.6414 5.36614 51.9495 3.07068C60.5854 0.936422 69.8614 0.850545 78.7141 0.602064C83.8079 0.461282 88.9101 0.485919 94.0046 0.557718C94.572 0.565461 105.602 0.672455 104.639 2.55683C104.334 3.15233 99.7879 2.53938 98.1239 2.3548C95.9852 2.11759 91.945 2.10844 88.7793 2.11759C82.8733 2.13518 76.1193 1.45028 70.3959 3.13262C67.5814 3.95902 65.0629 5.34361 62.5002 6.91474C61.0353 7.81293 56.5816 10.1717 56.0254 11.6591C55.2405 13.7582 59.0463 14.1897 60.4805 14.4712" fill="#FF1616"/>
<path d="M89.2518 32.1576H80.7525V53.5862C80.7525 54.1413 80.3928 54.4989 79.826 54.4996C78.268 54.4996 76.7095 54.4996 75.1505 54.4996C74.9257 54.4944 74.7116 54.4034 74.5533 54.2455C74.395 54.0876 74.3049 53.8752 74.3018 53.653C74.3018 44.8387 74.3018 36.0257 74.3018 27.2138C74.3055 26.9926 74.396 26.7815 74.5542 26.625C74.7124 26.4685 74.926 26.3788 75.1498 26.375H94.8587C95.0777 26.3768 95.2873 26.4631 95.4429 26.6153C95.5985 26.7676 95.6878 26.9739 95.6917 27.1903C95.6917 36.0155 95.6917 44.8404 95.6917 53.6651C95.6896 53.8878 95.5983 54.1007 95.4377 54.2571C95.2772 54.4135 95.0605 54.5007 94.835 54.4996H90.12C90.0053 54.5032 89.8911 54.4836 89.7844 54.4421C89.6777 54.4006 89.5806 54.338 89.4992 54.2582C89.4178 54.1783 89.3538 54.0829 89.311 53.9778C89.2682 53.8726 89.2475 53.7599 89.2503 53.6466V32.1576H89.2518Z" fill="#FF1616"/>
<path d="M34.6278 42.97V53.5788C34.6278 54.1128 34.2591 54.4829 33.7255 54.4829C32.1469 54.4829 30.5688 54.4829 28.9912 54.4829C28.5516 54.4829 28.1445 54.0901 28.1445 53.6661C28.1445 44.8385 28.1445 36.0106 28.1445 27.1825C28.1445 26.7799 28.5516 26.3843 28.9644 26.3836C30.5666 26.3836 32.1688 26.3836 33.771 26.3836C33.996 26.3865 34.2111 26.4751 34.3708 26.6308C34.5305 26.7865 34.6224 26.9971 34.6271 27.218C34.6271 30.6743 34.6271 34.1305 34.6271 37.5868V38.0065L34.7074 38.0647C34.8462 37.9383 35.0183 37.8325 35.1187 37.6812C37.0598 34.7752 38.9958 31.8658 40.9267 28.953C41.4401 28.1811 41.957 27.4112 42.4617 26.6336C42.5049 26.5517 42.5717 26.4841 42.6537 26.4391C42.7357 26.3942 42.8293 26.3739 42.923 26.3807C44.8751 26.39 46.8273 26.3978 48.7794 26.3751C49.1409 26.3708 49.1858 26.6052 49.2964 26.8083C49.407 27.0114 49.5523 27.1719 49.3593 27.4432C46.7564 31.1077 44.1709 34.7879 41.5507 38.444C41.3005 38.7941 40.8559 39.0121 40.4973 39.2841C40.3078 39.4262 40.1083 39.5604 39.8675 39.7294C40.3143 40.0348 40.7438 40.3104 41.1516 40.6143C41.3737 40.7725 41.5706 40.9623 41.7358 41.1775C44.6655 45.2256 47.5925 49.2755 50.5168 53.3274C50.7012 53.5823 50.7027 53.7712 50.5508 54.0248C50.399 54.2783 50.3101 54.5056 49.9044 54.4999C47.8446 54.4708 45.7832 54.4807 43.7241 54.4928C43.4508 54.4928 43.2903 54.4104 43.137 54.1903C40.5884 50.5591 38.026 46.9371 35.4832 43.3017C35.2677 42.9878 35.0464 42.855 34.6278 42.97Z" fill="#FF1616"/>
<path d="M105.3 32.147C105.293 32.2834 105.286 32.3758 105.285 32.469C105.285 34.0909 105.285 35.7128 105.285 37.3944H113.948C114.502 37.3944 114.825 37.7342 114.826 38.3106C114.826 39.6487 114.826 40.987 114.826 42.3256C114.825 42.5477 114.738 42.7605 114.585 42.9174C114.432 43.0743 114.224 43.1628 114.007 43.1636H105.3V48.7188H115.085C115.598 48.7188 115.955 49.0877 115.956 49.6165C115.956 50.9669 115.956 52.3173 115.956 53.6677C115.956 54.0991 115.574 54.5 115.159 54.5H99.8795C99.4581 54.5 99.0693 54.107 99.0693 53.6812C99.0693 44.8452 99.0693 36.0082 99.0693 27.1703C99.0693 26.7673 99.4595 26.375 99.8594 26.375H114.967C115.177 26.3819 115.377 26.4713 115.525 26.6247C115.673 26.7781 115.757 26.9838 115.761 27.1995C115.761 28.5736 115.761 29.9477 115.761 31.3218C115.761 31.7518 115.382 32.1441 114.966 32.1441H105.3V32.147Z" fill="#FF1616"/>
<path d="M18.2801 42.7952H8.674C8.15732 42.7952 7.78096 42.4451 7.78096 41.9643V38.5106C7.78096 38.0319 8.15947 37.6777 8.67471 37.6777H18.2966C18.1527 37.1258 18.057 36.6046 17.8864 36.1047C17.043 33.6427 15.0979 32.1908 12.3814 31.9788C10.0744 31.7989 7.87235 32.1757 5.78836 33.1414C5.45087 33.298 4.82553 33.0292 4.73342 32.6811C4.35994 31.2805 3.99366 29.8771 3.61658 28.4779C3.56189 28.2768 3.61658 28.1797 3.81591 28.086C6.08772 27.0192 8.50705 26.5131 11.0199 26.3961C13.0715 26.3011 15.0922 26.522 17.0416 27.1587C20.1676 28.1797 22.2178 30.2636 23.4634 33.1222C24.2708 34.9756 24.6148 36.9206 24.7184 38.9114C24.8508 41.3946 24.7493 43.8614 23.9412 46.2476C22.4739 50.5793 19.4077 53.2582 14.6806 54.1335C11.1487 54.7874 7.67014 54.5794 4.27503 53.4038C4.01669 53.3142 3.7713 53.1987 3.51656 53.0933C3.46775 53.0678 3.42108 53.0388 3.37695 53.0065C3.68159 52.049 3.98574 51.0916 4.28942 50.1341C4.4722 49.5569 4.65354 48.979 4.84064 48.4025C4.94498 48.079 5.52786 47.8178 5.85601 47.945C7.93916 48.7547 10.1973 49.0742 12.4383 48.8764C15.1627 48.6535 17.2453 46.9554 17.9915 44.3279C18.1131 43.9004 18.1865 43.4607 18.2793 43.0285C18.2866 42.9509 18.2868 42.8729 18.2801 42.7952Z" fill="#FF1616"/>
<path d="M120.46 27.0823C121.25 26.9547 122.02 26.778 122.797 26.7156C124.656 26.5662 126.518 26.3923 128.38 26.3762C130.336 26.3594 132.298 26.5164 134.155 27.2457C137.411 28.5198 139.236 30.9291 139.536 34.5164C139.684 36.2694 139.593 38.0021 138.93 39.6457C137.799 42.4449 135.704 44.1166 132.906 44.9258C130.917 45.5015 128.885 45.5141 126.844 45.3935L126.597 45.3802C126.59 45.5316 126.577 45.6782 126.577 45.824C126.577 48.418 126.577 51.0124 126.577 53.6074C126.577 54.1592 126.235 54.4993 125.693 54.5C124.213 54.5 122.732 54.5 121.251 54.5C121.043 54.4966 120.844 54.4108 120.697 54.2604C120.549 54.1101 120.464 53.907 120.459 53.6936V27.0823H120.46ZM126.597 32.0328V39.7748C126.656 39.7908 126.716 39.8014 126.776 39.8063C127.821 39.7811 128.872 39.8252 129.906 39.7088C131.128 39.5686 132.217 39.0588 132.776 37.845C133.026 37.3009 133.147 36.6684 133.207 36.064C133.417 33.9478 132.296 32.4696 130.269 32.0819C129.058 31.8505 127.849 31.9002 126.597 32.0328Z" fill="#FF1616"/>
<path d="M94.5664 4.51536C97.1911 3.95371 104.294 3.07967 107.668 5.38449C111.466 7.97644 114.561 12.4829 118.701 14.5048C122.154 16.1897 127.826 15.793 131.619 15.9138C136.541 16.0703 141.296 16.0928 146.148 16.2936C155.098 16.6643 164.128 16.9163 172.9 18.8912C174.738 19.3047 177.961 19.6796 178.791 21.6846C179.631 23.7205 177.727 26.1882 176.858 27.8865C174.618 32.2623 172.394 36.6438 170.12 41C169.761 36.5813 172.99 31.7035 174.179 27.5558C175.736 22.1444 170.47 21.9071 166.266 21.0485C156.953 19.1453 147.326 19.3005 137.869 19.1292C133.432 19.0484 129.61 19.0589 125.173 18.9726C123.194 18.934 120.32 18.9775 118.377 18.616C116.232 18.2165 115.283 17.0876 113.697 15.6007C110.477 12.5819 107.28 9.51111 103.976 6.58639C102.324 5.12473 101.417 5.02785 99.1656 4.8053C98.7107 4.75756 94.5664 4.51536 94.5664 4.51536Z" fill="#FF1616"/>
<path d="M70.6128 27.5839C70.3365 28.7977 70.0662 29.9827 69.796 31.1678C69.7477 31.3785 69.6572 31.5885 69.6558 31.7993C69.6558 32.3015 69.3125 32.4664 68.9423 32.6128C68.8729 32.6403 68.7962 32.642 68.7257 32.6176C67.5636 32.1072 66.3324 32.0066 65.0898 31.9491C64.1121 31.904 63.1452 31.9279 62.2104 32.257C60.4534 32.8769 59.3114 34.1324 58.6959 35.8949C58.0736 37.6738 57.9703 39.5212 58.0709 41.3897C58.146 42.7875 58.382 44.1518 58.9922 45.4203C60.0692 47.657 61.8677 48.7729 64.2798 48.883C65.9234 48.9569 67.5073 48.6976 68.9665 47.8615C69.2233 47.7144 69.8349 48.0059 69.9053 48.3022C70.2406 49.648 70.5631 50.9972 70.9051 52.3389C70.9568 52.5442 70.9051 52.642 70.7509 52.7577C69.6652 53.5568 68.43 53.9584 67.1298 54.1883C65.0107 54.5633 62.8897 54.6426 60.77 54.1883C56.6077 53.3071 54.0212 50.6524 52.664 46.6307C51.9223 44.4357 51.7493 42.1581 51.7922 39.8571C51.8338 37.7847 52.094 35.7471 52.8652 33.8088C53.9951 30.9748 55.8077 28.771 58.5792 27.4922C60.3669 26.6678 62.2627 26.3462 64.2208 26.377C66.1789 26.4078 68.1175 26.6411 69.9777 27.328C70.1809 27.4013 70.3747 27.4868 70.6128 27.5839Z" fill="#FF1616"/>
<path d="M148.77 32.1436H141.565C141.346 32.1397 141.136 32.0533 140.98 31.9021C140.823 31.7508 140.732 31.5463 140.724 31.3305C140.724 29.9454 140.724 28.5597 140.724 27.1732C140.733 26.9635 140.822 26.765 140.973 26.6171C141.125 26.4693 141.327 26.3828 141.54 26.375H162.428C162.851 26.375 163.239 26.7595 163.239 27.1782C163.239 28.5523 163.239 29.9265 163.239 31.3006C163.24 31.5229 163.152 31.7364 162.993 31.8945C162.834 32.0526 162.619 32.1424 162.393 32.1443H155.23V53.5383C155.23 54.178 154.897 54.5 154.245 54.5H149.664C149.138 54.5 148.77 54.1446 148.77 53.6314V32.1436Z" fill="#FF1616"/>
</svg>
