<svg width="64" height="64" viewBox="0 0 64 64" fill="none" xmlns="http://www.w3.org/2000/svg">
<path d="M30.9975 12.0058C27.7875 12.0446 20.8863 12.5721 17.0263 16.1133C14.155 18.9583 13.1525 23.1646 13.035 28.3658C12.9375 33.5483 12.82 43.2808 22.2013 45.9308V49.9671C22.2013 49.9671 22.1425 51.5821 23.21 51.9133C24.525 52.3296 25.2738 51.0871 26.5238 49.7521L28.855 47.1158C35.2738 47.6496 40.19 46.4196 40.7563 46.2371C42.0588 45.8208 49.395 44.8833 50.5938 35.1496C51.8238 25.0971 49.995 18.7633 46.6938 15.8983H46.6738C45.6775 14.9808 41.6738 12.0633 32.7288 12.0308C32.7288 12.0308 32.065 11.9858 30.9975 12.0046V12.0058ZM31.1075 14.8321C32.0188 14.8258 32.5725 14.8646 32.5725 14.8646C40.1438 14.8846 43.7575 17.1633 44.61 17.9308C47.39 20.3133 48.8225 26.0233 47.7738 34.4158C46.7775 42.5533 40.8275 43.0683 39.7263 43.4196C39.2575 43.5696 34.9275 44.6371 29.4725 44.2858C29.4725 44.2858 25.41 49.1883 24.14 50.4508C23.9388 50.6721 23.7038 50.7371 23.5538 50.7046C23.3388 50.6521 23.2738 50.3858 23.2863 50.0208L23.325 43.3221C15.3688 41.1221 15.8375 32.8208 15.9225 28.4846C16.02 24.1483 16.8338 20.6008 19.2563 18.1983C22.5175 15.2496 28.3775 14.8521 31.105 14.8321H31.1075ZM31.7075 19.1671C31.642 19.1664 31.5771 19.1787 31.5164 19.2033C31.4557 19.2278 31.4004 19.2642 31.3538 19.3102C31.3072 19.3562 31.2702 19.411 31.2449 19.4714C31.2195 19.5318 31.2064 19.5966 31.2063 19.6621C31.2063 19.9421 31.4338 20.1633 31.7075 20.1633C32.9469 20.1398 34.1787 20.3618 35.3318 20.8166C36.485 21.2714 37.5367 21.95 38.4263 22.8133C40.2425 24.5771 41.1275 26.9471 41.1613 30.0458C41.1613 30.3196 41.3825 30.5471 41.6625 30.5471V30.5271C41.7945 30.5274 41.9212 30.4756 42.0151 30.3828C42.109 30.2901 42.1624 30.164 42.1638 30.0321C42.2245 28.5735 41.9879 27.1178 41.4685 25.7535C40.9492 24.3892 40.1578 23.1448 39.1425 22.0958C37.1638 20.1621 34.6563 19.1658 31.7075 19.1658V19.1671ZM25.1188 20.3133C24.7649 20.2616 24.4041 20.3326 24.0963 20.5146H24.07C23.3553 20.9335 22.7115 21.463 22.1625 22.0833C21.7063 22.6108 21.4588 23.1446 21.3938 23.6583C21.355 23.9646 21.3813 24.2708 21.4725 24.5633L21.505 24.5833C22.0188 26.0933 22.69 27.5458 23.51 28.9133C24.5663 30.8345 25.8662 32.6113 27.3775 34.1996L27.4225 34.2646L27.4938 34.3171L27.5388 34.3696L27.5913 34.4146C29.1853 35.9303 30.9664 37.2363 32.8913 38.3008C35.0913 39.4983 36.4263 40.0646 37.2275 40.2996V40.3121C37.4625 40.3833 37.6763 40.4158 37.8913 40.4158C38.5741 40.3658 39.2206 40.0886 39.7275 39.6283C40.345 39.0792 40.8686 38.4327 41.2775 37.7146V37.7021C41.6613 36.9796 41.5313 36.2958 40.9775 35.8333C39.8685 34.8639 38.6693 34.0029 37.3963 33.2621C36.5438 32.7996 35.6775 33.0796 35.3263 33.5483L34.5775 34.4921C34.1938 34.9608 33.4963 34.8958 33.4963 34.8958L33.4763 34.9083C28.275 33.5796 26.8875 28.3133 26.8875 28.3133C26.8875 28.3133 26.8225 27.5971 27.3038 27.2321L28.2413 26.4771C28.69 26.1121 29.0025 25.2471 28.5213 24.3933C27.7855 23.1185 26.9264 21.919 25.9563 20.8121C25.7442 20.5511 25.4466 20.3736 25.1163 20.3108L25.1188 20.3133ZM32.5725 21.7983C31.9088 21.7983 31.9088 22.8008 32.5788 22.8008C33.4041 22.8142 34.2187 22.9901 34.9761 23.3185C35.7334 23.6469 36.4186 24.1213 36.9925 24.7146C37.516 25.2921 37.9183 25.9688 38.1756 26.7046C38.4328 27.4404 38.5397 28.2204 38.49 28.9983C38.4923 29.13 38.546 29.2555 38.6397 29.348C38.7334 29.4405 38.8596 29.4927 38.9913 29.4933L39.0113 29.5196C39.1439 29.5186 39.2708 29.4655 39.3646 29.3717C39.4584 29.2779 39.5115 29.151 39.5125 29.0183C39.5575 27.0321 38.94 25.3658 37.7288 24.0308C36.5113 22.6958 34.8125 21.9471 32.6438 21.7983H32.5725ZM33.3938 24.4933C32.71 24.4733 32.6838 25.4958 33.3613 25.5158C35.0088 25.6008 35.8088 26.4333 35.9138 28.1458C35.916 28.2758 35.9691 28.3997 36.0616 28.4911C36.1542 28.5824 36.2788 28.6339 36.4088 28.6346H36.4288C36.4956 28.6317 36.5612 28.6156 36.6217 28.5871C36.6823 28.5586 36.7365 28.5183 36.7813 28.4686C36.8261 28.4189 36.8606 28.3608 36.8827 28.2977C36.9048 28.2345 36.9141 28.1676 36.91 28.1008C36.7925 25.8683 35.575 24.6108 33.4138 24.4946H33.3938V24.4933Z" fill="#F7F7F8"/>
</svg>
