<svg width="64" height="64" viewBox="0 0 64 64" fill="none" xmlns="http://www.w3.org/2000/svg">
<path d="M41.16 35.9713C40.6587 35.7175 38.2175 34.5263 37.7612 34.3563C37.305 34.1938 36.9737 34.1087 36.6412 34.61C36.3162 35.0987 35.3587 36.2175 35.0662 36.5438C34.7737 36.87 34.4862 36.895 33.9925 36.6737C33.4912 36.42 31.89 35.8987 29.9888 34.1937C28.5037 32.8725 27.515 31.245 27.2213 30.7437C26.9288 30.2488 27.1888 29.9688 27.4362 29.7213C27.6637 29.4937 27.9375 29.1488 28.1912 28.8488C28.4325 28.5487 28.51 28.3475 28.6863 28.0225C28.8487 27.6712 28.765 27.3975 28.6413 27.15C28.5175 26.9025 27.5212 24.4488 27.105 23.4713C26.7075 22.5013 26.2912 22.625 25.985 22.625C25.6987 22.5988 25.3663 22.5988 25.035 22.5988C24.7038 22.5988 24.1625 22.7225 23.7062 23.1975C23.25 23.6988 21.9613 24.8962 21.9613 27.3188C21.9613 29.7475 23.745 32.0975 23.9925 32.4487C24.2463 32.7737 27.5013 37.7737 32.495 39.9225C33.6863 40.4237 34.6112 40.7237 35.3337 40.9713C36.525 41.3487 37.6125 41.2962 38.4713 41.1725C39.4212 41.0162 41.4137 39.9675 41.8312 38.7962C42.255 37.6175 42.255 36.6412 42.1312 36.42C42.0075 36.1925 41.6825 36.0687 41.1812 35.8475L41.16 35.9713ZM32.1038 48.25H32.0775C29.1213 48.25 26.1988 47.4487 23.6463 45.9512L23.0475 45.5938L16.7975 47.2212L18.4775 41.14L18.0738 40.515C16.4231 37.8904 15.5474 34.853 15.5475 31.7525C15.5475 22.6775 22.9763 15.275 32.1163 15.275C36.5438 15.275 40.6975 17 43.8225 20.125C45.3641 21.6482 46.5869 23.4632 47.4196 25.4641C48.2523 27.4649 48.6782 29.6116 48.6725 31.7787C48.66 40.8475 41.2375 48.25 32.11 48.25H32.1038ZM46.1987 17.7487C42.3962 14.0763 37.3962 12 32.0775 12C21.1075 12 12.175 20.8937 12.1688 31.8237C12.1688 35.3138 13.08 38.7188 14.825 41.7325L12 52L22.56 49.2463C25.4854 50.8235 28.7553 51.6531 32.0788 51.6613H32.085C43.0613 51.6613 51.9938 42.7675 52 31.83C52 26.5375 49.9363 21.5562 46.1738 17.8125L46.1987 17.7487Z" fill="#F7F7F8"/>
</svg>
