<svg width="33" height="29" viewBox="0 0 33 29" fill="none" xmlns="http://www.w3.org/2000/svg">
<path d="M10.1145 14.6369C11.4591 17.0434 13.7045 18.9845 16.4848 20.1436C16.6899 20.2278 16.9167 20.2642 17.143 20.2493C17.3692 20.2344 17.5871 20.1687 17.7752 20.0587L21.8587 17.6946C22.0391 17.5886 22.2476 17.5239 22.4647 17.5065C22.6818 17.4892 22.9004 17.5198 23.1001 17.5955L30.7445 20.4409C31.0058 20.5352 31.224 20.7012 31.3657 20.9135C31.5074 21.1258 31.5646 21.3726 31.5285 21.6159C31.2863 23.2548 30.3632 24.7611 28.9321 25.8528C27.5011 26.9446 25.66 27.547 23.7535 27.5474C17.8619 27.5474 12.2115 25.519 8.04552 21.9084C3.87951 18.2979 1.53906 13.4009 1.53906 8.29486C1.53949 6.64253 2.23459 5.04696 3.4943 3.80669C4.75401 2.56643 6.492 1.76646 8.38307 1.55648C8.66375 1.52523 8.9485 1.57482 9.19348 1.6976C9.43845 1.82038 9.63006 2.00955 9.7388 2.23598L13.022 8.87526C13.1073 9.04563 13.1431 9.23158 13.126 9.41673C13.1089 9.60188 13.0395 9.78055 12.924 9.93698L10.1962 13.5327C10.0747 13.6953 10.0034 13.8822 9.98914 14.0755C9.97484 14.2689 10.018 14.4621 10.1145 14.6369V14.6369Z" stroke="#F7F7F8" stroke-width="2" stroke-linecap="round" stroke-linejoin="round"/>
</svg>
