<svg width="202" height="142" viewBox="0 0 202 142" fill="none" xmlns="http://www.w3.org/2000/svg">
<g clip-path="url(#clip0_232_1318)">
<path d="M136.617 10.6828C135.664 8.95066 134.74 7.26557 133.607 5.21678C132.375 7.18704 131.275 8.9477 130.188 10.6874C128.878 12.7834 127.624 14.8846 126.335 16.9937C125.863 17.7483 125.462 18.5761 124.97 19.3176C123.084 22.1028 121.198 24.8881 119.305 27.6393C117.707 29.9634 116.088 32.2745 114.512 34.6117C114.171 35.1567 113.901 35.7749 113.597 36.4009C114.917 37.3132 116.12 38.1811 117.502 39.1326C117.492 38.7765 117.516 38.6456 117.492 38.5435C116.942 36.7716 117.536 36.4725 119.42 36.2504C119.959 36.1792 120.513 36.1759 121.204 36.1411C120.59 37.4483 119.15 36.8686 118.283 37.697C118.502 38.4167 118.525 39.4509 119.04 39.9766C119.949 40.8945 121.102 41.7023 122.333 42.1512C123.295 42.5193 124.238 41.7093 124.992 41.0146C124.702 40.2216 124.365 39.4575 124.761 38.6846C124.863 38.661 124.952 38.6583 125.054 38.6346C125.323 39.4145 125.68 40.1917 125.834 41.0163C125.891 41.3435 125.527 41.7864 125.234 42.0695C124.867 42.4233 124.389 42.6778 123.831 43.0581C124.877 43.7115 125.86 44.3256 126.822 44.9268C128.892 46.2205 130.954 47.4801 133.012 48.7948C134.768 49.8925 136.473 51.074 138.229 52.1717C141.659 54.3148 145.089 56.4579 148.518 58.601C150.505 59.8424 152.539 61.055 154.565 62.2335C156.494 63.3808 158.523 64.4153 160.387 65.6673C163.262 67.5807 166.019 69.6826 168.882 71.6169C170.215 72.5082 171.674 73.2449 173.106 74.0235C174.024 74.5095 175.311 74.7306 175.838 75.4684C176.588 76.5488 177.862 76.7909 178.614 77.7274C178.721 77.8817 178.846 78.1932 178.747 78.3059C178.655 78.4526 178.336 78.5446 178.163 78.495C177.818 78.3959 177.491 78.2209 177.191 78.0039C174.587 76.2605 171.976 74.483 169.359 72.7605C168.076 71.9294 166.714 71.224 165.43 70.3928C161.629 67.9595 157.881 65.4424 154.041 63.0719C150.326 60.7799 146.494 58.6765 142.753 56.4264C140.837 55.2582 139.012 53.9433 137.136 52.7123C134.785 51.2146 132.37 49.8218 130.106 48.2325C129.037 47.477 127.787 47.104 126.718 46.3486C125.628 45.58 124.36 45.0499 123.158 44.4151C123.095 44.3759 123.053 44.3497 122.99 44.3105C120.418 42.2372 117.394 40.8424 114.748 38.8398C114.035 38.3065 113.347 37.7313 112.647 37.177C112.184 36.8005 112.051 36.455 112.41 35.8341C113.22 34.4456 113.791 32.8792 114.685 31.543C115.683 30.039 116.952 28.7049 118.034 27.2532C119.432 25.3875 120.81 23.5087 122.062 21.5515C124.26 18.1742 126.617 14.8674 128.37 11.2707C129.858 8.23713 132.045 5.66885 133.604 2.70854C134.24 1.50346 134.324 1.55573 135.521 2.2456C137.895 3.61227 140.329 4.92913 142.65 6.37964C144.721 7.67334 146.712 9.0928 148.709 10.4573C150.176 11.461 151.65 12.4988 153.143 13.4606C154.293 14.1794 155.522 14.7723 156.685 15.4701C160.656 17.8639 164.606 20.2447 168.564 22.6595C169.086 22.9862 169.578 23.4098 170.087 23.7574C170.317 23.9012 170.545 24.1889 170.736 24.1625C171.876 24.0592 172.511 24.9513 173.327 25.4609C173.808 25.7614 174.315 26.0201 174.749 26.3495C175.433 26.8357 176.04 27.4477 176.759 27.926C177.365 28.305 178.037 28.5792 178.704 28.9083C179.023 29.0493 179.389 29.1615 179.668 29.3654C181.916 30.8867 184.125 32.4709 186.407 33.9842C188.48 35.367 190.571 36.6737 192.67 38.0145C194.343 39.0599 196.05 40.0975 197.697 41.1848C198.395 41.6501 199.014 42.2411 199.553 42.8688C199.723 43.0624 199.628 43.5862 199.499 43.8848C199.096 44.8566 198.629 45.7892 198.171 46.7558C198.079 46.9025 198.008 47.0623 197.909 47.175C197.178 47.9718 196.377 48.6953 195.738 49.5783C195.021 50.5871 194.415 51.6953 193.823 52.7825C193.31 53.744 192.94 54.7079 191.82 55.2904C191.307 55.5528 191.113 56.4222 190.788 57.0352C190.395 57.6641 190.044 58.319 189.63 58.9347C189.185 59.6474 188.726 60.381 188.21 61.0204C187.053 62.4539 186.881 64.3575 185.792 65.7751C184.98 66.8417 184.105 67.869 183.252 68.9093C183.186 69.0141 183.108 69.1399 183.042 69.2447C181.819 71.016 180.617 72.8003 179.415 74.5846C179.192 74.941 179.04 75.3705 178.775 75.7007C178.485 76.0728 178.089 76.3796 177.736 76.7125C177.43 76.3175 177.104 75.9094 176.798 75.5144C176.942 75.5169 177.073 75.5403 177.217 75.5427C177.536 75.2177 177.863 74.9267 178.141 74.5756C179 73.4802 179.825 72.3928 180.663 71.2843C180.767 71.1166 180.982 70.9593 180.977 70.7813C181.125 68.7756 182.887 67.8651 183.837 66.39C184.021 66.0965 184.332 65.7375 184.283 65.4443C184.101 64.5727 184.648 64.0693 185.062 63.4536C186.311 61.6404 187.477 59.775 188.65 57.9435C189.305 56.8955 189.96 55.8475 190.594 54.7864C190.659 54.6816 190.738 54.5559 190.866 54.4903C192.591 53.4987 192.911 51.7755 193.368 50.0208C193.623 49.1015 194.622 48.3857 195.298 47.5837C195.649 47.1618 196.042 46.766 196.296 46.3128C196.778 45.4483 197.142 44.5393 197.588 43.5937C196.696 43.7648 195.777 43.9779 194.849 44.068C193.517 44.1978 192.165 44.3145 190.821 44.2322C185.93 43.9156 181.057 43.5231 176.159 43.1725C171.699 42.8633 167.269 42.6012 162.822 42.271C161.238 42.1549 159.676 41.908 158.115 41.661C157.874 41.6272 157.616 41.2033 157.498 40.9259C157.36 40.6355 157.478 40.2138 157.293 39.9522C155.399 37.1659 153.445 34.4295 151.551 31.6432C150.172 29.6156 148.934 27.5015 147.482 25.5447C145.972 23.4937 144.174 21.6709 142.745 19.5831C141.659 17.9715 140.519 17.3758 138.716 18.2602C138.331 18.457 137.816 18.3973 137.379 18.445C137.348 18.3088 137.317 18.1727 137.264 18.0236C138.28 17.6087 139.261 17.2018 140.323 16.7582C139.137 15.0262 137.952 13.2943 136.695 11.4892C135.753 11.8332 134.811 12.1772 133.754 12.5659C133.824 13.3382 133.962 14.0947 133.969 14.8278C133.971 15.1498 133.72 15.4591 133.579 15.7786C133.346 15.5459 132.977 15.3447 132.949 15.0646C132.801 14.185 132.733 13.2687 132.729 12.3916C132.734 12.1036 133.03 11.6765 133.295 11.5794C134.25 11.2144 135.249 10.9645 136.348 10.602L136.617 10.6828ZM197.497 42.5753C197.497 42.5753 197.552 42.3474 197.576 42.2165C195.15 40.7007 192.724 39.1848 190.277 37.6559C186.388 35.2253 182.498 32.7947 178.629 30.3772C176.768 29.2142 174.941 28.0433 173.066 26.9012C172.188 26.3524 171.291 25.8795 170.413 25.3306C168.824 24.3375 167.234 23.3443 165.645 22.3512C165.498 22.2597 165.316 22.0871 165.234 22.1239C164.062 22.5572 163.493 21.5603 162.74 21.0898C160.983 19.9922 159.271 18.7766 157.515 17.6789C155.486 16.4114 153.445 15.1648 151.437 13.9103C150.036 13.0347 148.695 12.1094 147.307 11.2129C145.668 10.1596 144.008 9.0932 142.356 8.06085C139.888 6.51887 137.42 4.97688 134.974 3.44797C134.845 3.51357 134.704 3.60012 134.576 3.66572C134.617 4.1579 134.564 4.70778 134.755 5.14742C135.071 5.8985 135.617 6.56029 135.967 7.30347C138.021 11.6474 140.882 15.4458 143.897 19.1367C146.316 22.1057 148.709 25.1166 150.927 28.2219C153.672 32.065 156.203 36.0654 158.854 39.9662C159.097 40.322 159.544 40.6304 159.944 40.7347C161.006 40.9901 162.086 41.1696 163.163 41.26C167.542 41.6059 171.917 41.8629 176.309 42.1879C181.668 42.593 187 43.0399 192.338 43.432C192.943 43.4889 193.597 43.373 194.151 43.1367C195.235 42.7061 196.213 41.9771 197.484 42.5962L197.497 42.5753Z" fill="#FF1616"/>
<path d="M172.824 70.8457C171.966 70.0769 169.983 70.8777 170.134 68.728C169.776 68.6499 169.316 68.5954 168.895 68.478C168.625 68.3972 168.162 68.2537 168.157 68.0757C168.022 66.9421 167.047 67.061 166.375 66.7869C165.904 66.6094 165.402 66.5288 164.965 66.3433C164.265 66.0221 164.134 65.5326 164.917 64.8851C164.496 64.7677 164.091 64.7184 163.772 64.5774C163.453 64.4364 162.925 64.1647 162.94 63.9997C163.004 62.8738 162.17 62.9061 161.466 62.7289C160.894 62.5751 160.017 62.8143 160.042 61.7513C160.039 61.6623 159.715 61.5762 159.542 61.5267C157.887 60.8713 156.219 60.237 154.564 59.5817C154.245 59.4406 153.979 59.2158 153.728 58.8259C153.919 58.7995 154.149 58.7103 154.288 58.7677C156.562 59.548 158.837 60.3283 161.107 61.1636C161.771 61.4037 162.398 61.7958 163.031 62.1328C163.345 62.3288 163.857 62.5325 163.891 62.7576C163.971 63.886 164.892 63.7619 165.543 64.023C166.312 64.3284 167.093 64.613 166.59 65.6975C167.367 66.037 168.316 66.193 168.818 66.7396C169.573 67.5321 170.509 67.7091 171.377 68.1349C171.801 68.3413 172.056 68.9091 172.31 69.388C174.068 70.079 174.806 70.8217 174.523 71.6162C175.056 71.8329 175.629 71.9868 176.144 72.2794C176.437 72.4624 176.68 72.8182 176.86 73.1348C176.897 73.2159 176.695 73.5853 176.585 73.5749C176.242 73.5649 175.871 73.5077 175.573 73.3797C174.956 73.1107 174.402 72.6479 173.766 72.4549C172.93 72.1652 172.514 71.7598 172.86 70.9269L172.824 70.8457Z" fill="#FF1616"/>
<path d="M169.476 62.1961C167.701 61.6404 167.128 61.4865 167.652 60.4151C167.082 60.3503 166.567 60.2907 165.942 60.2207C165.973 60.1238 165.965 59.8567 166.086 59.7571C166.683 59.3139 168.665 59.6783 168.753 60.3746C168.914 61.4662 169.859 61.2112 170.358 61.6688C170.674 61.9539 170.964 62.2808 171.28 62.5659C171.463 62.7384 171.714 62.8953 171.95 62.984C172.87 63.326 173.843 63.5841 174.116 64.7751C174.171 65.0133 174.642 65.1908 174.953 65.2978C176.122 65.7075 177.29 66.1173 177.92 67.2974C178.042 67.5198 177.943 67.8655 177.937 68.1535C177.707 68.0098 177.477 67.866 177.247 67.7223C176.369 67.1734 175.517 66.3497 174.596 66.2407C173.401 66.1059 172.737 65.3997 172.223 64.641C171.844 64.0838 171.449 63.9245 170.931 63.7758C170.49 63.6454 170.016 63.6119 169.587 63.4605C169.297 63.3666 169.064 63.1339 168.806 62.943C169.018 62.6967 169.23 62.4503 169.442 62.204L169.476 62.1961Z" fill="#FF1616"/>
<path d="M128.945 35.6168C129.082 34.1871 128.456 32.863 128.802 31.564C128.98 31.5586 129.171 31.5322 129.349 31.5267C129.567 32.9455 129.833 34.3355 129.962 35.7571C129.97 36.0241 129.517 36.4697 129.206 36.5957C128.306 36.9659 127.403 37.247 126.451 37.468C126.179 37.5312 125.857 37.3011 125.533 37.2151C125.724 36.9557 125.863 36.5471 126.114 36.4709C127.022 36.1347 127.954 35.9007 128.932 35.6378L128.945 35.6168Z" fill="#FF1616"/>
<path d="M122.02 31.2024C122.166 31.9929 122.341 32.8306 122.46 33.663C122.504 34.0112 122.535 34.3803 122.47 34.7182C122.433 34.8701 122.158 35.0772 121.98 35.0826C121.836 35.0802 121.583 34.8343 121.531 34.6852C121.299 33.5203 121.033 32.3634 120.904 31.1749C120.867 30.8607 121.247 30.2529 121.545 30.1478C122.678 29.7774 123.829 29.564 125.007 29.3087C125.143 29.2772 125.318 29.4157 125.477 29.4863C125.501 29.5883 125.524 29.6904 125.548 29.7925C124.383 30.2598 123.211 30.6932 121.979 31.1763L122.02 31.2024Z" fill="#FF1616"/>
<path d="M129.321 22.8244C128.567 23.5191 127.558 23.6459 126.511 23.9246C126.761 24.7804 127.025 25.6154 127.22 26.466C127.29 26.7723 127.259 27.1022 127.164 27.393C127.107 27.5318 126.795 27.6578 126.597 27.6502C126.474 27.6608 126.288 27.3992 126.236 27.25C125.983 26.3051 125.764 25.3523 125.525 24.3865C125.264 23.4076 125.531 22.9334 126.541 22.8066C127.415 22.7113 128.296 22.6501 129.17 22.5549C129.206 22.636 129.264 22.7302 129.3 22.8113L129.321 22.8244Z" fill="#FF1616"/>
<path d="M137.417 18.3822C137.649 19.7801 137.907 21.136 138.07 22.5496C138.099 22.8298 137.771 23.3538 137.494 23.4719C136.722 23.7765 135.898 23.9319 135.087 24.0663C134.862 24.1006 134.595 23.8757 134.373 23.766C134.572 23.5406 134.727 23.2001 134.944 23.1317C135.69 22.8691 136.48 22.7216 137.322 22.4903C137.161 21.1656 137.013 19.82 136.858 18.4404C137.049 18.414 137.226 18.4086 137.438 18.3953L137.417 18.3822Z" fill="#FF1616"/>
<path d="M132.857 17.398C132.114 17.5166 131.371 17.6353 130.675 17.7251C130.883 18.7878 131.136 19.7327 131.232 20.6961C131.253 20.9422 130.878 21.262 130.687 21.5215C130.536 21.252 130.303 21.0192 130.212 20.6999C129.97 19.878 129.85 19.0456 129.607 18.2237C129.328 17.3208 129.541 16.8414 130.469 16.7513C131.241 16.6798 132.052 16.7784 132.86 16.7879C132.865 16.966 132.891 17.1571 132.883 17.3561L132.857 17.398Z" fill="#FF1616"/>
<path d="M132.801 24.795C133.587 25.7236 133.738 26.9252 133.771 28.0824C133.773 28.4044 133.236 28.7977 132.86 29.0286C132.368 29.304 131.81 29.4513 131.266 29.5775C131.028 29.6328 130.756 29.4629 130.495 29.4161C130.631 29.1515 130.702 28.7587 130.911 28.6563C131.505 28.3572 132.131 28.1942 132.761 27.9762C132.629 26.9316 132.504 25.9212 132.38 24.9107C132.516 24.8791 132.673 24.8606 132.809 24.829L132.801 24.795Z" fill="#FF1616"/>
<path d="M124.784 32.7836C125.138 32.2177 125.598 32.0391 126.192 32.439C126.715 32.7657 126.907 33.9935 126.504 34.4992C126.08 34.9919 125.53 35.1732 124.931 34.8283C124.325 34.4493 124.273 33.6011 124.805 32.7967L124.784 32.7836Z" fill="#FF1616"/>
<path d="M120.931 38.8566C121.224 38.8065 121.684 38.628 122.084 38.7323C122.623 38.894 122.985 40.3153 122.556 40.6299C122.174 40.9158 121.428 41.1784 121.114 40.9824C120.487 40.5904 120.472 39.8232 120.918 38.8776L120.931 38.8566Z" fill="#FF1616"/>
<path d="M135.174 20.6236C134.545 21.3966 134.017 21.3579 133.447 21.0601C132.856 20.7492 132.75 20.1288 133.142 19.733C133.462 19.408 134.226 19.0694 134.532 19.2314C134.879 19.4195 134.976 20.1499 135.174 20.6236Z" fill="#FF1616"/>
<path d="M129.265 26.8692C129.208 26.0759 129.007 25.5132 129.167 25.1177C129.29 24.8741 129.955 24.8812 130.376 24.7655C130.48 25.2969 130.694 25.8386 130.654 26.3675C130.638 26.5325 129.942 26.6223 129.244 26.8561L129.265 26.8692Z" fill="#FF1616"/>
<path d="M138.104 15.2845C137.426 15.2984 136.89 15.4587 136.762 15.2913C136.535 15.0035 136.43 14.4722 136.551 14.1395C136.614 13.9457 137.362 13.7721 137.558 13.9237C137.83 14.0936 137.858 14.6067 138.125 15.2976L138.104 15.2845Z" fill="#FF1616"/>
</g>
<path fill-rule="evenodd" clip-rule="evenodd" d="M75.9364 38.7109C78.3095 39.2628 80.4613 40.4436 82.1902 42.3304L81.0019 43.4272C79.5082 41.7971 77.6509 40.7729 75.5719 40.2894L75.9364 38.7109ZM62.1899 41.2664C64.3519 40.0765 66.5899 39.2214 68.7966 38.7534L69.1304 40.3386C67.0944 40.7705 65.0047 41.5652 62.9661 42.6871L62.1899 41.2664ZM51.8507 50.6585C53.222 48.6893 54.7907 46.9171 56.4851 45.3714L57.571 46.5704C55.9636 48.0368 54.475 49.7184 53.174 51.5867L51.8507 50.6585ZM85.5409 48.6694C85.8403 49.7519 86.0675 50.922 86.2162 52.1818C86.3443 53.2678 86.4049 54.3596 86.4011 55.4561L84.7866 55.4505C84.7902 54.4177 84.7332 53.3915 84.6129 52.3723C84.4731 51.1874 84.2608 50.099 83.9853 49.1028L85.5409 48.6694ZM46.6874 63.6509C47.033 61.2557 47.6597 58.9799 48.5112 56.847L50.0099 57.4497C49.2042 59.4677 48.6118 61.6193 48.2852 63.8831L46.6874 63.6509ZM85.6637 61.9373C85.2127 63.9965 84.5625 66.0639 83.7343 68.1338L82.2361 67.5299C83.0348 65.5339 83.657 63.5521 84.0869 61.5895L85.6637 61.9373ZM136.875 66.229C137.244 66.4802 137.34 66.9839 137.09 67.3543C136.473 68.2667 135.835 69.1939 135.176 70.1318L133.857 69.1982C134.51 68.2686 135.143 67.3495 135.754 66.4449C136.004 66.0745 136.506 65.9779 136.875 66.229ZM47.8732 77.576C47.1482 75.2232 46.7029 72.9234 46.5038 70.6916L48.1118 70.5471C48.3006 72.663 48.7233 74.8509 49.4156 77.0972L47.8732 77.576ZM80.9485 73.9652C79.9389 75.7919 78.805 77.6183 77.5605 79.4408L76.2288 78.5248C77.4477 76.7399 78.5543 74.9568 79.5367 73.1792L80.9485 73.9652ZM131.188 75.5895C129.847 77.3528 128.442 79.1275 126.982 80.8893L125.741 79.8529C127.186 78.1098 128.576 76.353 129.905 74.6063L131.188 75.5895ZM54.1991 90.0128C52.7633 88.0023 51.5468 86.009 50.5322 84.0403L51.9662 83.2959C52.9431 85.1915 54.1184 87.1183 55.5113 89.0689L54.1991 90.0128ZM73.7493 84.5909C72.4472 86.2273 71.0645 87.8588 69.6107 89.4824L68.4099 88.3995C69.8445 86.7971 71.2069 85.1896 72.4878 83.5798L73.7493 84.5909ZM122.541 85.9976C121.02 87.6631 119.451 89.2949 117.839 90.8708L116.712 89.7101C118.3 88.1574 119.849 86.5477 121.351 84.9027L122.541 85.9976ZM61.1558 98.1322C60.9905 98.2885 60.8248 98.4448 60.6585 98.6009L59.5556 97.4176C59.7114 97.2713 59.8668 97.1248 60.0218 96.9783C59.5109 96.4467 59.0163 95.9157 58.5375 95.3854L59.734 94.2975C60.2036 94.8177 60.6893 95.339 61.1914 95.8614C62.1763 94.9118 63.1403 93.9586 64.0816 93.0025L65.23 94.1412C64.2835 95.1027 63.3148 96.0607 62.3257 97.0146C63.0552 97.7369 63.7863 98.4145 64.5188 99.049L63.464 100.276C62.6912 99.6062 61.9217 98.8922 61.1558 98.1322ZM112.834 95.4477C111.089 96.9334 109.303 98.3368 107.483 99.6329L106.548 98.3114C108.327 97.0451 110.076 95.6708 111.79 94.212L112.834 95.4477ZM55.9317 102.889C54.347 104.281 52.7266 105.661 51.077 107.027L50.0493 105.778C51.6877 104.42 53.2963 103.05 54.8686 101.67L55.9317 102.889ZM101.736 103.281C99.7066 104.41 97.6426 105.386 95.5519 106.177L94.9824 104.661C96.9915 103.901 98.9844 102.959 100.954 101.864L101.736 103.281ZM75.2961 107.143C73.1919 106.472 71.0952 105.533 69.0136 104.303L69.833 102.907C71.8146 104.078 73.8008 104.966 75.7851 105.599L75.2961 107.143ZM88.9413 108.01C86.6681 108.404 84.3741 108.551 82.0703 108.411L82.1677 106.794C84.3383 106.925 86.5071 106.788 88.6665 106.413L88.9413 108.01ZM46.1181 111.029C44.4536 112.339 42.7674 113.635 41.0657 114.914L40.0979 113.617C41.7906 112.344 43.4673 111.056 45.1218 109.754L46.1181 111.029ZM35.9366 118.689C34.2114 119.933 32.4768 121.159 30.7391 122.365L29.8207 121.032C31.5509 119.831 33.2776 118.611 34.9946 117.373L35.9366 118.689ZM25.4795 125.952C23.7026 127.142 21.9288 128.311 20.1648 129.455L19.2886 128.094C21.0461 126.954 22.8131 125.79 24.5829 124.604L25.4795 125.952ZM14.805 132.877C12.98 134.025 11.1731 135.143 9.39209 136.23L8.55305 134.846C10.3283 133.762 12.1291 132.648 13.9479 131.504L14.805 132.877ZM3.94495 139.509C3.02458 140.055 2.11388 140.592 1.21402 141.119C0.82891 141.344 0.334644 141.213 0.110049 140.827C-0.114545 140.44 0.015582 139.944 0.400696 139.719C1.2978 139.194 2.2057 138.659 3.12321 138.114L3.94495 139.509Z" fill="#FF1616"/>
<defs>
<clipPath id="clip0_232_1318">
<rect width="79.1084" height="42.7831" fill="white" transform="translate(134 0.770996) rotate(32)"/>
</clipPath>
</defs>
</svg>
