<svg width="38" height="40" viewBox="0 0 38 40" fill="none" xmlns="http://www.w3.org/2000/svg">
<path d="M17.9975 0.00582045C14.7875 0.0445704 7.88626 0.57207 4.02626 4.11332C1.15501 6.95832 0.152511 11.1646 0.0350114 16.3658C-0.0624886 21.5483 -0.179989 31.2808 9.20126 33.9308V37.9671C9.20126 37.9671 9.14251 39.5821 10.21 39.9133C11.525 40.3296 12.2738 39.0871 13.5238 37.7521L15.855 35.1158C22.2738 35.6496 27.19 34.4196 27.7563 34.2371C29.0588 33.8208 36.395 32.8833 37.5938 23.1496C38.8238 13.0971 36.995 6.76332 33.6938 3.89832H33.6738C32.6775 2.98082 28.6738 0.0633205 19.7288 0.0308205C19.7288 0.0308205 19.065 -0.0141795 17.9975 0.00457045V0.00582045ZM18.1075 2.83207C19.0188 2.82582 19.5725 2.86457 19.5725 2.86457C27.1438 2.88457 30.7575 5.16332 31.61 5.93082C34.39 8.31332 35.8225 14.0233 34.7738 22.4158C33.7775 30.5533 27.8275 31.0683 26.7263 31.4196C26.2575 31.5696 21.9275 32.6371 16.4725 32.2858C16.4725 32.2858 12.41 37.1883 11.14 38.4508C10.9388 38.6721 10.7038 38.7371 10.5538 38.7046C10.3388 38.6521 10.2738 38.3858 10.2863 38.0208L10.325 31.3221C2.36876 29.1221 2.83751 20.8208 2.92251 16.4846C3.02001 12.1483 3.83376 8.60082 6.25626 6.19832C9.51751 3.24957 15.3775 2.85207 18.105 2.83207H18.1075ZM18.7075 7.16707C18.642 7.16641 18.5771 7.17872 18.5164 7.20328C18.4557 7.22785 18.4004 7.26418 18.3538 7.3102C18.3072 7.35621 18.2702 7.411 18.2449 7.47139C18.2195 7.53178 18.2064 7.59658 18.2063 7.66207C18.2063 7.94207 18.4338 8.16332 18.7075 8.16332C19.9469 8.13975 21.1787 8.36178 22.3318 8.8166C23.485 9.27143 24.5367 9.95005 25.4263 10.8133C27.2425 12.5771 28.1275 14.9471 28.1613 18.0458C28.1613 18.3196 28.3825 18.5471 28.6625 18.5471V18.5271C28.7945 18.5274 28.9212 18.4756 29.0151 18.3828C29.109 18.2901 29.1624 18.164 29.1638 18.0321C29.2245 16.5735 28.9879 15.1178 28.4685 13.7535C27.9492 12.3892 27.1578 11.1448 26.1425 10.0958C24.1638 8.16207 21.6563 7.16582 18.7075 7.16582V7.16707ZM12.1188 8.31332C11.7649 8.26162 11.4041 8.33265 11.0963 8.51457H11.07C10.3553 8.93349 9.71153 9.46297 9.16251 10.0833C8.70626 10.6108 8.45876 11.1446 8.39376 11.6583C8.35501 11.9646 8.38126 12.2708 8.47251 12.5633L8.50501 12.5833C9.01876 14.0933 9.69001 15.5458 10.51 16.9133C11.5663 18.8345 12.8662 20.6113 14.3775 22.1996L14.4225 22.2646L14.4938 22.3171L14.5388 22.3696L14.5913 22.4146C16.1853 23.9303 17.9664 25.2363 19.8913 26.3008C22.0913 27.4983 23.4263 28.0646 24.2275 28.2996V28.3121C24.4625 28.3833 24.6763 28.4158 24.8913 28.4158C25.5741 28.3658 26.2206 28.0886 26.7275 27.6283C27.345 27.0792 27.8686 26.4327 28.2775 25.7146V25.7021C28.6613 24.9796 28.5313 24.2958 27.9775 23.8333C26.8685 22.8639 25.6693 22.0029 24.3963 21.2621C23.5438 20.7996 22.6775 21.0796 22.3263 21.5483L21.5775 22.4921C21.1938 22.9608 20.4963 22.8958 20.4963 22.8958L20.4763 22.9083C15.275 21.5796 13.8875 16.3133 13.8875 16.3133C13.8875 16.3133 13.8225 15.5971 14.3038 15.2321L15.2413 14.4771C15.69 14.1121 16.0025 13.2471 15.5213 12.3933C14.7855 11.1185 13.9264 9.91901 12.9563 8.81207C12.7442 8.55111 12.4466 8.37356 12.1163 8.31082L12.1188 8.31332ZM19.5725 9.79832C18.9088 9.79832 18.9088 10.8008 19.5788 10.8008C20.4041 10.8142 21.2187 10.9901 21.9761 11.3185C22.7334 11.6469 23.4186 12.1213 23.9925 12.7146C24.516 13.2921 24.9183 13.9688 25.1756 14.7046C25.4328 15.4404 25.5397 16.2204 25.49 16.9983C25.4923 17.13 25.546 17.2555 25.6397 17.348C25.7334 17.4405 25.8596 17.4927 25.9913 17.4933L26.0113 17.5196C26.1439 17.5186 26.2708 17.4655 26.3646 17.3717C26.4584 17.2779 26.5115 17.151 26.5125 17.0183C26.5575 15.0321 25.94 13.3658 24.7288 12.0308C23.5113 10.6958 21.8125 9.94707 19.6438 9.79832H19.5725ZM20.3938 12.4933C19.71 12.4733 19.6838 13.4958 20.3613 13.5158C22.0088 13.6008 22.8088 14.4333 22.9138 16.1458C22.916 16.2758 22.9691 16.3997 23.0616 16.4911C23.1542 16.5824 23.2788 16.6339 23.4088 16.6346H23.4288C23.4956 16.6317 23.5612 16.6156 23.6217 16.5871C23.6823 16.5586 23.7365 16.5183 23.7813 16.4686C23.8261 16.4189 23.8606 16.3608 23.8827 16.2977C23.9048 16.2345 23.9141 16.1676 23.91 16.1008C23.7925 13.8683 22.575 12.6108 20.4138 12.4946H20.3938V12.4933Z" fill="#FF1616"/>
</svg>
