<svg width="174" height="174" viewBox="0 0 174 174" fill="none" xmlns="http://www.w3.org/2000/svg">
<g filter="url(#filter0_i_203_1221)">
<circle cx="87" cy="87" r="87" fill="#F7F7F8"/>
</g>
<circle cx="87" cy="87" r="59" fill="#051326"/>
<path d="M80.84 21.5103V8.80225L92.9 8.80225V11.1423L84.026 11.1423V13.5903H88.94C89.996 13.5903 90.842 13.6743 91.478 13.8423C92.114 14.0103 92.678 14.3763 93.17 14.9403C93.734 15.5883 94.016 16.4523 94.016 17.5323C94.016 18.4443 93.83 19.2003 93.458 19.8003C93.05 20.4963 92.498 20.9583 91.802 21.1863C91.118 21.4023 90.278 21.5103 89.282 21.5103L80.84 21.5103ZM84.026 19.2963H89.174C89.762 19.2963 90.182 19.1163 90.434 18.7563C90.698 18.3963 90.83 17.9823 90.83 17.5143C90.83 16.7343 90.542 16.2243 89.966 15.9843C89.678 15.8643 89.162 15.8043 88.418 15.8043H84.026V19.2963Z" fill="#051326"/>
<path d="M110.788 25.5147L98.995 22.3752L102.304 10.1056L113.75 13.1525L113.154 15.3596L104.788 13.1324L104.042 15.8956L112.131 18.0488L111.54 20.2386L103.452 18.0854L102.664 21.0051L111.379 23.3249L110.788 25.5147Z" fill="#051326"/>
<path d="M126.14 28.8469L129.029 30.5038C128.775 30.7733 128.477 31.024 128.134 31.2561C127.801 31.4941 127.348 31.7118 126.776 31.909C126.213 32.1122 125.611 32.2299 124.967 32.2621C124.341 32.2899 123.59 32.1844 122.716 31.9457C121.845 31.7233 120.952 31.3494 120.036 30.824C118.017 29.6657 116.704 28.2348 116.098 26.5314C115.498 24.8177 115.744 23.0218 116.835 21.1439C117.83 19.432 119.218 18.3678 121.001 17.9516C122.8 17.5309 124.797 17.9504 126.994 19.2102C128.638 20.1536 129.816 21.2789 130.528 22.5862C131.245 23.8831 131.512 25.1082 131.328 26.2613L128.097 24.9063C128.004 23.2757 127.244 22.0514 125.818 21.2334C125.121 20.8334 124.437 20.6004 123.768 20.5346C123.098 20.4687 122.503 20.5493 121.982 20.7764C121.472 21.0094 121.021 21.2969 120.628 21.6387C120.245 21.9864 119.927 22.3782 119.674 22.8139C119.047 23.893 118.889 25.0128 119.2 26.1733C119.521 27.3399 120.27 28.2605 121.446 28.9352C123.122 29.8965 124.687 29.867 126.14 28.8469Z" fill="#051326"/>
<path d="M138.799 45.7351L136.539 43.4896L143.894 36.1823L138.837 31.1585L131.482 38.4658L129.222 36.2203L138.237 27.2638L147.814 36.7785L138.799 45.7351Z" fill="#051326"/>
<path d="M149.074 61.282L147.474 58.5274L156.467 53.3687L153.455 48.1863L152.206 48.9028C151.155 49.5058 150.274 49.9836 149.563 50.3362C148.862 50.6828 148.161 50.9811 147.46 51.2312C146.758 51.4813 146.165 51.607 145.68 51.6085C145.206 51.604 144.726 51.506 144.24 51.3144C143.764 51.1169 143.329 50.799 142.936 50.3607C142.542 49.9224 142.141 49.3505 141.731 48.6449L141.55 48.3337L143.58 47.1694L143.76 47.4807C143.953 47.8127 144.144 48.0697 144.333 48.2518C144.529 48.4442 144.775 48.5585 145.074 48.5947C145.389 48.6353 145.701 48.6225 146.009 48.5563C146.318 48.49 146.758 48.3276 147.329 48.069C147.901 47.8104 148.465 47.528 149.023 47.222C149.581 46.9159 150.343 46.4852 151.312 45.9299L153.966 44.4074L160.098 54.9591L149.074 61.282Z" fill="#051326"/>
<path d="M153.461 79.7378L152.711 76.2534L154.827 74.7018L153.457 68.3314L150.887 67.7713L150.157 64.375L163.88 67.7442L164.603 71.1054L153.461 79.7378ZM156.812 73.2328L161.207 70.0395L155.874 68.8686L156.812 73.2328Z" fill="#051326"/>
<path d="M162.754 93.949L162.845 89.2339L152.479 89.0325L152.541 85.8471L162.907 86.0485L162.999 81.3334L165.339 81.3788L165.093 93.9944L162.754 93.949Z" fill="#051326"/>
<path d="M149.084 109.525L149.914 106.449L155.184 107.852L157.181 100.449L151.91 99.0458L152.74 95.9697L165.02 99.2388L164.191 102.315L159.46 101.055L157.463 108.459L162.194 109.718L161.364 112.794L149.084 109.525Z" fill="#051326"/>
<path d="M153.636 116.177C154.667 116.768 155.458 117.472 156.012 118.287C156.575 119.108 156.892 119.961 156.961 120.844C157.035 121.744 156.958 122.641 156.731 123.534C156.497 124.438 156.124 125.33 155.611 126.212C155.087 127.115 154.503 127.893 153.859 128.548C153.209 129.212 152.48 129.749 151.674 130.158C150.861 130.577 149.958 130.758 148.965 130.7C147.971 130.642 146.954 130.315 145.913 129.717C144.06 128.655 142.939 127.23 142.548 125.442C142.161 123.671 142.589 121.717 143.831 119.58C145.073 117.442 146.572 116.082 148.327 115.497C150.076 114.924 151.846 115.15 153.636 116.177ZM151.912 118.965C151.444 118.696 150.949 118.509 150.427 118.404C149.916 118.304 149.383 118.289 148.829 118.359C148.28 118.445 147.74 118.681 147.209 119.069C146.683 119.473 146.224 120.012 145.832 120.686C145.434 121.371 145.197 122.03 145.12 122.664C145.054 123.304 145.096 123.84 145.247 124.272C145.403 124.721 145.633 125.137 145.938 125.519C146.237 125.912 146.502 126.196 146.734 126.37C146.97 126.561 147.198 126.719 147.416 126.844C148.478 127.453 149.591 127.628 150.755 127.369C151.923 127.126 152.869 126.382 153.592 125.137C154.328 123.871 154.496 122.674 154.097 121.546C153.702 120.434 152.974 119.574 151.912 118.965Z" fill="#051326"/>
<path d="M93.2205 152.49V165.198H81.1605V162.858H90.0345V160.41H85.1205C84.0645 160.41 83.2185 160.326 82.5825 160.158C81.9465 159.99 81.3825 159.624 80.8905 159.06C80.3265 158.412 80.0445 157.548 80.0445 156.468C80.0445 155.556 80.2305 154.8 80.6025 154.2C81.0105 153.504 81.5625 153.042 82.2585 152.814C82.9425 152.598 83.7825 152.49 84.7785 152.49H93.2205ZM90.0345 154.704H84.8865C84.2985 154.704 83.8785 154.884 83.6265 155.244C83.3625 155.604 83.2305 156.018 83.2305 156.486C83.2305 157.266 83.5185 157.776 84.0945 158.016C84.3825 158.136 84.8985 158.196 85.6425 158.196H90.0345V154.704Z" fill="#051326"/>
<path d="M63.2723 148.485L75.0656 151.625L71.7564 163.894L60.311 160.848L60.9063 158.64L69.2729 160.868L70.0182 158.104L61.9299 155.951L62.5204 153.761L70.6088 155.915L71.3962 152.995L62.6817 150.675L63.2723 148.485Z" fill="#051326"/>
<path d="M47.4731 144.945L44.5846 143.288C44.8383 143.018 45.1367 142.767 45.4798 142.535C45.8124 142.297 46.265 142.08 46.8377 141.882C47.3999 141.679 48.0026 141.562 48.6459 141.529C49.2727 141.502 50.0233 141.607 50.8978 141.846C51.7678 142.068 52.6608 142.442 53.5768 142.967C55.5962 144.126 56.909 145.557 57.5152 147.26C58.1153 148.974 57.8697 150.77 56.7784 152.648C55.7836 154.36 54.3949 155.424 52.6124 155.84C50.8135 156.261 48.8159 155.841 46.6196 154.581C44.9749 153.638 43.7969 152.513 43.0854 151.205C42.3679 149.908 42.1013 148.683 42.2857 147.53L45.5162 148.885C45.6095 150.516 46.3692 151.74 47.7953 152.558C48.4927 152.958 49.1762 153.191 49.8457 153.257C50.5153 153.323 51.1103 153.242 51.6309 153.015C52.1411 152.782 52.5926 152.495 52.9856 152.153C53.3681 151.805 53.686 151.413 53.9392 150.978C54.5662 149.899 54.7243 148.779 54.4133 147.618C54.0919 146.452 53.3431 145.531 52.1669 144.856C50.491 143.895 48.9264 143.924 47.4731 144.945Z" fill="#051326"/>
<path d="M35.4532 128.258L37.7134 130.503L30.3582 137.81L35.4149 142.834L42.77 135.527L45.0302 137.772L36.015 146.729L26.438 137.214L35.4532 128.258Z" fill="#051326"/>
<path d="M26.1726 113.424L27.7734 116.178L18.7799 121.337L21.7916 126.519L23.0407 125.803C24.092 125.2 24.9732 124.722 25.6844 124.369C26.3851 124.023 27.0861 123.724 27.7874 123.474C28.4886 123.224 29.0817 123.099 29.5666 123.097C30.0411 123.102 30.5214 123.2 31.0075 123.391C31.4831 123.589 31.9177 123.907 32.3112 124.345C32.7047 124.783 33.1064 125.355 33.5164 126.061L33.6973 126.372L31.6675 127.536L31.4866 127.225C31.2937 126.893 31.1027 126.636 30.9136 126.454C30.7185 126.261 30.4716 126.147 30.173 126.111C29.858 126.07 29.5462 126.083 29.2377 126.149C28.9293 126.216 28.4893 126.378 27.9179 126.637C27.3465 126.895 26.7819 127.178 26.2242 127.484C25.6665 127.79 24.9036 128.22 23.9355 128.776L21.2812 130.298L15.1493 119.746L26.1726 113.424Z" fill="#051326"/>
<path d="M20.3135 94.7521L21.2416 98.1932L19.2094 99.8518L20.9061 106.143L23.5008 106.57L24.4054 109.924L10.5268 107.267L9.63154 103.947L20.3135 94.7521ZM17.3023 101.421L13.078 104.837L18.4647 105.731L17.3023 101.421Z" fill="#051326"/>
<path d="M10.632 80.6971V85.4131H21V88.5991H10.632V93.3151H8.292V80.6971H10.632Z" fill="#051326"/>
<path d="M24.2961 63.8503L23.4667 66.9264L18.1964 65.5229L16.2003 72.9266L21.4707 74.3301L20.6413 77.4062L8.3613 74.136L9.19064 71.0599L13.9218 72.3198L15.9178 64.9161L11.1867 63.6562L12.016 60.58L24.2961 63.8503Z" fill="#051326"/>
<path d="M20.4244 57.8227C19.3939 57.2316 18.602 56.5284 18.0488 55.7131C17.4852 54.8918 17.1687 54.0393 17.0993 53.1556C17.0255 52.2556 17.1024 51.359 17.33 50.4659C17.5636 49.5623 17.9367 48.6696 18.4492 47.7877C18.9737 46.8851 19.558 46.1066 20.2019 45.4523C20.8519 44.7876 21.5802 44.2508 22.3868 43.8419C23.1995 43.4227 24.1025 43.2421 25.0959 43.3C26.0892 43.358 27.1064 43.6855 28.1473 44.2825C30.0001 45.3453 31.1219 46.7704 31.5128 48.5578C31.8992 50.3288 31.4714 52.283 30.2294 54.4203C28.9873 56.5576 27.4887 57.9184 25.7336 58.5025C23.9845 59.0763 22.2148 58.8497 20.4244 57.8227ZM22.1485 55.0351C22.6169 55.3037 23.1119 55.4908 23.6335 55.5964C24.1447 55.6959 24.6773 55.7109 25.2313 55.6413C25.7808 55.5553 26.3209 55.3187 26.8513 54.9313C27.3774 54.5275 27.8364 53.9884 28.2283 53.314C28.6263 52.6293 28.8637 51.97 28.9405 51.3362C29.0069 50.6965 28.9646 50.1603 28.8135 49.7278C28.658 49.2789 28.4276 48.8632 28.1225 48.4807C27.8235 48.0878 27.5581 47.8042 27.3263 47.6297C27.0902 47.439 26.8629 47.2809 26.6443 47.1555C25.5825 46.5465 24.4697 46.3716 23.3059 46.6309C22.1377 46.8739 21.1918 47.6179 20.4683 48.8629C19.7327 50.1287 19.5645 51.3257 19.9637 52.4538C20.3585 53.5656 21.0868 54.4261 22.1485 55.0351Z" fill="#051326"/>
<ellipse cx="49.7132" cy="26.7543" rx="3.7317" ry="3.70744" fill="#051326"/>
<ellipse cx="122.482" cy="147.247" rx="3.7317" ry="3.70744" fill="#051326"/>
<path d="M69.9206 83.9874C69.6395 83.9919 69.3717 84.1076 69.1757 84.3091C68.9798 84.5106 68.8717 84.7816 68.8751 85.0627V107.375C68.8751 109.713 70.7876 111.625 73.1251 111.625H102.875C105.213 111.625 107.125 109.713 107.125 107.375V85.0627C107.125 84.7809 107.013 84.5107 106.814 84.3114C106.615 84.1122 106.344 84.0002 106.063 84.0002C105.781 84.0002 105.511 84.1122 105.311 84.3114C105.112 84.5107 105 84.7809 105 85.0627V107.375C105 108.572 104.071 109.5 102.875 109.5H73.1251C71.9308 109.5 71.0001 108.572 71.0001 107.375V85.0627C71.0018 84.9206 70.975 84.7796 70.9214 84.6481C70.8677 84.5166 70.7881 84.3972 70.6875 84.2969C70.5869 84.1967 70.4671 84.1177 70.3354 84.0645C70.2036 84.0113 70.0626 83.9852 69.9206 83.9874Z" fill="#F7F7F8"/>
<path d="M68.875 69.125C66.5375 69.125 64.625 71.0375 64.625 73.375V81.875C64.625 84.2125 66.5375 86.125 68.875 86.125H84.8125C85.0943 86.125 85.3646 86.013 85.5639 85.8137C85.7631 85.6145 85.875 85.3443 85.875 85.0625C85.875 84.7807 85.7631 84.5105 85.5639 84.3113C85.3646 84.112 85.0943 84 84.8125 84H68.875C67.6808 84 66.75 83.0714 66.75 81.875V73.375C66.75 72.1786 67.6808 71.25 68.875 71.25H107.125C108.321 71.25 109.25 72.1786 109.25 73.375V81.875C109.25 83.0714 108.321 84 107.125 84H91.1875C90.9057 84 90.6355 84.112 90.4363 84.3113C90.237 84.5105 90.125 84.7807 90.125 85.0625C90.125 85.3443 90.237 85.6145 90.4363 85.8137C90.6355 86.013 90.9057 86.125 91.1875 86.125H107.125C109.463 86.125 111.375 84.2125 111.375 81.875V73.375C111.375 71.0375 109.463 69.125 107.125 69.125H68.875Z" fill="#F7F7F8"/>
<path d="M82.6875 58.5C79.1749 58.5 76.3125 61.3624 76.3125 64.875C76.3125 68.3876 79.1749 71.25 82.6875 71.25H88C88.2818 71.25 88.5521 71.138 88.7514 70.9387C88.9506 70.7395 89.0625 70.4693 89.0625 70.1875V64.875C89.0625 61.3624 86.2023 58.5 82.6875 58.5ZM82.6875 60.625C85.0611 60.625 86.9375 62.5014 86.9375 64.875V69.125H82.6875C80.316 69.125 78.4375 67.2486 78.4375 64.875C78.4375 62.5014 80.316 60.625 82.6875 60.625Z" fill="#F7F7F8"/>
<path d="M93.3125 58.5C89.7999 58.5 86.9375 61.3624 86.9375 64.875V70.1875C86.9375 70.4693 87.0495 70.7395 87.2488 70.9387C87.448 71.138 87.7182 71.25 88 71.25H93.3125C96.8273 71.25 99.6875 68.3876 99.6875 64.875C99.6875 61.3624 96.8273 58.5 93.3125 58.5ZM93.3125 60.625C95.6861 60.625 97.5625 62.5014 97.5625 64.875C97.5625 67.2486 95.6861 69.125 93.3125 69.125H89.0625V64.875C89.0625 62.5014 90.941 60.625 93.3125 60.625Z" fill="#F7F7F8"/>
<path d="M84.8125 69.125C84.5307 69.125 84.2605 69.237 84.0613 69.4363C83.862 69.6355 83.75 69.9057 83.75 70.1875V110.562C83.75 110.844 83.862 111.114 84.0613 111.314C84.2605 111.513 84.5307 111.625 84.8125 111.625H91.1875C91.4693 111.625 91.7396 111.513 91.9389 111.314C92.1381 111.114 92.25 110.844 92.25 110.562V70.1875C92.25 69.9057 92.1381 69.6355 91.9389 69.4363C91.7396 69.237 91.4693 69.125 91.1875 69.125H84.8125ZM85.875 71.25H90.125V109.5H85.875V71.25Z" fill="#F7F7F8"/>
<path fill-rule="evenodd" clip-rule="evenodd" d="M74.1706 83.9874C73.8896 83.9919 73.6217 84.1076 73.4258 84.3091C73.2298 84.5106 73.1217 84.7816 73.1251 85.0627V99.9249C73.1251 100.207 73.2372 100.477 73.4364 100.676C73.6357 100.875 73.9058 100.987 74.1876 100.987C74.4694 100.987 74.7397 100.875 74.939 100.676C75.1382 100.477 75.2501 100.207 75.2501 99.9249V85.0627C75.2519 84.9206 75.2251 84.7796 75.1714 84.6481C75.1177 84.5166 75.0382 84.3972 74.9376 84.2969C74.8369 84.1967 74.7172 84.1177 74.5854 84.0645C74.4537 84.0113 74.3127 83.9852 74.1706 83.9874ZM74.1706 103.095C74.0311 103.098 73.8934 103.127 73.7653 103.183C73.6373 103.238 73.5214 103.318 73.4244 103.419C73.3273 103.519 73.2508 103.637 73.1995 103.767C73.1481 103.897 73.1229 104.035 73.1251 104.175V106.3C73.1251 106.582 73.2372 106.852 73.4364 107.051C73.6357 107.25 73.9058 107.362 74.1876 107.362C74.4694 107.362 74.7397 107.25 74.939 107.051C75.1382 106.852 75.2501 106.582 75.2501 106.3V104.175C75.2524 104.033 75.2261 103.891 75.1727 103.759C75.1193 103.627 75.0398 103.507 74.9391 103.407C74.8384 103.306 74.7185 103.226 74.5865 103.173C74.4545 103.119 74.313 103.093 74.1706 103.095Z" fill="#F7F7F8"/>
<path d="M70.921 73.3841C70.452 73.3768 69.9928 73.519 69.6099 73.79C69.3902 73.9438 69.2096 74.1468 69.0827 74.383C68.9557 74.6192 68.8859 74.8817 68.8789 75.1498V78.2885C68.8789 78.5703 68.9908 78.8405 69.1901 79.0397C69.3893 79.239 69.6596 79.351 69.9414 79.351C70.2232 79.351 70.4935 79.239 70.6928 79.0397C70.892 78.8405 71.0039 78.5703 71.0039 78.2885V75.5091H74.0958C74.3776 75.5091 74.6478 75.397 74.847 75.1978C75.0463 74.9985 75.1583 74.7283 75.1583 74.4466C75.1583 74.1648 75.0463 73.8946 74.847 73.6953C74.6478 73.4961 74.3776 73.3841 74.0958 73.3841H70.921Z" fill="#F7F7F8"/>
<defs>
<filter id="filter0_i_203_1221" x="0" y="0" width="174" height="182" filterUnits="userSpaceOnUse" color-interpolation-filters="sRGB">
<feFlood flood-opacity="0" result="BackgroundImageFix"/>
<feBlend mode="normal" in="SourceGraphic" in2="BackgroundImageFix" result="shape"/>
<feColorMatrix in="SourceAlpha" type="matrix" values="0 0 0 0 0 0 0 0 0 0 0 0 0 0 0 0 0 0 127 0" result="hardAlpha"/>
<feMorphology radius="2" operator="erode" in="SourceAlpha" result="effect1_innerShadow_203_1221"/>
<feOffset dy="8"/>
<feGaussianBlur stdDeviation="5"/>
<feComposite in2="hardAlpha" operator="arithmetic" k2="-1" k3="1"/>
<feColorMatrix type="matrix" values="0 0 0 0 0.0196078 0 0 0 0 0.0745098 0 0 0 0 0.14902 0 0 0 0.15 0"/>
<feBlend mode="normal" in2="shape" result="effect1_innerShadow_203_1221"/>
</filter>
</defs>
</svg>
